<?xml version="1.0" standalone="no"?>
<!DOCTYPE svg PUBLIC "-//W3C//DTD SVG 1.1//EN" "http://www.w3.org/Graphics/SVG/1.1/DTD/svg11.dtd" >
<svg xmlns="http://www.w3.org/2000/svg" xmlns:xlink="http://www.w3.org/1999/xlink" version="1.1">
<metadata>
Created by FontForge 20170731 at Fri Sep  4 17:15:03 2015
 By Aleksey,,,
(c) 2014 Adobe Systems Incorporated. All Rights Reserved.
</metadata>
<defs>
<font id="AcuminPro-Black" horiz-adv-x="400" >
  <font-face 
    font-family="Acumin Pro Black"
    font-weight="900"
    font-stretch="normal"
    units-per-em="1000"
    panose-1="2 11 9 4 2 2 2 2 2 4"
    ascent="735"
    descent="-265"
    x-height="524"
    cap-height="689"
    bbox="-232 -261 1328 1058"
    underline-thickness="50"
    underline-position="-200"
    unicode-range="U+0020-FB02"
  />
<missing-glyph horiz-adv-x="500" 
d="M0 0v700h500v-700h-500zM250 395l170 255h-340zM280 350l170 -255v510zM80 50h340l-170 255zM50 605v-510l170 255z" />
    <glyph glyph-name="f_f" unicode="ff" horiz-adv-x="697" 
d="M408 393h-138v-393h-195v393h-69v131h69v29q0 181 191 181q49 0 70 -7v-126q-18 2 -27 2q-39 0 -39 -46v-33h138v29q0 181 190 181q46 0 72 -7v-127q-14 3 -27 3q-40 0 -40 -46v-33h81v-131h-81v-393h-195v393z" />
    <glyph glyph-name=".notdef" horiz-adv-x="500" 
d="M0 0v700h500v-700h-500zM250 395l170 255h-340zM280 350l170 -255v510zM80 50h340l-170 255zM50 605v-510l170 255z" />
    <glyph glyph-name=".null" horiz-adv-x="0" 
 />
    <glyph glyph-name="nonmarkingreturn" horiz-adv-x="333" 
 />
    <glyph glyph-name="space" unicode=" " horiz-adv-x="223" 
 />
    <glyph glyph-name="exclam" unicode="!" horiz-adv-x="352" 
d="M276 263h-155l-26 308v118h207v-119zM293 0h-192v191h192v-191z" />
    <glyph glyph-name="quotedbl" unicode="&#x22;" horiz-adv-x="462" 
d="M183 404h-124l-17 206v116h158v-117zM402 404h-123l-17 206v116h158v-117z" />
    <glyph glyph-name="numbersign" unicode="#" horiz-adv-x="652" 
d="M297 0l36 152h-97l-35 -152h-122l36 152h-68v138h101l25 104h-77v138h109l33 137h117l-32 -137h99l32 137h119l-32 -137h61l-1 -138h-92l-24 -104h76v-138h-108l-35 -152h-121zM365 290l24 104h-97l-24 -104h97z" />
    <glyph glyph-name="dollar" unicode="$" horiz-adv-x="591" 
d="M361 -78h-133v75q-94 14 -146 65t-57 127h178q16 -71 94 -71q73 0 73 56q0 30 -21.5 46.5t-82.5 32.5q-129 36 -178 86.5t-49 127.5q0 76 49.5 128t133.5 67v61h133v-61q89 -14 135 -62.5t52 -120.5h-175q-3 13 -6.5 21.5t-11.5 19.5t-24 17t-38 6q-33 0 -48.5 -15.5
t-15.5 -37.5q0 -26 23 -40.5t94 -34.5q124 -34 171 -85t47 -132q-1 -86 -53 -136.5t-144 -63.5v-76z" />
    <glyph glyph-name="percent" unicode="%" horiz-adv-x="944" 
d="M224 672q87 0 136.5 -50.5t49.5 -141.5q0 -87 -49.5 -139.5t-137.5 -52.5q-91 0 -140.5 50t-49.5 142q0 84 49.5 138t141.5 54zM224 573q-54 0 -54 -93q0 -94 53 -94q54 0 54 94q0 93 -53 93zM312 0h-104l424 660h105zM726 373q88 0 137.5 -50.5t49.5 -141.5
q0 -87 -50 -140t-138 -53q-90 0 -140 50.5t-50 142.5q0 84 49.5 138t141.5 54zM726 273q-53 0 -53 -92q0 -94 53 -94t53 94q0 92 -53 92z" />
    <glyph glyph-name="ampersand" unicode="&#x26;" horiz-adv-x="846" 
d="M320 128q48 0 85 28l-143 131q-38 -32 -38 -76q0 -35 23.5 -59t72.5 -24zM622 427h186l-188 -242l198 -185h-243l-66 60q-87 -72 -216 -72q-119 0 -185.5 57.5t-66.5 143.5q0 59 32 101t105 82q-65 68 -65 137q0 83 60 137t166 54q102 0 161.5 -49.5t59.5 -124.5
q0 -54 -32.5 -92t-96.5 -73l82 -77zM343 584q-24 0 -38 -16.5t-14 -42.5q0 -37 53 -84q53 36 53 84q0 26 -14 42.5t-40 16.5z" />
    <glyph glyph-name="quotesingle" unicode="'" horiz-adv-x="239" 
d="M190 404h-142l-15 206v114h173v-115z" />
    <glyph glyph-name="parenleft" unicode="(" horiz-adv-x="389" 
d="M197 724h161q-150 -218 -150 -444q0 -245 150 -458h-161q-149 196 -149 459q0 237 149 443z" />
    <glyph glyph-name="parenright" unicode=")" horiz-adv-x="389" 
d="M192 -178h-161q150 218 150 444q0 245 -150 458h161q150 -198 150 -459q0 -236 -150 -443z" />
    <glyph glyph-name="asterisk" unicode="*" horiz-adv-x="467" 
d="M171 689h125l-30 -159l111 109l67 -112l-156 -48l154 -51l-66 -110l-110 111l29 -157h-124l29 154l-111 -105l-65 112l154 48l-154 51l67 110l110 -110z" />
    <glyph glyph-name="plus" unicode="+" horiz-adv-x="679" 
d="M270 553h143v-206h200v-140h-200v-207h-143v207h-204v140h204v206z" />
    <glyph glyph-name="comma" unicode="," horiz-adv-x="300" 
d="M148 -105h-140q55 143 70 314h179q-9 -87 -37 -171.5t-72 -142.5z" />
    <glyph glyph-name="hyphen" unicode="-" horiz-adv-x="385" 
d="M45 336h295v-152h-295v152z" />
    <glyph glyph-name="period" unicode="." horiz-adv-x="277" 
d="M236 0h-195v209h195v-209z" />
    <glyph glyph-name="slash" unicode="/" horiz-adv-x="449" 
d="M171 -46h-139l246 743h139z" />
    <glyph glyph-name="zero" unicode="0" horiz-adv-x="628" 
d="M316 672q140 0 207 -92.5t67 -246.5q0 -74 -14.5 -133.5t-45.5 -109t-86 -76.5t-131 -27q-74 0 -129 27t-86 75t-45.5 107.5t-14.5 132.5q0 71 15 130.5t46.5 108.5t86.5 76.5t130 27.5zM316 537q-45 0 -62 -45.5t-17 -159.5q0 -113 15.5 -161t62.5 -48q46 0 60.5 47.5
t14.5 161.5t-14.5 159.5t-59.5 45.5z" />
    <glyph glyph-name="one" unicode="1" horiz-adv-x="409" 
d="M331 0h-197v462q-41 -10 -99 -10v127q93 12 159 80h137v-659z" />
    <glyph glyph-name="two" unicode="2" horiz-adv-x="586" 
d="M540 0h-500v17q0 99 45 171.5t142 141.5q75 54 97.5 78.5t22.5 59.5q0 71 -62 71q-36 0 -52 -22t-20 -66h-179q2 42 16.5 78.5t43 70t79.5 53t120 19.5q130 0 190 -59t60 -148q0 -67 -33 -113t-125 -106q-92 -62 -112 -101h290z" />
    <glyph glyph-name="three" unicode="3" horiz-adv-x="588" 
d="M212 480h-175q4 35 17.5 66t40.5 61t77.5 47.5t118.5 17.5q117 0 179 -52t62 -131q0 -97 -87 -132v-4q111 -40 111 -155q0 -89 -65 -150t-202 -61q-60 0 -107 13.5t-75 34t-46.5 48.5t-26 53t-9.5 51h181q11 -70 80 -70q36 0 54.5 22t18.5 61q0 42 -21 63t-71 21h-58v130
h55q45 0 62 15t17 50q0 63 -62 63q-60 0 -69 -62z" />
    <glyph glyph-name="four" unicode="4" horiz-adv-x="599" 
d="M505 0h-181v139h-294v140l250 380h225v-380h77l-16 -140h-61v-139zM324 279v82q0 89 4 146q-26 -59 -133 -228h129z" />
    <glyph glyph-name="five" unicode="5" horiz-adv-x="607" 
d="M554 659l-25 -146h-269q-3 -29 -14 -92q43 29 115 29q100 0 156 -61t56 -156q0 -109 -68 -177.5t-201 -68.5q-118 0 -187 53.5t-79 143.5h187q15 -65 76 -65q38 0 56.5 27.5t18.5 73.5q0 98 -77 98q-59 0 -77 -52l-170 16q34 170 56 377h446z" />
    <glyph glyph-name="six" unicode="6" horiz-adv-x="613" 
d="M562 493h-177q-12 54 -65 54q-46 0 -66 -37t-22 -106q50 48 140 48q91 0 149.5 -59.5t58.5 -158.5q0 -112 -71.5 -179.5t-193.5 -67.5q-143 0 -209.5 89.5t-66.5 244.5q0 55 8.5 104t29 95t52.5 79t81.5 53t112.5 20q117 0 175.5 -55t63.5 -124zM311 117q37 0 56 27.5
t19 74.5q0 103 -76 103q-73 0 -73 -97q0 -108 74 -108z" />
    <glyph glyph-name="seven" unicode="7" horiz-adv-x="530" 
d="M20 659h493v-129q-81 -115 -142 -255t-79 -275h-205q18 132 87 278t144 235h-298v146z" />
    <glyph glyph-name="eight" unicode="8" horiz-adv-x="618" 
d="M301 -13q-120 0 -193.5 55.5t-73.5 149.5q0 54 30 93t75 60q-80 51 -80 138q0 84 63.5 136.5t188.5 52.5q116 0 183 -50.5t67 -137.5q0 -94 -83 -133q42 -17 74.5 -56.5t32.5 -98.5q0 -97 -74 -153t-210 -56zM311 116q38 0 59 21.5t21 60.5q0 40 -21.5 60.5t-59.5 20.5
q-39 0 -60 -21.5t-21 -58.5q0 -39 22.5 -61t59.5 -22zM309 544q-69 0 -69 -69q0 -30 18 -47.5t52 -17.5q70 0 70 65q0 69 -71 69z" />
    <glyph glyph-name="nine" unicode="9" horiz-adv-x="614" 
d="M43 172h190q13 -53 67 -53q20 0 34.5 10t23 24t13.5 36t7 40.5t3 43.5q-43 -46 -130 -46q-99 0 -158 58.5t-59 152.5q0 104 70.5 169t194.5 65q73 0 127.5 -25t86 -69.5t46.5 -99.5t15 -122q0 -369 -278 -369q-63 0 -112.5 17t-77.5 46t-43 59t-20 63zM303 541
q-36 0 -54.5 -24.5t-18.5 -67.5q0 -42 19.5 -67t55.5 -25q71 0 71 91q0 93 -73 93z" />
    <glyph glyph-name="colon" unicode=":" horiz-adv-x="325" 
d="M254 0h-184v191h184v-191zM254 329h-184v192h184v-192z" />
    <glyph glyph-name="semicolon" unicode=";" horiz-adv-x="330" 
d="M149 -108h-138q30 69 48.5 154.5t20.5 149.5h180q-8 -92 -39.5 -173t-71.5 -131zM263 323h-187v198h187v-198z" />
    <glyph glyph-name="less" unicode="&#x3c;" horiz-adv-x="577" 
d="M66 211v134l445 216v-149l-286 -133l286 -135v-149z" />
    <glyph glyph-name="equal" unicode="=" horiz-adv-x="679" 
d="M66 221h547v-140h-547v140zM66 476h547v-141h-547v141z" />
    <glyph glyph-name="greater" unicode="&#x3e;" horiz-adv-x="577" 
d="M511 344v-134l-445 -215v149l286 133l-286 135v149z" />
    <glyph glyph-name="question" unicode="?" horiz-adv-x="560" 
d="M384 232h-195v19q0 53 22.5 94.5t76.5 88.5q47 42 47 87q0 51 -50 51q-54 0 -59 -76h-174q3 84 63 142.5t181 58.5q121 -1 178 -58t57 -131q0 -48 -21.5 -83.5t-74.5 -81.5q-51 -45 -51 -102v-9zM384 0h-195v181h195v-181z" />
    <glyph glyph-name="at" unicode="@" horiz-adv-x="934" 
d="M657 -35l20 -98q-78 -43 -219 -43q-177 0 -293 111.5t-116 295.5q0 196 123.5 319.5t322.5 123.5q170 0 282 -95t112 -258q0 -136 -67.5 -214t-178.5 -78q-94 0 -119 61q-52 -60 -131 -60q-65 0 -104 44t-39 126q0 111 59 189.5t143 78.5q78 0 96 -50l12 39h152l-56 -263
q-6 -28 -1 -40t24 -12q38 0 66.5 48t28.5 128q0 116 -75.5 184.5t-205.5 68.5q-140 0 -229 -89t-89 -252q0 -129 79 -213.5t211 -84.5q116 0 192 33zM484 353q-32 0 -53.5 -49t-21.5 -100q0 -57 35 -57q49 0 70 100q13 59 5.5 82.5t-35.5 23.5z" />
    <glyph glyph-name="A" unicode="A" horiz-adv-x="715" 
d="M457 134h-216l-40 -134h-196l218 689h261l226 -689h-211zM275 284h147q-55 184 -74 271h-3q-15 -69 -70 -271z" />
    <glyph glyph-name="B" unicode="B" horiz-adv-x="706" 
d="M71 0v689h343q118 0 178.5 -51t60.5 -128q0 -54 -25.5 -92.5t-68.5 -56.5q46 -16 79.5 -55.5t33.5 -100.5q0 -89 -66 -147t-190 -58h-345zM267 423h113q39 0 58.5 18t19.5 48q0 64 -80 64h-111v-130zM267 288v-152h103q95 0 95 78q0 34 -22.5 54t-68.5 20h-107z" />
    <glyph glyph-name="C" unicode="C" horiz-adv-x="727" 
d="M494 227h201q-20 -112 -101 -176t-219 -64q-163 0 -249 97.5t-86 254.5q0 75 21 139.5t62 115t108.5 79.5t153.5 29q141 0 218.5 -69t89.5 -168h-200q-19 95 -113 95q-132 0 -132 -214q0 -217 134 -217q89 0 112 98z" />
    <glyph glyph-name="D" unicode="D" horiz-adv-x="754" 
d="M71 0v689h296q161 0 253.5 -93t92.5 -244q0 -155 -92.5 -253.5t-256.5 -98.5h-293zM273 543v-397h78q154 0 154 206q0 191 -152 191h-80z" />
    <glyph glyph-name="E" unicode="E" horiz-adv-x="638" 
d="M579 428v-149h-314v-129h351l-23 -150h-522v689h521v-150h-327v-111h314z" />
    <glyph glyph-name="F" unicode="F" horiz-adv-x="609" 
d="M71 0v689h515v-150h-317v-134h297v-150h-297v-255h-198z" />
    <glyph glyph-name="G" unicode="G" horiz-adv-x="767" 
d="M707 395v-395h-135q-8 27 -13 63q-58 -77 -201 -77q-152 0 -235 99.5t-83 250.5q0 164 92.5 265t260.5 101q144 0 224.5 -67t91.5 -158h-200q-23 82 -117 82q-144 0 -144 -216q0 -59 12 -104.5t46 -77.5t87 -32q47 0 75.5 22t36 46t7.5 52v5h-126v141h321z" />
    <glyph glyph-name="H" unicode="H" horiz-adv-x="758" 
d="M71 0v689h203v-258h210v258h203v-689h-203v282h-210v-282h-203z" />
    <glyph glyph-name="I" unicode="I" horiz-adv-x="345" 
d="M71 689h203v-689h-203v689z" />
    <glyph glyph-name="J" unicode="J" horiz-adv-x="425" 
d="M359 689v-453q0 -129 -52 -188t-181 -59q-66 0 -101 9v146q42 -3 61 -3q42 0 57 21.5t15 62.5v464h201z" />
    <glyph glyph-name="K" unicode="K" horiz-adv-x="715" 
d="M71 0v689h201v-280q24 34 104 137t110 143h239l-253 -282l262 -407h-236l-166 276l-60 -62v-214h-201z" />
    <glyph glyph-name="L" unicode="L" horiz-adv-x="608" 
d="M71 0v689h203v-539h324l-22 -150h-505z" />
    <glyph glyph-name="M" unicode="M" horiz-adv-x="911" 
d="M646 0v225q0 164 6 328h-6q-40 -211 -125 -553h-162q-14 68 -38.5 186t-42.5 208.5t-30 158.5h-7q10 -135 10 -334v-219h-180v689h291q55 -225 89 -444h3q22 138 104 444h282v-689h-194z" />
    <glyph glyph-name="N" unicode="N" horiz-adv-x="768" 
d="M256 0h-185v689h242q20 -43 74 -156t86.5 -184.5t45.5 -109.5h4q-10 90 -10 303v147h184v-689h-230q-8 18 -68 144.5t-96.5 207.5t-51.5 122h-2q7 -76 7 -319v-155z" />
    <glyph glyph-name="O" unicode="O" horiz-adv-x="777" 
d="M394 702q159 0 251 -99.5t92 -257.5q0 -155 -92 -256.5t-261 -101.5q-166 0 -255 101t-89 256t93.5 256.5t260.5 101.5zM388 556q-140 0 -140 -209q0 -99 35 -156.5t107 -57.5q140 0 140 210q0 213 -142 213z" />
    <glyph glyph-name="P" unicode="P" horiz-adv-x="685" 
d="M71 0v689h319q117 0 188.5 -60.5t71.5 -160.5q0 -111 -74 -168.5t-190 -57.5h-116v-242h-199zM270 547v-163h83q97 0 97 81q0 82 -97 82h-83z" />
    <glyph glyph-name="Q" unicode="Q" horiz-adv-x="777" 
d="M394 702q159 0 251 -99.5t92 -257.5q0 -163 -98 -263l143 -96l-103 -121l-196 133q-47 -11 -99 -11q-166 0 -255 101t-89 256t93.5 256.5t260.5 101.5zM388 556q-140 0 -140 -209q0 -99 35 -156.5t107 -57.5q140 0 140 210q0 213 -142 213z" />
    <glyph glyph-name="R" unicode="R" horiz-adv-x="691" 
d="M338 260h-71v-260h-196v689h341q117 0 179 -54t62 -137q0 -65 -30.5 -105.5t-72.5 -57.5q89 -31 89 -178v-29q0 -89 9 -128h-192q-14 38 -14 150v18q0 49 -20.5 70.5t-83.5 21.5zM267 548v-147h94q91 0 91 74q0 73 -91 73h-94z" />
    <glyph glyph-name="S" unicode="S" horiz-adv-x="668" 
d="M26 209h196q17 -86 119 -86q89 0 89 62q0 33 -28 50.5t-111 37.5q-142 34 -193 86t-51 130q0 93 70 153t207 60q139 0 211 -60t79 -150h-195q-10 74 -96 74q-74 0 -74 -54q0 -28 25.5 -43t105.5 -35q148 -37 201.5 -91.5t53.5 -136.5q0 -100 -77.5 -159.5t-224.5 -59.5
q-139 0 -217 59.5t-90 162.5z" />
    <glyph glyph-name="T" unicode="T" horiz-adv-x="617" 
d="M209 0v539h-197v150h594v-150h-195v-539h-202z" />
    <glyph glyph-name="U" unicode="U" horiz-adv-x="744" 
d="M62 689h202v-424q0 -69 30 -100.5t80 -31.5q105 0 105 132v424h202v-403q0 -299 -310 -299q-147 0 -228 69.5t-81 228.5v404z" />
    <glyph glyph-name="V" unicode="V" horiz-adv-x="702" 
d="M467 0h-238l-236 689h215l85 -296q33 -112 58 -233h3q15 84 60 231l87 298h207z" />
    <glyph glyph-name="W" unicode="W" horiz-adv-x="968" 
d="M382 0h-206l-166 689h212q60 -335 71 -487h3q13 67 30 146.5t40.5 185.5t34.5 155h180q7 -33 31.5 -142t41 -190t27.5 -147h3q10 85 44.5 279t35.5 200h194l-175 -689h-206q-12 58 -47 211.5t-49 227.5h-2q-9 -49 -97 -439z" />
    <glyph glyph-name="X" unicode="X" horiz-adv-x="654" 
d="M669 0h-232l-116 224h-2l-118 -224h-216l215 343l-210 346h233l108 -213h2l111 213h212l-209 -325z" />
    <glyph glyph-name="Y" unicode="Y" horiz-adv-x="658" 
d="M429 0h-203v239q0 15 -7 26l-235 424h228q78 -172 125 -288q17 45 126 288h211l-239 -423q-6 -12 -6 -26v-240z" />
    <glyph glyph-name="Z" unicode="Z" horiz-adv-x="642" 
d="M27 0v126l343 413h-327v150h558v-143l-325 -396h348l-22 -150h-575z" />
    <glyph glyph-name="bracketleft" unicode="[" horiz-adv-x="367" 
d="M334 -178h-263v901h263v-128h-119v-642h119v-131z" />
    <glyph glyph-name="backslash" unicode="\" horiz-adv-x="449" 
d="M277 -46l-245 743h139l246 -743h-140z" />
    <glyph glyph-name="bracketright" unicode="]" horiz-adv-x="367" 
d="M34 723h262v-901h-262v129h119v642h-119v130z" />
    <glyph glyph-name="asciicircum" unicode="^" horiz-adv-x="529" 
d="M502 298h-141l-100 241l-94 -241h-140l166 373h142z" />
    <glyph glyph-name="underscore" unicode="_" horiz-adv-x="533" 
d="M0 -75h534v-62h-534v62z" />
    <glyph glyph-name="grave" unicode="`" 
d="M-33 736h210l121 -150h-153z" />
    <glyph glyph-name="a" unicode="a" horiz-adv-x="596" 
d="M540 344v-189q0 -119 6 -155h-180q-5 14 -8 48q-48 -61 -148 -61q-85 0 -133 47t-48 120q0 177 259 177h64v29q0 28 -13 43t-46 15q-31 0 -43.5 -13t-16.5 -41h-180q14 174 245 173q127 -1 184.5 -49t57.5 -144zM352 217v16h-43q-89 0 -89 -63q0 -24 14.5 -39.5
t42.5 -15.5q45 0 60 26t15 76z" />
    <glyph glyph-name="b" unicode="b" horiz-adv-x="635" 
d="M55 168v556h195v-246q49 59 143 59q97 0 153.5 -72t56.5 -193q0 -126 -60.5 -205.5t-166.5 -79.5q-88 0 -128 55q-2 -26 -6 -42h-188q1 54 1 168zM405 267q0 133 -80 133q-46 0 -64 -33t-18 -108q0 -67 17.5 -102t62.5 -35q82 0 82 145z" />
    <glyph glyph-name="c" unicode="c" horiz-adv-x="580" 
d="M371 182h185q-14 -84 -74 -139.5t-184 -55.5q-131 0 -198 75.5t-67 194.5q0 122 72.5 201t199.5 79q70 0 121.5 -21t77.5 -54t38.5 -63.5t13.5 -58.5h-186q-9 66 -64 66q-74 0 -74 -142q0 -148 73 -148q49 0 66 66z" />
    <glyph glyph-name="d" unicode="d" horiz-adv-x="635" 
d="M386 724h195v-566q0 -113 1 -158h-189q-3 17 -6 50q-43 -63 -143 -63t-156 76t-56 196q0 122 62.5 200t170.5 78q45 0 77.5 -12.5t43.5 -31.5v231zM232 264q0 -140 81 -140q27 0 44 11t24.5 32.5t10 42.5t2.5 53q0 74 -14.5 106t-63.5 32q-84 0 -84 -137z" />
    <glyph glyph-name="e" unicode="e" horiz-adv-x="601" 
d="M569 224h-341q0 -45 19 -75.5t59 -30.5q32 0 46 11.5t23 35.5h191q-8 -31 -24 -58t-44.5 -56.5t-79 -46.5t-116.5 -17q-71 0 -125 22.5t-84.5 62t-45.5 86t-15 100.5q0 126 68.5 202.5t205.5 76.5q73 0 126.5 -23t82.5 -63t42.5 -85t13.5 -97q0 -31 -2 -45zM230 325h146
q-2 91 -71 91q-70 0 -75 -91z" />
    <glyph glyph-name="f" unicode="f" horiz-adv-x="363" 
d="M270 0h-195v393h-69v131h69v31q0 179 185 179q58 0 80 -6v-128q-14 2 -25 2q-25 0 -35 -11t-10 -39v-28h81v-131h-81v-393z" />
    <glyph glyph-name="g" unicode="g" horiz-adv-x="632" 
d="M578 374v-296q0 -138 -62 -209t-219 -71q-60 0 -106.5 12.5t-72.5 30.5t-43 43t-23 45t-8 41h192q12 -47 68 -47q49 0 65.5 29t16.5 97v28q-45 -66 -141 -66q-100 0 -156.5 71t-56.5 180q0 122 63 198.5t162 76.5q57 0 89 -19t40 -42q1 10 5 48h189q-2 -80 -2 -150z
M232 271q0 -59 21 -92t58 -33q47 0 64 31.5t17 95.5q0 69 -15 99.5t-63 30.5q-37 0 -59.5 -32t-22.5 -100z" />
    <glyph glyph-name="h" unicode="h" horiz-adv-x="626" 
d="M55 724h195v-255q55 68 148 68q82 0 127.5 -51t45.5 -147v-339h-194v316q0 78 -60 78q-41 0 -54 -27.5t-13 -82.5v-284h-195v724z" />
    <glyph glyph-name="i" unicode="i" horiz-adv-x="306" 
d="M55 0v524h195v-524h-195zM250 589h-195v135h195v-135z" />
    <glyph glyph-name="j" unicode="j" horiz-adv-x="307" 
d="M57 524h194v-487q0 -64 -7.5 -104.5t-28.5 -73t-62 -47t-105 -14.5q-23 0 -55 2v140h12q30 0 41 12.5t11 46.5v525zM252 589h-195v135h195v-135z" />
    <glyph glyph-name="k" unicode="k" horiz-adv-x="606" 
d="M250 724v-400q33 54 137 200h219l-166 -196q9 -20 90 -165t89 -163h-218q-3 7 -49 104t-47 101l-55 -56v-149h-195v724h195z" />
    <glyph glyph-name="l" unicode="l" horiz-adv-x="306" 
d="M250 0h-195v724h195v-724z" />
    <glyph glyph-name="m" unicode="m" horiz-adv-x="914" 
d="M55 0v381q0 99 -1 143h187q4 -27 6 -56q56 69 148 69q96 0 133 -72q64 72 161 72q77 0 123.5 -49.5t46.5 -146.5v-341h-190v324q0 71 -55 71q-32 0 -46 -21.5t-14 -67.5v-306h-192v322q0 72 -53 72q-33 0 -47 -21t-14 -71v-302h-193z" />
    <glyph glyph-name="n" unicode="n" horiz-adv-x="625" 
d="M56 0v388q0 95 -1 136h190q3 -14 6 -58q47 71 149 71q80 0 125.5 -52t45.5 -147v-338h-194v315q0 40 -13.5 59.5t-46.5 19.5t-49.5 -21t-16.5 -74v-299h-195z" />
    <glyph glyph-name="o" unicode="o" horiz-adv-x="623" 
d="M316 537q127 0 201 -76t74 -198q0 -125 -74 -200.5t-207 -75.5q-134 0 -206 77t-72 197q0 123 73.5 199.5t210.5 76.5zM312 405q-81 0 -81 -143q0 -144 82 -144q79 0 79 142q0 79 -19.5 112t-60.5 33z" />
    <glyph glyph-name="p" unicode="p" horiz-adv-x="633" 
d="M249 -192h-194v575q0 104 -1 141h190q5 -32 5 -58q48 71 147 71q87 0 146 -69.5t59 -192.5q0 -138 -66.5 -213t-163.5 -75q-83 0 -122 50v-229zM403 267q0 133 -80 133q-45 0 -62.5 -32.5t-17.5 -107.5q0 -71 17.5 -104.5t58.5 -33.5q44 0 64 34.5t20 110.5z" />
    <glyph glyph-name="q" unicode="q" horiz-adv-x="634" 
d="M387 -192v240q-41 -61 -140 -61q-94 0 -154.5 72t-60.5 199q0 126 64.5 202.5t162.5 76.5q100 0 129 -58q2 30 5 45h187q-1 -39 -1 -148v-568h-192zM231 262q0 -139 81 -139q47 0 63 33t16 106q0 75 -15.5 106.5t-61.5 31.5q-83 0 -83 -138z" />
    <glyph glyph-name="r" unicode="r" horiz-adv-x="430" 
d="M55 0v374q0 104 -1 150h190q5 -27 5 -85q17 42 57.5 69.5t103.5 28.5v-178q-87 4 -123.5 -25.5t-36.5 -118.5v-215h-195z" />
    <glyph glyph-name="s" unicode="s" horiz-adv-x="554" 
d="M26 162h180q12 -52 79 -52q55 0 55 36q0 19 -19 28.5t-73 21.5q-66 15 -108.5 33.5t-63 42t-28 46t-7.5 53.5q0 67 55 116.5t178 49.5q117 0 175 -48.5t62 -113.5h-174q-10 46 -68 46q-48 0 -48 -33q0 -15 19.5 -24.5t82.5 -23.5q118 -27 160.5 -69t42.5 -109
q0 -77 -60.5 -126t-186.5 -49q-120 0 -182.5 49t-70.5 126z" />
    <glyph glyph-name="t" unicode="t" horiz-adv-x="399" 
d="M13 393v131h75v136h193v-136h92v-131h-92v-225q0 -25 10.5 -35t40.5 -10q17 0 28 1v-120q-37 -12 -114 -12q-88 0 -123.5 40t-35.5 119v242h-74z" />
    <glyph glyph-name="u" unicode="u" horiz-adv-x="620" 
d="M564 524v-357q0 -117 1 -167h-191q0 1 -4 55q-47 -68 -145 -68q-84 0 -128 49.5t-44 143.5v344h195v-312q0 -81 57 -81q35 0 50 23t15 80v290h194z" />
    <glyph glyph-name="v" unicode="v" horiz-adv-x="561" 
d="M0 524h210q59 -245 74 -361h4q6 45 18 100.5t33.5 145t27.5 115.5h193l-173 -524h-217z" />
    <glyph glyph-name="w" unicode="w" horiz-adv-x="846" 
d="M7 524h207q48 -282 58 -366h4q31 206 65 366h180q50 -257 61 -365h3q27 183 63 365h191l-150 -524h-211q-40 220 -54 325h-3q-9 -84 -59 -325h-210z" />
    <glyph glyph-name="x" unicode="x" horiz-adv-x="534" 
d="M-13 524h215q9 -20 67 -154h3q39 103 64 154h210l-160 -249l160 -275h-215q-41 93 -66 162h-3q-4 -8 -27 -65.5t-40 -96.5h-208l153 258z" />
    <glyph glyph-name="y" unicode="y" horiz-adv-x="560" 
d="M-3 524h212q68 -266 79 -356h4q22 133 76 356h192l-156 -494q-22 -69 -40 -108t-47.5 -70t-70 -42.5t-102.5 -11.5q-33 0 -81 5v139q3 0 16.5 -1t20.5 -1q35 0 54.5 11.5t29.5 40.5z" />
    <glyph glyph-name="z" unicode="z" horiz-adv-x="520" 
d="M28 0v127q4 5 110.5 124t124.5 138h-224v135h441v-132q-105 -123 -226 -257h248l-24 -135h-450z" />
    <glyph glyph-name="braceleft" unicode="{" horiz-adv-x="394" 
d="M23 203v140q64 0 84.5 20.5t20.5 70.5v101q0 95 53 141.5t138 46.5h42v-120h-15q-35 0 -48 -19t-13 -55v-95q0 -67 -25.5 -107t-89.5 -51q115 -15 115 -162v-95q0 -78 65 -78h11v-119h-43q-82 0 -136 44t-54 142v105q0 47 -20.5 68t-84.5 22z" />
    <glyph glyph-name="bar" unicode="|" horiz-adv-x="308" 
d="M80 781h148v-1042h-148v1042z" />
    <glyph glyph-name="braceright" unicode="}" horiz-adv-x="394" 
d="M365 341v-139q-64 0 -84.5 -21t-20.5 -71v-100q0 -95 -53 -141.5t-138 -46.5h-42v120h15q35 0 47.5 18.5t12.5 55.5v95q0 66 26 106.5t90 51.5q-116 14 -116 162v95q0 77 -64 77h-11v120h43q82 0 136 -44t54 -142v-105q0 -48 20.5 -69t84.5 -22z" />
    <glyph glyph-name="asciitilde" unicode="~" horiz-adv-x="685" 
d="M197 180h-121v43q-1 89 38 126t98 37q43 0 93.5 -20.5t90.5 -41t58 -20.5q17 0 26 12t9 44v18h120v-33q0 -175 -132 -175q-54 0 -140 40.5t-106 40.5q-34 0 -34 -51v-20z" />
    <glyph glyph-name="uni00A0" unicode="&#xa0;" horiz-adv-x="223" 
 />
    <glyph glyph-name="exclamdown" unicode="&#xa1;" horiz-adv-x="328" 
d="M73 262h155l26 -309v-117h-206v118zM57 524h191v-190h-191v190z" />
    <glyph glyph-name="cent" unicode="&#xa2;" horiz-adv-x="592" 
d="M384 250h181q-10 -67 -56 -115.5t-124 -64.5v-79h-132v77q-100 17 -154.5 87.5t-54.5 170.5t54 170t155 87v60h132v-61q92 -17 134.5 -70t45.5 -112h-181q-6 29 -21 45.5t-48 16.5q-76 0 -76 -132q0 -138 76 -138q54 0 69 58z" />
    <glyph glyph-name="sterling" unicode="&#xa3;" horiz-adv-x="580" 
d="M547 0h-512v131q40 17 53.5 48t13.5 98h-78v112h69q-2 34 -2 56q0 102 56.5 164t173.5 62q63 0 108 -18t68.5 -47.5t34 -60t12.5 -63.5h-168q-4 26 -14 40.5t-35 14.5q-48 0 -48 -72q0 -26 4 -76h132v-112h-130q-5 -85 -37 -131h319z" />
    <glyph glyph-name="currency" unicode="&#xa4;" horiz-adv-x="583" 
d="M294 558q60 0 108 -27l71 71l96 -101l-76 -76q16 -42 16 -89q0 -50 -17 -95l77 -76l-96 -101l-71 72q-49 -27 -111 -27q-58 0 -109 27l-70 -72l-97 101l75 75q-18 42 -18 93q0 50 18 92l-75 76l97 101l72 -72q48 28 110 28zM292 430q-75 0 -75 -96q0 -98 75 -98
q71 0 71 99q0 95 -71 95z" />
    <glyph glyph-name="yen" unicode="&#xa5;" horiz-adv-x="544" 
d="M486 127h-126v-127h-191v127h-123v101h123v50h-123v102h96l-163 279h213q72 -182 81 -215h3q11 42 81 215h201l-170 -279h98v-102h-126v-50h126v-101z" />
    <glyph glyph-name="brokenbar" unicode="&#xa6;" horiz-adv-x="269" 
d="M68 179h141v-358h-141v358zM68 689h141v-356h-141v356z" />
    <glyph glyph-name="section" unicode="&#xa7;" horiz-adv-x="616" 
d="M542 520h-163q-13 52 -74 52q-57 0 -57 -41q0 -20 19 -30.5t98 -38.5q111 -39 159.5 -86t48.5 -121q0 -91 -77 -145q42 -37 42 -106q0 -88 -64.5 -135t-175.5 -47t-177 46t-75 130h175q11 -55 79 -55q64 0 64 44q0 22 -19.5 35.5t-86.5 34.5q-124 39 -172.5 84.5
t-48.5 119.5q0 90 86 144q-41 38 -41 105q0 81 59 131.5t165 50.5q119 0 175 -51t61 -121zM192 295q0 -22 15.5 -38t63.5 -34q92 -33 124 -48q20 18 20 49q0 28 -20 44.5t-73 39.5q-67 25 -100 39q-30 -19 -30 -52z" />
    <glyph glyph-name="dieresis" unicode="&#xa8;" 
d="M167 588h-149v140h149v-140zM382 588h-149v140h149v-140z" />
    <glyph glyph-name="copyright" unicode="&#xa9;" horiz-adv-x="784" 
d="M452 294h114q-29 -138 -172 -138q-84 0 -133 53.5t-49 136.5q0 81 47.5 136.5t134.5 56.5q44 0 78 -14t53 -36t29 -44.5t12 -43.5h-113q-13 48 -59 48q-28 0 -45.5 -25t-17.5 -71q0 -105 65 -105q41 0 56 46zM390 700q147 0 246.5 -99.5t99.5 -256.5t-99.5 -256.5
t-246.5 -99.5q-151 0 -250 97.5t-99 258.5q0 154 100 255t249 101zM389 629q-119 0 -194.5 -77t-75.5 -208q0 -123 76.5 -203t193.5 -80q118 0 193.5 74t75.5 208q0 128 -76.5 207t-192.5 79z" />
    <glyph glyph-name="ordfeminine" unicode="&#xaa;" horiz-adv-x="405" 
d="M366 480v-114q0 -73 2 -104l-130 -1q-1 6 -4 35q-32 -41 -98 -41q-52 0 -84.5 29t-32.5 78q0 112 166 112h44v13q0 37 -35 37q-33 0 -37 -34h-124q12 112 166 112q167 0 167 -122zM232 397v11h-27q-49 0 -49 -32q0 -13 8.5 -21.5t23.5 -8.5q44 0 44 51z" />
    <glyph glyph-name="guillemotleft" unicode="&#xab;" horiz-adv-x="614" 
d="M333 462l-144 -200l144 -199h-145l-146 199l146 200h145zM572 462l-143 -200l143 -199h-144l-145 199l145 200h144z" />
    <glyph glyph-name="logicalnot" unicode="&#xac;" horiz-adv-x="684" 
d="M66 413h547v-353h-143v214h-404v139z" />
    <glyph glyph-name="uni00AD" unicode="&#xad;" horiz-adv-x="385" 
d="M45 336h295v-152h-295v152z" />
    <glyph glyph-name="registered" unicode="&#xae;" horiz-adv-x="339" 
d="M160 463h-55v152h84q64 0 64 -43q0 -28 -27 -36q22 -8 22 -39q0 -26 2 -34h-55q-3 7 -3 32q0 21 -21 21h-11v-53zM163 579v-27h15q17 0 17 14q0 13 -19 13h-13zM174 702q74 0 119 -48t45 -117q0 -76 -46 -121.5t-118 -45.5q-68 0 -114.5 47.5t-46.5 119.5q0 71 45 118
t116 47zM174 662q-53 0 -85 -35t-32 -91q0 -55 33.5 -90t83.5 -35q58 0 89 33t31 92q0 56 -33 91t-87 35z" />
    <glyph glyph-name="macron" unicode="&#xaf;" 
d="M39 715h321v-122h-321v122z" />
    <glyph glyph-name="degree" unicode="&#xb0;" horiz-adv-x="360" 
d="M179 680q72 0 112.5 -41t40.5 -103q0 -68 -43.5 -108.5t-111.5 -40.5t-109 40.5t-41 105.5q0 64 42 105.5t110 41.5zM179 607q-30 0 -46 -20.5t-16 -52.5t16.5 -52t45.5 -20q30 0 46 20t16 52q0 31 -15.5 52t-46.5 21z" />
    <glyph glyph-name="plusminus" unicode="&#xb1;" horiz-adv-x="680" 
d="M273 680h136v-180h204v-132h-204v-180h-136v180h-207v132h207v180zM614 0h-547v133h547v-133z" />
    <glyph glyph-name="two.sups" unicode="&#xb2;" horiz-adv-x="401" 
d="M370 429h-337v11q0 63 27 108.5t92 83.5q6 4 15.5 9.5t14.5 8t12 6.5t10 6.5t7.5 5.5t6.5 5.5t5 5.5t4 6t1.5 6.5t0.5 7.5q0 35 -35 35q-33 0 -40 -45h-128q4 61 48.5 102t127.5 41q91 0 131.5 -39t40.5 -89q0 -45 -21 -71.5t-81 -55.5q-51 -24 -64 -46h180z" />
    <glyph glyph-name="three.sups" unicode="&#xb3;" horiz-adv-x="409" 
d="M156 589v93h31q45 0 45 25q0 30 -39 30q-37 0 -44 -34h-123q2 21 10 40.5t26 41t54 34.5t86 13q81 0 124.5 -32t43.5 -84q0 -53 -56 -75q25 -6 49 -28.5t24 -64.5q0 -22 -8 -42t-27 -39t-57 -30.5t-91 -11.5q-55 0 -94.5 14.5t-57.5 37.5t-25.5 42.5t-8.5 39.5h132
q8 -40 50 -40q19 0 30 9.5t11 25.5q0 35 -50 35h-35z" />
    <glyph glyph-name="acute" unicode="&#xb4;" 
d="M226 736h208l-176 -150h-152z" />
    <glyph glyph-name="uni00B5" unicode="&#xb5;" horiz-adv-x="616" 
d="M264 -11q-25 0 -39 8q0 -5 8 -189h-181v716h195v-316q0 -75 56 -75q63 0 63 92v299h195v-362q0 -143 2 -162h-187q-5 14 -7 50q-34 -61 -105 -61z" />
    <glyph glyph-name="paragraph" unicode="&#xb6;" horiz-adv-x="651" 
d="M547 -153h-122v275h-112q-126 -1 -198.5 68.5t-72.5 197.5q0 122 72 193.5t184 71.5h127q2 41 6 59h118q-2 -50 -2 -89v-776zM387 247h37v289h-39q-40 0 -54.5 -36.5t-15.5 -99.5q0 -35 1.5 -55.5t8 -46.5t22 -38.5t40.5 -12.5z" />
    <glyph glyph-name="periodcentered" unicode="&#xb7;" horiz-adv-x="277" 
d="M236 200h-195v209h195v-209z" />
    <glyph glyph-name="cedilla" unicode="&#xb8;" 
d="M173 8l109 -6l-43 -42q88 -21 88 -95q0 -59 -45 -83t-104 -24q-58 0 -83 9v83q30 -5 49 -5q34 0 34 22q0 26 -70 29l-1 43z" />
    <glyph glyph-name="one.sups" unicode="&#xb9;" horiz-adv-x="286" 
d="M234 429h-147v253q-25 -3 -63 1v97q71 5 114 50h96v-401z" />
    <glyph glyph-name="ordmasculine" unicode="&#xba;" horiz-adv-x="427" 
d="M215 602q89 0 138.5 -48t48.5 -125q-1 -82 -52 -127t-139 -45q-85 0 -136 47t-51 123q0 79 50.5 127t140.5 48zM213 511q-48 0 -48 -82q0 -83 49 -83t49 83q0 82 -50 82z" />
    <glyph glyph-name="guillemotright" unicode="&#xbb;" horiz-adv-x="614" 
d="M281 63l145 200l-144 199h144l146 -199l-146 -200h-145zM42 63l143 200l-143 199h145l145 -199l-145 -200h-145z" />
    <glyph glyph-name="onequarter" unicode="&#xbc;" horiz-adv-x="859" 
d="M241 0h-109l409 659h108zM240 262h-147v253q-25 -3 -63 1v97q71 5 114 50h96v-401zM775 0h-132v85h-190v100l145 212h177v-215h57l-10 -97h-47v-85zM571 182h72v31q0 49 3 88q-17 -30 -75 -119z" />
    <glyph glyph-name="onehalf" unicode="&#xbd;" horiz-adv-x="879" 
d="M236 0h-109l409 659h108zM242 262h-147v253q-25 -3 -63 1v97q71 5 114 50h96v-401zM836 -5h-337v11q0 63 27 108.5t92 83.5q6 4 15.5 9.5t14.5 8t12 6.5t10 6.5t7.5 5.5t6.5 5.5t5 5.5t4 6t1.5 6.5t0.5 7.5q0 35 -35 35q-33 0 -40 -45h-128q4 61 48.5 102t127.5 41
q91 0 131.5 -39t40.5 -89q0 -45 -21 -71.5t-81 -55.5q-51 -24 -64 -46h180z" />
    <glyph glyph-name="threequarters" unicode="&#xbe;" horiz-adv-x="962" 
d="M357 0h-109l409 659h108zM880 0h-132v85h-190v100l145 212h177v-215h57l-10 -97h-47v-85zM676 182h72v31q0 49 3 88q-17 -30 -75 -119zM168 422v93h31q45 0 45 25q0 30 -39 30q-37 0 -44 -34h-123q2 21 10 40.5t26 41t54 34.5t86 13q81 0 124.5 -32t43.5 -84
q0 -53 -56 -75q25 -6 49 -28.5t24 -64.5q0 -22 -8 -42t-27 -39t-57 -30.5t-91 -11.5q-55 0 -94.5 14.5t-57.5 37.5t-25.5 42.5t-8.5 39.5h132q8 -40 50 -40q19 0 30 9.5t11 25.5q0 35 -50 35h-35z" />
    <glyph glyph-name="questiondown" unicode="&#xbf;" horiz-adv-x="518" 
d="M18 11q0 49 22 89t71 84q55 47 55 94q0 13 -1 14h192q4 -12 4 -36q0 -45 -23 -81.5t-77 -85.5q-50 -46 -50 -83q0 -23 13.5 -39t39.5 -16q65 0 69 94l164 -1q-2 -217 -245 -217q-122 1 -178 53.5t-56 130.5zM165 524h195v-181h-195v181z" />
    <glyph glyph-name="Agrave" unicode="&#xc0;" horiz-adv-x="715" 
d="M457 134h-216l-40 -134h-196l218 689h261l226 -689h-211zM275 284h147q-55 184 -74 271h-3q-15 -69 -70 -271zM95 878h225l124 -136h-164z" />
    <glyph glyph-name="Aacute" unicode="&#xc1;" horiz-adv-x="715" 
d="M457 134h-216l-40 -134h-196l218 689h261l226 -689h-211zM275 284h147q-55 184 -74 271h-3q-15 -69 -70 -271zM395 878h223l-192 -136h-165z" />
    <glyph glyph-name="Acircumflex" unicode="&#xc2;" horiz-adv-x="715" 
d="M457 134h-216l-40 -134h-196l218 689h261l226 -689h-211zM275 284h147q-55 184 -74 271h-3q-15 -69 -70 -271zM261 877h188l118 -137h-160l-53 63l-52 -63h-163z" />
    <glyph glyph-name="Atilde" unicode="&#xc3;" horiz-adv-x="715" 
d="M457 134h-216l-40 -134h-196l218 689h261l226 -689h-211zM275 284h147q-55 184 -74 271h-3q-15 -69 -70 -271zM276 746h-108v34q0 67 27.5 91.5t75.5 24.5q37 0 86.5 -20t61.5 -20q21 0 21 28v10h106v-23q0 -76 -28.5 -103.5t-79.5 -27.5q-31 0 -81.5 19t-61.5 19
q-19 0 -19 -19v-13z" />
    <glyph glyph-name="Adieresis" unicode="&#xc4;" horiz-adv-x="715" 
d="M457 134h-216l-40 -134h-196l218 689h261l226 -689h-211zM275 284h147q-55 184 -74 271h-3q-15 -69 -70 -271zM323 749h-149v141h149v-141zM537 749h-148v141h148v-141z" />
    <glyph glyph-name="Aring" unicode="&#xc5;" horiz-adv-x="715" 
d="M457 134h-216l-40 -134h-196l218 689h261l226 -689h-211zM275 284h147q-55 184 -74 271h-3q-15 -69 -70 -271zM354 723q-63 0 -98 28t-35 75t34.5 76t98.5 29q63 0 97 -28t34 -76q0 -49 -35 -76.5t-96 -27.5zM352 792q44 0 44 34q0 37 -43 37t-43 -36q0 -15 10 -25
t32 -10z" />
    <glyph glyph-name="AE" unicode="&#xc6;" horiz-adv-x="1020" 
d="M346 689h630v-150h-325v-110h312v-150h-312v-130h346l-22 -149h-517v163h-199l-86 -163h-207zM336 312h122v233h-4z" />
    <glyph glyph-name="Ccedilla" unicode="&#xc7;" horiz-adv-x="727" 
d="M494 227h201q-17 -95 -79.5 -157t-167.5 -78l-33 -32q88 -21 88 -95q0 -59 -45 -83t-104 -24q-58 0 -83 9v83q30 -5 49 -5q34 0 34 22q0 26 -70 29l-1 43l48 50q-142 14 -216.5 109t-74.5 241q0 75 21 139.5t62 115t108.5 79.5t153.5 29q141 0 218.5 -69t89.5 -168h-200
q-19 95 -113 95q-132 0 -132 -214q0 -217 134 -217q89 0 112 98z" />
    <glyph glyph-name="Egrave" unicode="&#xc8;" horiz-adv-x="638" 
d="M579 428v-149h-314v-129h351l-23 -150h-522v689h521v-150h-327v-111h314zM91 878h225l124 -136h-164z" />
    <glyph glyph-name="Eacute" unicode="&#xc9;" horiz-adv-x="638" 
d="M579 428v-149h-314v-129h351l-23 -150h-522v689h521v-150h-327v-111h314zM374 878h223l-192 -136h-165z" />
    <glyph glyph-name="Ecircumflex" unicode="&#xca;" horiz-adv-x="638" 
d="M579 428v-149h-314v-129h351l-23 -150h-522v689h521v-150h-327v-111h314zM242 880h188l118 -137h-160l-53 63l-52 -63h-163z" />
    <glyph glyph-name="Edieresis" unicode="&#xcb;" horiz-adv-x="638" 
d="M579 428v-149h-314v-129h351l-23 -150h-522v689h521v-150h-327v-111h314zM301 749h-149v141h149v-141zM515 749h-148v141h148v-141z" />
    <glyph glyph-name="Igrave" unicode="&#xcc;" horiz-adv-x="345" 
d="M71 689h203v-689h-203v689zM-91 878h225l124 -136h-164z" />
    <glyph glyph-name="Iacute" unicode="&#xcd;" horiz-adv-x="345" 
d="M71 689h203v-689h-203v689zM220 878h223l-192 -136h-165z" />
    <glyph glyph-name="Icircumflex" unicode="&#xce;" horiz-adv-x="345" 
d="M71 689h203v-689h-203v689zM79 877h188l118 -137h-160l-53 63l-52 -63h-163z" />
    <glyph glyph-name="Idieresis" unicode="&#xcf;" horiz-adv-x="345" 
d="M71 689h203v-689h-203v689zM138 749h-149v141h149v-141zM352 749h-148v141h148v-141z" />
    <glyph glyph-name="Eth" unicode="&#xd0;" horiz-adv-x="767" 
d="M18 410h66v279h296q161 0 253.5 -93t92.5 -244q0 -155 -92.5 -253.5t-256.5 -98.5h-293v296h-66v114zM286 543v-133h117v-114h-117v-150h78q154 0 154 206q0 191 -152 191h-80z" />
    <glyph glyph-name="Ntilde" unicode="&#xd1;" horiz-adv-x="768" 
d="M256 0h-185v689h242q20 -43 74 -156t86.5 -184.5t45.5 -109.5h4q-10 90 -10 303v147h184v-689h-230q-8 18 -68 144.5t-96.5 207.5t-51.5 122h-2q7 -76 7 -319v-155zM306 747h-108v34q0 67 27.5 91.5t75.5 24.5q37 0 86.5 -20t61.5 -20q21 0 21 28v10h106v-23
q0 -76 -28.5 -103.5t-79.5 -27.5q-31 0 -81.5 19t-61.5 19q-19 0 -19 -19v-13z" />
    <glyph glyph-name="Ograve" unicode="&#xd2;" horiz-adv-x="777" 
d="M394 702q159 0 251 -99.5t92 -257.5q0 -155 -92 -256.5t-261 -101.5q-166 0 -255 101t-89 256t93.5 256.5t260.5 101.5zM388 556q-140 0 -140 -209q0 -99 35 -156.5t107 -57.5q140 0 140 210q0 213 -142 213zM133 891h225l124 -136h-164z" />
    <glyph glyph-name="Oacute" unicode="&#xd3;" horiz-adv-x="777" 
d="M394 702q159 0 251 -99.5t92 -257.5q0 -155 -92 -256.5t-261 -101.5q-166 0 -255 101t-89 256t93.5 256.5t260.5 101.5zM388 556q-140 0 -140 -209q0 -99 35 -156.5t107 -57.5q140 0 140 210q0 213 -142 213zM430 887h223l-192 -136h-165z" />
    <glyph glyph-name="Ocircumflex" unicode="&#xd4;" horiz-adv-x="777" 
d="M394 702q159 0 251 -99.5t92 -257.5q0 -155 -92 -256.5t-261 -101.5q-166 0 -255 101t-89 256t93.5 256.5t260.5 101.5zM388 556q-140 0 -140 -209q0 -99 35 -156.5t107 -57.5q140 0 140 210q0 213 -142 213zM296 883h188l118 -137h-160l-53 63l-52 -63h-163z" />
    <glyph glyph-name="Otilde" unicode="&#xd5;" horiz-adv-x="777" 
d="M394 702q159 0 251 -99.5t92 -257.5q0 -155 -92 -256.5t-261 -101.5q-166 0 -255 101t-89 256t93.5 256.5t260.5 101.5zM388 556q-140 0 -140 -209q0 -99 35 -156.5t107 -57.5q140 0 140 210q0 213 -142 213zM308 751h-108v34q0 67 27.5 91.5t75.5 24.5q37 0 86.5 -20
t61.5 -20q21 0 21 28v10h106v-23q0 -76 -28.5 -103.5t-79.5 -27.5q-31 0 -81.5 19t-61.5 19q-19 0 -19 -19v-13z" />
    <glyph glyph-name="Odieresis" unicode="&#xd6;" horiz-adv-x="777" 
d="M394 702q159 0 251 -99.5t92 -257.5q0 -155 -92 -256.5t-261 -101.5q-166 0 -255 101t-89 256t93.5 256.5t260.5 101.5zM388 556q-140 0 -140 -209q0 -99 35 -156.5t107 -57.5q140 0 140 210q0 213 -142 213zM355 753h-149v141h149v-141zM569 753h-148v141h148v-141z" />
    <glyph glyph-name="multiply" unicode="&#xd7;" horiz-adv-x="679" 
d="M611 93l-89 -93l-182 188l-182 -188l-89 93l183 187l-183 189l87 90l184 -188l184 188l87 -90l-183 -189z" />
    <glyph glyph-name="Oslash" unicode="&#xd8;" horiz-adv-x="777" 
d="M394 702q101 0 175 -41l23 31h100l-57 -78q105 -99 105 -270q0 -74 -22 -137.5t-64.5 -113t-112 -78t-157.5 -28.5q-103 0 -178 42l-24 -32h-101l59 81q-100 99 -100 265q0 156 93.5 257.5t260.5 101.5zM240 346q0 -58 17 -109l218 295q-35 27 -87 27q-71 0 -109.5 -57.5
t-38.5 -155.5zM390 130q77 0 112.5 59.5t35.5 153.5q0 70 -16 117l-218 -297q35 -33 86 -33z" />
    <glyph glyph-name="Ugrave" unicode="&#xd9;" horiz-adv-x="744" 
d="M62 689h202v-424q0 -69 30 -100.5t80 -31.5q105 0 105 132v424h202v-403q0 -299 -310 -299q-147 0 -228 69.5t-81 228.5v404zM119 878h225l124 -136h-164z" />
    <glyph glyph-name="Uacute" unicode="&#xda;" horiz-adv-x="744" 
d="M62 689h202v-424q0 -69 30 -100.5t80 -31.5q105 0 105 132v424h202v-403q0 -299 -310 -299q-147 0 -228 69.5t-81 228.5v404zM410 878h223l-192 -136h-165z" />
    <glyph glyph-name="Ucircumflex" unicode="&#xdb;" horiz-adv-x="744" 
d="M62 689h202v-424q0 -69 30 -100.5t80 -31.5q105 0 105 132v424h202v-403q0 -299 -310 -299q-147 0 -228 69.5t-81 228.5v404zM279 877h188l118 -137h-160l-53 63l-52 -63h-163z" />
    <glyph glyph-name="Udieresis" unicode="&#xdc;" horiz-adv-x="744" 
d="M62 689h202v-424q0 -69 30 -100.5t80 -31.5q105 0 105 132v424h202v-403q0 -299 -310 -299q-147 0 -228 69.5t-81 228.5v404zM338 749h-149v141h149v-141zM552 749h-148v141h148v-141z" />
    <glyph glyph-name="Yacute" unicode="&#xdd;" horiz-adv-x="658" 
d="M429 0h-203v239q0 15 -7 26l-235 424h228q78 -172 125 -288q17 45 126 288h211l-239 -423q-6 -12 -6 -26v-240zM375 873h223l-192 -136h-165z" />
    <glyph glyph-name="Thorn" unicode="&#xde;" horiz-adv-x="687" 
d="M71 0v689h200v-122h117q123 0 191.5 -59t68.5 -156q0 -104 -72.5 -165t-192.5 -61h-112v-126h-200zM271 431v-169h84q93 0 93 86q0 83 -93 83h-84z" />
    <glyph glyph-name="germandbls" unicode="&#xdf;" horiz-adv-x="683" 
d="M341 737q78 0 135.5 -18.5t88.5 -50t45 -67t15 -75.5q0 -20 -2 -30l-133 -87v-2l45 -34q65 -48 92 -92t27 -98q0 -88 -58 -140.5t-164 -52.5q-102 0 -153 36v144q59 -51 133 -51q58 0 58 42q0 19 -11.5 35t-44.5 40l-65 47q-57 39 -58.5 93t55.5 92l88 60q0 78 -92 78
q-93 0 -93 -100v-506h-195v511q0 226 287 226z" />
    <glyph glyph-name="agrave" unicode="&#xe0;" horiz-adv-x="596" 
d="M540 344v-189q0 -119 6 -155h-180q-5 14 -8 48q-48 -61 -148 -61q-85 0 -133 47t-48 120q0 177 259 177h64v29q0 28 -13 43t-46 15q-31 0 -43.5 -13t-16.5 -41h-180q14 174 245 173q127 -1 184.5 -49t57.5 -144zM352 217v16h-43q-89 0 -89 -63q0 -24 14.5 -39.5
t42.5 -15.5q45 0 60 26t15 76zM67 739h210l121 -150h-153z" />
    <glyph glyph-name="aacute" unicode="&#xe1;" horiz-adv-x="596" 
d="M540 344v-189q0 -119 6 -155h-180q-5 14 -8 48q-48 -61 -148 -61q-85 0 -133 47t-48 120q0 177 259 177h64v29q0 28 -13 43t-46 15q-31 0 -43.5 -13t-16.5 -41h-180q14 174 245 173q127 -1 184.5 -49t57.5 -144zM352 217v16h-43q-89 0 -89 -63q0 -24 14.5 -39.5
t42.5 -15.5q45 0 60 26t15 76zM326 738h208l-176 -150h-152z" />
    <glyph glyph-name="acircumflex" unicode="&#xe2;" horiz-adv-x="596" 
d="M540 344v-189q0 -119 6 -155h-180q-5 14 -8 48q-48 -61 -148 -61q-85 0 -133 47t-48 120q0 177 259 177h64v29q0 28 -13 43t-46 15q-31 0 -43.5 -13t-16.5 -41h-180q14 174 245 173q127 -1 184.5 -49t57.5 -144zM352 217v16h-43q-89 0 -89 -63q0 -24 14.5 -39.5
t42.5 -15.5q45 0 60 26t15 76zM220 726h162l116 -147h-155l-44 63l-41 -63h-157z" />
    <glyph glyph-name="atilde" unicode="&#xe3;" horiz-adv-x="596" 
d="M540 344v-189q0 -119 6 -155h-180q-5 14 -8 48q-48 -61 -148 -61q-85 0 -133 47t-48 120q0 177 259 177h64v29q0 28 -13 43t-46 15q-31 0 -43.5 -13t-16.5 -41h-180q14 174 245 173q127 -1 184.5 -49t57.5 -144zM352 217v16h-43q-89 0 -89 -63q0 -24 14.5 -39.5
t42.5 -15.5q45 0 60 26t15 76zM225 585h-108v33q0 67 27 92.5t74 25.5q34 0 80 -18.5t58 -18.5q20 0 20 27v11h106v-25q0 -76 -28.5 -103.5t-75.5 -27.5q-34 0 -78.5 18t-55.5 18q-19 0 -19 -19v-13z" />
    <glyph glyph-name="adieresis" unicode="&#xe4;" horiz-adv-x="596" 
d="M540 344v-189q0 -119 6 -155h-180q-5 14 -8 48q-48 -61 -148 -61q-85 0 -133 47t-48 120q0 177 259 177h64v29q0 28 -13 43t-46 15q-31 0 -43.5 -13t-16.5 -41h-180q14 174 245 173q127 -1 184.5 -49t57.5 -144zM352 217v16h-43q-89 0 -89 -63q0 -24 14.5 -39.5
t42.5 -15.5q45 0 60 26t15 76zM267 591h-149v140h149v-140zM482 591h-149v140h149v-140z" />
    <glyph glyph-name="aring" unicode="&#xe5;" horiz-adv-x="596" 
d="M540 344v-189q0 -119 6 -155h-180q-5 14 -8 48q-48 -61 -148 -61q-85 0 -133 47t-48 120q0 177 259 177h64v29q0 28 -13 43t-46 15q-31 0 -43.5 -13t-16.5 -41h-180q14 174 245 173q127 -1 184.5 -49t57.5 -144zM352 217v16h-43q-89 0 -89 -63q0 -24 14.5 -39.5
t42.5 -15.5q45 0 60 26t15 76zM301 573q-63 0 -98 28t-35 75t34.5 76t98.5 29q63 0 97 -28t34 -76q0 -49 -35 -76.5t-96 -27.5zM299 642q44 0 44 34q0 37 -43 37t-43 -36q0 -15 10.5 -25t31.5 -10z" />
    <glyph glyph-name="ae" unicode="&#xe6;" horiz-adv-x="910" 
d="M686 166h191q-7 -32 -22.5 -60t-44.5 -56t-79 -44.5t-115 -16.5q-134 0 -199 69q-70 -69 -192 -69q-92 0 -144 46.5t-52 118.5q0 168 281 175q3 1 22.5 1t23.5 1v27q0 31 -11.5 47t-40.5 16q-51 0 -58 -53h-191q5 79 64.5 123.5t172.5 44.5q126 0 175 -51q62 51 162 51
q66 0 115.5 -21.5t78.5 -58t43 -81t14 -96.5v-56h-345q-2 -46 18.5 -77.5t60.5 -31.5q56 0 72 52zM356 212v17q-2 -1 -19 -1t-19 -1q-49 -2 -73.5 -15t-24.5 -44q0 -21 14.5 -35t43.5 -14q78 0 78 93zM536 327h151q-2 41 -17.5 63t-56.5 23q-37 1 -56 -22.5t-21 -63.5z" />
    <glyph glyph-name="ccedilla" unicode="&#xe7;" horiz-adv-x="580" 
d="M371 182h185q-27 -159 -184 -188l-34 -34q88 -21 88 -95q0 -59 -45 -83t-104 -24q-58 0 -83 9v83q30 -5 49 -5q34 0 34 22q0 26 -70 29l-1 43l48 50q-110 13 -165.5 86t-55.5 182q0 122 72.5 201t199.5 79q70 0 121.5 -21t77.5 -54t38.5 -63.5t13.5 -58.5h-186
q-9 66 -64 66q-74 0 -74 -142q0 -148 73 -148q49 0 66 66z" />
    <glyph glyph-name="egrave" unicode="&#xe8;" horiz-adv-x="601" 
d="M569 224h-341q0 -45 19 -75.5t59 -30.5q32 0 46 11.5t23 35.5h191q-8 -31 -24 -58t-44.5 -56.5t-79 -46.5t-116.5 -17q-71 0 -125 22.5t-84.5 62t-45.5 86t-15 100.5q0 126 68.5 202.5t205.5 76.5q73 0 126.5 -23t82.5 -63t42.5 -85t13.5 -97q0 -31 -2 -45zM230 325h146
q-2 91 -71 91q-70 0 -75 -91zM67 736h210l121 -150h-153z" />
    <glyph glyph-name="eacute" unicode="&#xe9;" horiz-adv-x="601" 
d="M569 224h-341q0 -45 19 -75.5t59 -30.5q32 0 46 11.5t23 35.5h191q-8 -31 -24 -58t-44.5 -56.5t-79 -46.5t-116.5 -17q-71 0 -125 22.5t-84.5 62t-45.5 86t-15 100.5q0 126 68.5 202.5t205.5 76.5q73 0 126.5 -23t82.5 -63t42.5 -85t13.5 -97q0 -31 -2 -45zM230 325h146
q-2 91 -71 91q-70 0 -75 -91zM326 736h208l-176 -150h-152z" />
    <glyph glyph-name="ecircumflex" unicode="&#xea;" horiz-adv-x="601" 
d="M569 224h-341q0 -45 19 -75.5t59 -30.5q32 0 46 11.5t23 35.5h191q-8 -31 -24 -58t-44.5 -56.5t-79 -46.5t-116.5 -17q-71 0 -125 22.5t-84.5 62t-45.5 86t-15 100.5q0 126 68.5 202.5t205.5 76.5q73 0 126.5 -23t82.5 -63t42.5 -85t13.5 -97q0 -31 -2 -45zM230 325h146
q-2 91 -71 91q-70 0 -75 -91zM227 725h162l116 -147h-155l-44 63l-41 -63h-157z" />
    <glyph glyph-name="edieresis" unicode="&#xeb;" horiz-adv-x="601" 
d="M569 224h-341q0 -45 19 -75.5t59 -30.5q32 0 46 11.5t23 35.5h191q-8 -31 -24 -58t-44.5 -56.5t-79 -46.5t-116.5 -17q-71 0 -125 22.5t-84.5 62t-45.5 86t-15 100.5q0 126 68.5 202.5t205.5 76.5q73 0 126.5 -23t82.5 -63t42.5 -85t13.5 -97q0 -31 -2 -45zM230 325h146
q-2 91 -71 91q-70 0 -75 -91zM274 588h-149v140h149v-140zM489 588h-149v140h149v-140z" />
    <glyph glyph-name="igrave" unicode="&#xec;" horiz-adv-x="306" 
d="M55 0v524h195v-524h-195zM-99 736h210l121 -150h-153z" />
    <glyph glyph-name="iacute" unicode="&#xed;" horiz-adv-x="306" 
d="M55 0v524h195v-524h-195zM194 736h208l-176 -150h-152z" />
    <glyph glyph-name="icircumflex" unicode="&#xee;" horiz-adv-x="306" 
d="M55 0v524h195v-524h-195zM73 725h162l116 -147h-155l-44 63l-41 -63h-157z" />
    <glyph glyph-name="idieresis" unicode="&#xef;" horiz-adv-x="306" 
d="M55 0v524h195v-524h-195zM120 588h-149v140h149v-140zM335 588h-149v140h149v-140z" />
    <glyph glyph-name="eth" unicode="&#xf0;" horiz-adv-x="606" 
d="M90 613v121q138 -5 242 -53l114 69l36 -64l-76 -47q170 -119 170 -340q0 -160 -78.5 -236t-201.5 -76q-125 0 -196.5 72t-71.5 187q0 110 74.5 174.5t194.5 65.5q20 0 42 -4q-22 43 -70 74l-126 -77l-37 65l81 49q-46 14 -97 20zM309 360q-39 0 -61.5 -30.5t-22.5 -90.5
q0 -123 78 -123q76 0 76 144q0 50 -14 75t-56 25z" />
    <glyph glyph-name="ntilde" unicode="&#xf1;" horiz-adv-x="625" 
d="M56 0v388q0 95 -1 136h190q3 -14 6 -58q47 71 149 71q80 0 125.5 -52t45.5 -147v-338h-194v315q0 40 -13.5 59.5t-46.5 19.5t-49.5 -21t-16.5 -74v-299h-195zM237 592h-108v33q0 67 27 92.5t74 25.5q34 0 80 -18.5t58 -18.5q20 0 20 27v11h106v-25q0 -76 -28.5 -103.5
t-75.5 -27.5q-34 0 -78.5 18t-55.5 18q-19 0 -19 -19v-13z" />
    <glyph glyph-name="ograve" unicode="&#xf2;" horiz-adv-x="623" 
d="M316 537q127 0 201 -76t74 -198q0 -125 -74 -200.5t-207 -75.5q-134 0 -206 77t-72 197q0 123 73.5 199.5t210.5 76.5zM312 405q-81 0 -81 -143q0 -144 82 -144q79 0 79 142q0 79 -19.5 112t-60.5 33zM78 738h210l121 -150h-153z" />
    <glyph glyph-name="oacute" unicode="&#xf3;" horiz-adv-x="623" 
d="M316 537q127 0 201 -76t74 -198q0 -125 -74 -200.5t-207 -75.5q-134 0 -206 77t-72 197q0 123 73.5 199.5t210.5 76.5zM312 405q-81 0 -81 -143q0 -144 82 -144q79 0 79 142q0 79 -19.5 112t-60.5 33zM342 740h208l-176 -150h-152z" />
    <glyph glyph-name="ocircumflex" unicode="&#xf4;" horiz-adv-x="623" 
d="M316 537q127 0 201 -76t74 -198q0 -125 -74 -200.5t-207 -75.5q-134 0 -206 77t-72 197q0 123 73.5 199.5t210.5 76.5zM312 405q-81 0 -81 -143q0 -144 82 -144q79 0 79 142q0 79 -19.5 112t-60.5 33zM231 725h162l116 -147h-155l-44 63l-41 -63h-157z" />
    <glyph glyph-name="otilde" unicode="&#xf5;" horiz-adv-x="623" 
d="M316 537q127 0 201 -76t74 -198q0 -125 -74 -200.5t-207 -75.5q-134 0 -206 77t-72 197q0 123 73.5 199.5t210.5 76.5zM312 405q-81 0 -81 -143q0 -144 82 -144q79 0 79 142q0 79 -19.5 112t-60.5 33zM236 585h-108v33q0 67 27 92.5t74 25.5q34 0 80 -18.5t58 -18.5
q20 0 20 27v11h106v-25q0 -76 -28.5 -103.5t-75.5 -27.5q-34 0 -78.5 18t-55.5 18q-19 0 -19 -19v-13z" />
    <glyph glyph-name="odieresis" unicode="&#xf6;" horiz-adv-x="623" 
d="M316 537q127 0 201 -76t74 -198q0 -125 -74 -200.5t-207 -75.5q-134 0 -206 77t-72 197q0 123 73.5 199.5t210.5 76.5zM312 405q-81 0 -81 -143q0 -144 82 -144q79 0 79 142q0 79 -19.5 112t-60.5 33zM278 592h-149v140h149v-140zM493 592h-149v140h149v-140z" />
    <glyph glyph-name="divide" unicode="&#xf7;" horiz-adv-x="679" 
d="M415 0h-147v142h147v-142zM613 207h-547v140h547v-140zM415 414h-147v143h147v-143z" />
    <glyph glyph-name="oslash" unicode="&#xf8;" horiz-adv-x="623" 
d="M316 537q81 0 144 -33l19 25h76l-46 -60q83 -78 83 -208q0 -129 -79 -201.5t-204 -72.5q-82 -1 -145 33l-24 -32h-76l51 66q-84 78 -84 204q0 122 75 200.5t210 78.5zM311 412q-93 0 -93 -150q0 -36 6 -65l147 191q-23 24 -60 24zM312 112q91 0 91 146q0 34 -5 66
l-145 -188q23 -24 59 -24z" />
    <glyph glyph-name="ugrave" unicode="&#xf9;" horiz-adv-x="620" 
d="M564 524v-357q0 -117 1 -167h-191q0 1 -4 55q-47 -68 -145 -68q-84 0 -128 49.5t-44 143.5v344h195v-312q0 -81 57 -81q35 0 50 23t15 80v290h194zM74 736h210l121 -150h-153z" />
    <glyph glyph-name="uacute" unicode="&#xfa;" horiz-adv-x="620" 
d="M564 524v-357q0 -117 1 -167h-191q0 1 -4 55q-47 -68 -145 -68q-84 0 -128 49.5t-44 143.5v344h195v-312q0 -81 57 -81q35 0 50 23t15 80v290h194zM339 736h208l-176 -150h-152z" />
    <glyph glyph-name="ucircumflex" unicode="&#xfb;" horiz-adv-x="620" 
d="M564 524v-357q0 -117 1 -167h-191q0 1 -4 55q-47 -68 -145 -68q-84 0 -128 49.5t-44 143.5v344h195v-312q0 -81 57 -81q35 0 50 23t15 80v290h194zM229 725h162l116 -147h-155l-44 63l-41 -63h-157z" />
    <glyph glyph-name="udieresis" unicode="&#xfc;" horiz-adv-x="620" 
d="M564 524v-357q0 -117 1 -167h-191q0 1 -4 55q-47 -68 -145 -68q-84 0 -128 49.5t-44 143.5v344h195v-312q0 -81 57 -81q35 0 50 23t15 80v290h194zM276 588h-149v140h149v-140zM491 588h-149v140h149v-140z" />
    <glyph glyph-name="yacute" unicode="&#xfd;" horiz-adv-x="560" 
d="M-3 524h212q68 -266 79 -356h4q22 133 76 356h192l-156 -494q-22 -69 -40 -108t-47.5 -70t-70 -42.5t-102.5 -11.5q-33 0 -81 5v139q3 0 16.5 -1t20.5 -1q35 0 54.5 11.5t29.5 40.5zM309 736h208l-176 -150h-152z" />
    <glyph glyph-name="thorn" unicode="&#xfe;" horiz-adv-x="632" 
d="M250 -192h-194v916h194v-246q48 58 141 58q89 0 149.5 -68t60.5 -195q0 -136 -68 -210t-171 -74q-75 0 -112 43v-224zM403 265q0 75 -22 104t-61 29q-77 0 -77 -138q0 -136 76 -136q84 0 84 141z" />
    <glyph glyph-name="ydieresis" unicode="&#xff;" horiz-adv-x="560" 
d="M-3 524h212q68 -266 79 -356h4q22 133 76 356h192l-156 -494q-22 -69 -40 -108t-47.5 -70t-70 -42.5t-102.5 -11.5q-33 0 -81 5v139q3 0 16.5 -1t20.5 -1q35 0 54.5 11.5t29.5 40.5zM247 588h-149v140h149v-140zM462 588h-149v140h149v-140z" />
    <glyph glyph-name="Amacron" unicode="&#x100;" horiz-adv-x="715" 
d="M457 134h-216l-40 -134h-196l218 689h261l226 -689h-211zM275 284h147q-55 184 -74 271h-3q-15 -69 -70 -271zM193 866h328v-116h-328v116z" />
    <glyph glyph-name="amacron" unicode="&#x101;" horiz-adv-x="596" 
d="M540 344v-189q0 -119 6 -155h-180q-5 14 -8 48q-48 -61 -148 -61q-85 0 -133 47t-48 120q0 177 259 177h64v29q0 28 -13 43t-46 15q-31 0 -43.5 -13t-16.5 -41h-180q14 174 245 173q127 -1 184.5 -49t57.5 -144zM352 217v16h-43q-89 0 -89 -63q0 -24 14.5 -39.5
t42.5 -15.5q45 0 60 26t15 76zM139 715h321v-122h-321v122z" />
    <glyph glyph-name="Abreve" unicode="&#x102;" horiz-adv-x="715" 
d="M457 134h-216l-40 -134h-196l218 689h261l226 -689h-211zM275 284h147q-55 184 -74 271h-3q-15 -69 -70 -271zM174 887h123q10 -50 60 -50q51 0 60 50h122q-9 -62 -52.5 -107t-131.5 -45q-47 0 -82.5 14t-55.5 37.5t-30.5 48.5t-12.5 52z" />
    <glyph glyph-name="abreve" unicode="&#x103;" horiz-adv-x="596" 
d="M540 344v-189q0 -119 6 -155h-180q-5 14 -8 48q-48 -61 -148 -61q-85 0 -133 47t-48 120q0 177 259 177h64v29q0 28 -13 43t-46 15q-31 0 -43.5 -13t-16.5 -41h-180q14 174 245 173q127 -1 184.5 -49t57.5 -144zM352 217v16h-43q-89 0 -89 -63q0 -24 14.5 -39.5
t42.5 -15.5q45 0 60 26t15 76zM125 731h127q11 -43 48 -43q16 0 26.5 7t14 14.5t7.5 21.5h126q-9 -66 -50 -110.5t-126 -44.5q-86 0 -127.5 45t-45.5 110z" />
    <glyph glyph-name="Aogonek" unicode="&#x104;" horiz-adv-x="715" 
d="M457 134h-216l-40 -134h-196l218 689h261l226 -689h-34q-48 -36 -48 -70q0 -38 51 -38q25 0 40 4v-116q-37 -18 -108 -18q-64 0 -102 30.5t-38 87.5q0 70 61 120h-33zM275 284h147q-55 184 -74 271h-3q-15 -69 -70 -271z" />
    <glyph glyph-name="aogonek" unicode="&#x105;" horiz-adv-x="596" 
d="M540 344v-189q0 -119 6 -155h-18q-48 -36 -48 -70q0 -38 51 -38q25 0 40 4v-116q-37 -18 -108 -18q-64 0 -102 30.5t-38 87.5q0 70 61 120h-18q-5 14 -8 48q-48 -61 -148 -61q-85 0 -133 47t-48 120q0 177 259 177h64v29q0 28 -13 43t-46 15q-31 0 -43.5 -13t-16.5 -41
h-180q14 174 245 173q127 -1 184.5 -49t57.5 -144zM352 217v16h-43q-89 0 -89 -63q0 -24 14.5 -39.5t42.5 -15.5q45 0 60 26t15 76z" />
    <glyph glyph-name="Cacute" unicode="&#x106;" horiz-adv-x="727" 
d="M494 227h201q-20 -112 -101 -176t-219 -64q-163 0 -249 97.5t-86 254.5q0 75 21 139.5t62 115t108.5 79.5t153.5 29q141 0 218.5 -69t89.5 -168h-200q-19 95 -113 95q-132 0 -132 -214q0 -217 134 -217q89 0 112 98zM408 882h223l-192 -136h-165z" />
    <glyph glyph-name="cacute" unicode="&#x107;" horiz-adv-x="580" 
d="M371 182h185q-14 -84 -74 -139.5t-184 -55.5q-131 0 -198 75.5t-67 194.5q0 122 72.5 201t199.5 79q70 0 121.5 -21t77.5 -54t38.5 -63.5t13.5 -58.5h-186q-9 66 -64 66q-74 0 -74 -142q0 -148 73 -148q49 0 66 66zM330 738h208l-176 -150h-152z" />
    <glyph glyph-name="Ccircumflex" unicode="&#x108;" horiz-adv-x="727" 
d="M494 227h201q-20 -112 -101 -176t-219 -64q-163 0 -249 97.5t-86 254.5q0 75 21 139.5t62 115t108.5 79.5t153.5 29q141 0 218.5 -69t89.5 -168h-200q-19 95 -113 95q-132 0 -132 -214q0 -217 134 -217q89 0 112 98zM284 881h188l118 -137h-160l-53 63l-52 -63h-163z" />
    <glyph glyph-name="ccircumflex" unicode="&#x109;" horiz-adv-x="580" 
d="M371 182h185q-14 -84 -74 -139.5t-184 -55.5q-131 0 -198 75.5t-67 194.5q0 122 72.5 201t199.5 79q70 0 121.5 -21t77.5 -54t38.5 -63.5t13.5 -58.5h-186q-9 66 -64 66q-74 0 -74 -142q0 -148 73 -148q49 0 66 66zM227 726h162l116 -147h-155l-44 63l-41 -63h-157z" />
    <glyph glyph-name="Cdotaccent" unicode="&#x10a;" horiz-adv-x="727" 
d="M494 227h201q-20 -112 -101 -176t-219 -64q-163 0 -249 97.5t-86 254.5q0 75 21 139.5t62 115t108.5 79.5t153.5 29q141 0 218.5 -69t89.5 -168h-200q-19 95 -113 95q-132 0 -132 -214q0 -217 134 -217q89 0 112 98zM462 759h-172v140h172v-140z" />
    <glyph glyph-name="cdotaccent" unicode="&#x10b;" horiz-adv-x="580" 
d="M371 182h185q-14 -84 -74 -139.5t-184 -55.5q-131 0 -198 75.5t-67 194.5q0 122 72.5 201t199.5 79q70 0 121.5 -21t77.5 -54t38.5 -63.5t13.5 -58.5h-186q-9 66 -64 66q-74 0 -74 -142q0 -148 73 -148q49 0 66 66zM396 591h-172v140h172v-140z" />
    <glyph glyph-name="Ccaron" unicode="&#x10c;" horiz-adv-x="727" 
d="M494 227h201q-20 -112 -101 -176t-219 -64q-163 0 -249 97.5t-86 254.5q0 75 21 139.5t62 115t108.5 79.5t153.5 29q141 0 218.5 -69t89.5 -168h-200q-19 95 -113 95q-132 0 -132 -214q0 -217 134 -217q89 0 112 98zM470 744h-175l-126 137h162l53 -62l52 62h161z" />
    <glyph glyph-name="ccaron" unicode="&#x10d;" horiz-adv-x="580" 
d="M371 182h185q-14 -84 -74 -139.5t-184 -55.5q-131 0 -198 75.5t-67 194.5q0 122 72.5 201t199.5 79q70 0 121.5 -21t77.5 -54t38.5 -63.5t13.5 -58.5h-186q-9 66 -64 66q-74 0 -74 -142q0 -148 73 -148q49 0 66 66zM384 579h-158l-118 147h152l47 -64l44 64h154z" />
    <glyph glyph-name="Dcaron" unicode="&#x10e;" horiz-adv-x="754" 
d="M71 0v689h296q161 0 253.5 -93t92.5 -244q0 -155 -92.5 -253.5t-256.5 -98.5h-293zM273 543v-397h78q154 0 154 206q0 191 -152 191h-80zM429 740h-175l-126 137h162l53 -62l52 62h161z" />
    <glyph glyph-name="dcaron" unicode="&#x10f;" horiz-adv-x="716" 
d="M386 724h195v-566q0 -113 1 -158h-189q-3 17 -6 50q-43 -63 -143 -63t-156 76t-56 196q0 122 62.5 200t170.5 78q45 0 77.5 -12.5t43.5 -31.5v231zM232 264q0 -140 81 -140q27 0 44 11t24.5 32.5t10 42.5t2.5 53q0 74 -14.5 106t-63.5 32q-84 0 -84 -137zM739 438h-108
l-9 286h126z" />
    <glyph glyph-name="Dcroat" unicode="&#x110;" horiz-adv-x="767" 
d="M18 410h66v279h296q161 0 253.5 -93t92.5 -244q0 -155 -92.5 -253.5t-256.5 -98.5h-293v296h-66v114zM286 543v-133h117v-114h-117v-150h78q154 0 154 206q0 191 -152 191h-80z" />
    <glyph glyph-name="dcroat" unicode="&#x111;" horiz-adv-x="635" 
d="M386 724h195v-59h58v-96h-58v-419q0 -101 1 -150h-188q-5 24 -7 55q-23 -34 -55.5 -51t-90.5 -17q-99 0 -154 76.5t-55 187.5q0 121 64.5 196t170.5 75q44 0 76 -12.5t43 -30.5v90h-216v96h216v59zM232 260q0 -64 20.5 -100t59.5 -36q82 0 82 135q0 62 -16 95t-61 33
q-85 0 -85 -127z" />
    <glyph glyph-name="Emacron" unicode="&#x112;" horiz-adv-x="638" 
d="M579 428v-149h-314v-129h351l-23 -150h-522v689h521v-150h-327v-111h314zM171 866h328v-116h-328v116z" />
    <glyph glyph-name="emacron" unicode="&#x113;" horiz-adv-x="601" 
d="M569 224h-341q0 -45 19 -75.5t59 -30.5q32 0 46 11.5t23 35.5h191q-8 -31 -24 -58t-44.5 -56.5t-79 -46.5t-116.5 -17q-71 0 -125 22.5t-84.5 62t-45.5 86t-15 100.5q0 126 68.5 202.5t205.5 76.5q73 0 126.5 -23t82.5 -63t42.5 -85t13.5 -97q0 -31 -2 -45zM230 325h146
q-2 91 -71 91q-70 0 -75 -91zM149 715h321v-122h-321v122z" />
    <glyph glyph-name="Ebreve" unicode="&#x114;" horiz-adv-x="638" 
d="M579 428v-149h-314v-129h351l-23 -150h-522v689h521v-150h-327v-111h314zM152 887h123q10 -50 60 -50q51 0 60 50h122q-9 -62 -52.5 -107t-131.5 -45q-47 0 -82.5 14t-55.5 37.5t-30.5 48.5t-12.5 52z" />
    <glyph glyph-name="ebreve" unicode="&#x115;" horiz-adv-x="601" 
d="M569 224h-341q0 -45 19 -75.5t59 -30.5q32 0 46 11.5t23 35.5h191q-8 -31 -24 -58t-44.5 -56.5t-79 -46.5t-116.5 -17q-71 0 -125 22.5t-84.5 62t-45.5 86t-15 100.5q0 126 68.5 202.5t205.5 76.5q73 0 126.5 -23t82.5 -63t42.5 -85t13.5 -97q0 -31 -2 -45zM230 325h146
q-2 91 -71 91q-70 0 -75 -91zM135 731h127q11 -43 48 -43q16 0 26.5 7t14 14.5t7.5 21.5h126q-9 -66 -50 -110.5t-126 -44.5q-86 0 -127.5 45t-45.5 110z" />
    <glyph glyph-name="Edotaccent" unicode="&#x116;" horiz-adv-x="638" 
d="M579 428v-149h-314v-129h351l-23 -150h-522v689h521v-150h-327v-111h314zM423 749h-172v140h172v-140z" />
    <glyph glyph-name="edotaccent" unicode="&#x117;" horiz-adv-x="601" 
d="M569 224h-341q0 -45 19 -75.5t59 -30.5q32 0 46 11.5t23 35.5h191q-8 -31 -24 -58t-44.5 -56.5t-79 -46.5t-116.5 -17q-71 0 -125 22.5t-84.5 62t-45.5 86t-15 100.5q0 126 68.5 202.5t205.5 76.5q73 0 126.5 -23t82.5 -63t42.5 -85t13.5 -97q0 -31 -2 -45zM230 325h146
q-2 91 -71 91q-70 0 -75 -91zM396 590h-172v140h172v-140z" />
    <glyph glyph-name="Eogonek" unicode="&#x118;" horiz-adv-x="638" 
d="M579 428v-149h-314v-129h351l-23 -150h-41q-48 -36 -48 -70q0 -38 51 -38q25 0 40 4v-116q-37 -18 -108 -18q-64 0 -102 30.5t-38 87.5q0 70 61 120h-337v689h521v-150h-327v-111h314z" />
    <glyph glyph-name="eogonek" unicode="&#x119;" horiz-adv-x="601" 
d="M569 224h-341q0 -45 19 -75.5t59 -30.5q32 0 46 11.5t23 35.5h191q-32 -117 -141 -158q-44 -33 -44 -67q0 -38 51 -38q25 0 40 4v-116q-37 -18 -108 -18q-64 0 -102 30.5t-38 87.5q0 53 39 99q-61 6 -106.5 30.5t-72 62.5t-39.5 82t-13 94q0 126 68.5 202.5t205.5 76.5
q73 0 126.5 -23t82.5 -63t42.5 -85t13.5 -97q0 -31 -2 -45zM230 325h146q-2 91 -71 91q-70 0 -75 -91z" />
    <glyph glyph-name="Ecaron" unicode="&#x11a;" horiz-adv-x="638" 
d="M579 428v-149h-314v-129h351l-23 -150h-522v689h521v-150h-327v-111h314zM418 740h-175l-126 137h162l53 -62l52 62h161z" />
    <glyph glyph-name="ecaron" unicode="&#x11b;" horiz-adv-x="601" 
d="M569 224h-341q0 -45 19 -75.5t59 -30.5q32 0 46 11.5t23 35.5h191q-8 -31 -24 -58t-44.5 -56.5t-79 -46.5t-116.5 -17q-71 0 -125 22.5t-84.5 62t-45.5 86t-15 100.5q0 126 68.5 202.5t205.5 76.5q73 0 126.5 -23t82.5 -63t42.5 -85t13.5 -97q0 -31 -2 -45zM230 325h146
q-2 91 -71 91q-70 0 -75 -91zM387 578h-158l-118 147h152l47 -64l44 64h154z" />
    <glyph glyph-name="Gcircumflex" unicode="&#x11c;" horiz-adv-x="767" 
d="M707 395v-395h-135q-8 27 -13 63q-58 -77 -201 -77q-152 0 -235 99.5t-83 250.5q0 164 92.5 265t260.5 101q144 0 224.5 -67t91.5 -158h-200q-23 82 -117 82q-144 0 -144 -216q0 -59 12 -104.5t46 -77.5t87 -32q47 0 75.5 22t36 46t7.5 52v5h-126v141h321zM294 881h188
l118 -137h-160l-53 63l-52 -63h-163z" />
    <glyph glyph-name="gcircumflex" unicode="&#x11d;" horiz-adv-x="632" 
d="M578 374v-296q0 -138 -62 -209t-219 -71q-60 0 -106.5 12.5t-72.5 30.5t-43 43t-23 45t-8 41h192q12 -47 68 -47q49 0 65.5 29t16.5 97v28q-45 -66 -141 -66q-100 0 -156.5 71t-56.5 180q0 122 63 198.5t162 76.5q57 0 89 -19t40 -42q1 10 5 48h189q-2 -80 -2 -150z
M232 271q0 -59 21 -92t58 -33q47 0 64 31.5t17 95.5q0 69 -15 99.5t-63 30.5q-37 0 -59.5 -32t-22.5 -100zM241 725h162l116 -147h-155l-44 63l-41 -63h-157z" />
    <glyph glyph-name="Gbreve" unicode="&#x11e;" horiz-adv-x="767" 
d="M707 395v-395h-135q-8 27 -13 63q-58 -77 -201 -77q-152 0 -235 99.5t-83 250.5q0 164 92.5 265t260.5 101q144 0 224.5 -67t91.5 -158h-200q-23 82 -117 82q-144 0 -144 -216q0 -59 12 -104.5t46 -77.5t87 -32q47 0 75.5 22t36 46t7.5 52v5h-126v141h321zM204 896h123
q10 -50 60 -50q51 0 60 50h122q-9 -62 -52.5 -107t-131.5 -45q-47 0 -82.5 14t-55.5 37.5t-30.5 48.5t-12.5 52z" />
    <glyph glyph-name="gbreve" unicode="&#x11f;" horiz-adv-x="632" 
d="M578 374v-296q0 -138 -62 -209t-219 -71q-60 0 -106.5 12.5t-72.5 30.5t-43 43t-23 45t-8 41h192q12 -47 68 -47q49 0 65.5 29t16.5 97v28q-45 -66 -141 -66q-100 0 -156.5 71t-56.5 180q0 122 63 198.5t162 76.5q57 0 89 -19t40 -42q1 10 5 48h189q-2 -80 -2 -150z
M232 271q0 -59 21 -92t58 -33q47 0 64 31.5t17 95.5q0 69 -15 99.5t-63 30.5q-37 0 -59.5 -32t-22.5 -100zM148 730h127q11 -43 48 -43q16 0 26.5 7t14 14.5t7.5 21.5h126q-9 -66 -50 -110.5t-126 -44.5q-86 0 -127.5 45t-45.5 110z" />
    <glyph glyph-name="Gdotaccent" unicode="&#x120;" horiz-adv-x="767" 
d="M707 395v-395h-135q-8 27 -13 63q-58 -77 -201 -77q-152 0 -235 99.5t-83 250.5q0 164 92.5 265t260.5 101q144 0 224.5 -67t91.5 -158h-200q-23 82 -117 82q-144 0 -144 -216q0 -59 12 -104.5t46 -77.5t87 -32q47 0 75.5 22t36 46t7.5 52v5h-126v141h321zM468 752h-172
v140h172v-140z" />
    <glyph glyph-name="gdotaccent" unicode="&#x121;" horiz-adv-x="632" 
d="M578 374v-296q0 -138 -62 -209t-219 -71q-60 0 -106.5 12.5t-72.5 30.5t-43 43t-23 45t-8 41h192q12 -47 68 -47q49 0 65.5 29t16.5 97v28q-45 -66 -141 -66q-100 0 -156.5 71t-56.5 180q0 122 63 198.5t162 76.5q57 0 89 -19t40 -42q1 10 5 48h189q-2 -80 -2 -150z
M232 271q0 -59 21 -92t58 -33q47 0 64 31.5t17 95.5q0 69 -15 99.5t-63 30.5q-37 0 -59.5 -32t-22.5 -100zM409 592h-172v140h172v-140z" />
    <glyph glyph-name="uni0122" unicode="&#x122;" horiz-adv-x="767" 
d="M707 395v-395h-135q-8 27 -13 63q-58 -77 -201 -77q-152 0 -235 99.5t-83 250.5q0 164 92.5 265t260.5 101q144 0 224.5 -67t91.5 -158h-200q-23 82 -117 82q-144 0 -144 -216q0 -59 12 -104.5t46 -77.5t87 -32q47 0 75.5 22t36 46t7.5 52v5h-126v141h321zM403 -256h-141
q50 102 61 207h169q-7 -51 -33 -113t-56 -94z" />
    <glyph glyph-name="uni0123" unicode="&#x123;" horiz-adv-x="632" 
d="M315 786h156q-59 -117 -66 -199h-181q7 49 32.5 104.5t58.5 94.5zM578 374v-296q0 -138 -62 -209t-219 -71q-60 0 -106.5 12.5t-72.5 30.5t-43 43t-23 45t-8 41h192q12 -47 68 -47q49 0 65.5 29t16.5 97v28q-45 -66 -141 -66q-100 0 -156.5 71t-56.5 180q0 122 63 198.5
t162 76.5q57 0 89 -19t40 -42q1 10 5 48h189q-2 -80 -2 -150zM232 271q0 -59 21 -92t58 -33q47 0 64 31.5t17 95.5q0 69 -15 99.5t-63 30.5q-37 0 -59.5 -32t-22.5 -100z" />
    <glyph glyph-name="Hcircumflex" unicode="&#x124;" horiz-adv-x="758" 
d="M71 0v689h203v-258h210v258h203v-689h-203v282h-210v-282h-203zM286 877h188l118 -137h-160l-53 63l-52 -63h-163z" />
    <glyph glyph-name="hcircumflex" unicode="&#x125;" horiz-adv-x="626" 
d="M49 895h212l105 -126h-163l-49 56l-47 -56h-166zM55 724h195v-255q55 68 148 68q82 0 127.5 -51t45.5 -147v-339h-194v316q0 78 -60 78q-41 0 -54 -27.5t-13 -82.5v-284h-195v724z" />
    <glyph glyph-name="Hbar" unicode="&#x126;" horiz-adv-x="758" 
d="M14 606h57v83h203v-83h210v83h203v-83h57v-108h-57v-498h-203v282h-210v-282h-203v498h-57v108zM274 431h210v67h-210v-67z" />
    <glyph glyph-name="hbar" unicode="&#x127;" horiz-adv-x="626" 
d="M55 724h195v-55h196v-97h-196v-115q51 67 151 67q170 0 170 -198v-326h-194v304q0 40 -14 58.5t-46 18.5q-67 0 -67 -103v-278h-195v572h-75v97h75v55z" />
    <glyph glyph-name="Itilde" unicode="&#x128;" horiz-adv-x="345" 
d="M71 689h203v-689h-203v689zM91 748h-108v34q0 67 27.5 91.5t75.5 24.5q37 0 86.5 -20t61.5 -20q21 0 21 28v10h106v-23q0 -76 -28.5 -103.5t-79.5 -27.5q-31 0 -81.5 19t-61.5 19q-19 0 -19 -19v-13z" />
    <glyph glyph-name="itilde" unicode="&#x129;" horiz-adv-x="306" 
d="M55 0v524h195v-524h-195zM78 581h-108v33q0 67 27 92.5t74 25.5q34 0 80 -18.5t58 -18.5q20 0 20 27v11h106v-25q0 -76 -28.5 -103.5t-75.5 -27.5q-34 0 -78.5 18t-55.5 18q-19 0 -19 -19v-13z" />
    <glyph glyph-name="Imacron" unicode="&#x12a;" horiz-adv-x="345" 
d="M71 689h203v-689h-203v689zM8 866h328v-116h-328v116z" />
    <glyph glyph-name="imacron" unicode="&#x12b;" horiz-adv-x="306" 
d="M55 0v524h195v-524h-195zM-8 715h321v-122h-321v122z" />
    <glyph glyph-name="Iogonek" unicode="&#x12e;" horiz-adv-x="345" 
d="M71 689h203v-689h-27q-48 -36 -48 -70q0 -38 51 -38q25 0 40 4v-116q-37 -18 -108 -18q-64 0 -102 30.5t-38 87.5q0 70 61 120h-32v689z" />
    <glyph glyph-name="iogonek" unicode="&#x12f;" horiz-adv-x="306" 
d="M55 0v524h195v-524h-24q-48 -36 -48 -70q0 -38 51 -38q25 0 40 4v-116q-37 -18 -108 -18q-64 0 -102 30.5t-38 87.5q0 70 61 120h-27zM250 589h-195v135h195v-135z" />
    <glyph glyph-name="Idotaccent" unicode="&#x130;" horiz-adv-x="345" 
d="M71 689h203v-689h-203v689zM257 749h-172v140h172v-140z" />
    <glyph glyph-name="dotlessi" unicode="&#x131;" horiz-adv-x="306" 
d="M55 0v524h195v-524h-195z" />
    <glyph glyph-name="Jcircumflex" unicode="&#x134;" horiz-adv-x="425" 
d="M359 689v-453q0 -129 -52 -188t-181 -59q-66 0 -101 9v146q42 -3 61 -3q42 0 57 21.5t15 62.5v464h201zM166 877h188l118 -137h-160l-53 63l-52 -63h-163z" />
    <glyph glyph-name="jcircumflex" unicode="&#x135;" horiz-adv-x="307" 
d="M57 524h194v-487q0 -64 -7.5 -104.5t-28.5 -73t-62 -47t-105 -14.5q-23 0 -55 2v140h14q27 0 38.5 13t11.5 46v525zM73 725h162l116 -147h-155l-44 63l-41 -63h-157z" />
    <glyph glyph-name="uni0136" unicode="&#x136;" horiz-adv-x="715" 
d="M71 0v689h201v-280q24 34 104 137t110 143h239l-253 -282l262 -407h-236l-166 276l-60 -62v-214h-201zM373 -256h-141q50 102 61 207h169q-7 -51 -33 -113t-56 -94z" />
    <glyph glyph-name="uni0137" unicode="&#x137;" horiz-adv-x="606" 
d="M250 724v-400q33 54 137 200h219l-166 -196q9 -20 90 -165t89 -163h-218q-3 7 -49 104t-47 101l-55 -56v-149h-195v724h195zM318 -256h-141q50 102 61 207h169q-7 -51 -33 -113t-56 -94z" />
    <glyph glyph-name="kgreenlandic" unicode="&#x138;" horiz-adv-x="604" 
d="M250 524v-207q17 28 66.5 103t67.5 104h219q-10 -12 -77.5 -94t-90.5 -108q33 -56 96.5 -169.5t85.5 -152.5h-219q-15 30 -50 102.5t-46 95.5l-52 -56v-142h-195v524h195z" />
    <glyph glyph-name="Lacute" unicode="&#x139;" horiz-adv-x="608" 
d="M71 0v689h203v-539h324l-22 -150h-505zM219 878h223l-192 -136h-165z" />
    <glyph glyph-name="lacute" unicode="&#x13a;" horiz-adv-x="306" 
d="M183 904h220l-170 -131h-172zM250 0h-195v724h195v-724z" />
    <glyph glyph-name="uni013B" unicode="&#x13b;" horiz-adv-x="608" 
d="M71 0v689h203v-539h324l-22 -150h-505zM332 -256h-141q50 102 61 207h169q-7 -51 -33 -113t-56 -94z" />
    <glyph glyph-name="uni013C" unicode="&#x13c;" horiz-adv-x="306" 
d="M250 0h-195v724h195v-724zM150 -256h-141q50 102 61 207h169q-7 -51 -33 -113t-56 -94z" />
    <glyph glyph-name="Lcaron" unicode="&#x13d;" horiz-adv-x="608" 
d="M71 0v689h203v-539h324l-22 -150h-505zM496 405h-108l-9 286h126z" />
    <glyph glyph-name="lcaron" unicode="&#x13e;" 
d="M250 0h-195v724h195v-724zM411 438h-108l-9 286h126z" />
    <glyph glyph-name="Ldot" unicode="&#x13f;" horiz-adv-x="608" 
d="M548 305h-171v184h171v-184zM71 0v689h203v-539h324l-22 -150h-505z" />
    <glyph glyph-name="ldot" unicode="&#x140;" horiz-adv-x="422" 
d="M438 336h-150v188h150v-188zM250 0h-195v724h195v-724z" />
    <glyph glyph-name="Lslash" unicode="&#x141;" horiz-adv-x="620" 
d="M418 419l-133 -57v-212h324l-22 -150h-505v275l-76 -32v117l76 32v297h203v-210l133 57v-117z" />
    <glyph glyph-name="lslash" unicode="&#x142;" horiz-adv-x="319" 
d="M257 0h-195v275l-57 -28v130l57 28v319h195v-224l62 30v-130l-62 -30v-370z" />
    <glyph glyph-name="Nacute" unicode="&#x143;" horiz-adv-x="768" 
d="M256 0h-185v689h242q20 -43 74 -156t86.5 -184.5t45.5 -109.5h4q-10 90 -10 303v147h184v-689h-230q-8 18 -68 144.5t-96.5 207.5t-51.5 122h-2q7 -76 7 -319v-155zM425 878h223l-192 -136h-165z" />
    <glyph glyph-name="nacute" unicode="&#x144;" horiz-adv-x="625" 
d="M56 0v388q0 95 -1 136h190q3 -14 6 -58q47 71 149 71q80 0 125.5 -52t45.5 -147v-338h-194v315q0 40 -13.5 59.5t-46.5 19.5t-49.5 -21t-16.5 -74v-299h-195zM338 736h208l-176 -150h-152z" />
    <glyph glyph-name="uni0145" unicode="&#x145;" horiz-adv-x="768" 
d="M256 0h-185v689h242q20 -43 74 -156t86.5 -184.5t45.5 -109.5h4q-10 90 -10 303v147h184v-689h-230q-8 18 -68 144.5t-96.5 207.5t-51.5 122h-2q7 -76 7 -319v-155zM394 -256h-141q50 102 61 207h169q-7 -51 -33 -113t-56 -94z" />
    <glyph glyph-name="uni0146" unicode="&#x146;" horiz-adv-x="625" 
d="M56 0v388q0 95 -1 136h190q3 -14 6 -58q47 71 149 71q80 0 125.5 -52t45.5 -147v-338h-194v315q0 40 -13.5 59.5t-46.5 19.5t-49.5 -21t-16.5 -74v-299h-195zM307 -256h-141q50 102 61 207h169q-7 -51 -33 -113t-56 -94z" />
    <glyph glyph-name="Ncaron" unicode="&#x147;" horiz-adv-x="768" 
d="M256 0h-185v689h242q20 -43 74 -156t86.5 -184.5t45.5 -109.5h4q-10 90 -10 303v147h184v-689h-230q-8 18 -68 144.5t-96.5 207.5t-51.5 122h-2q7 -76 7 -319v-155zM478 740h-175l-126 137h162l53 -62l52 62h161z" />
    <glyph glyph-name="ncaron" unicode="&#x148;" horiz-adv-x="625" 
d="M56 0v388q0 95 -1 136h190q3 -14 6 -58q47 71 149 71q80 0 125.5 -52t45.5 -147v-338h-194v315q0 40 -13.5 59.5t-46.5 19.5t-49.5 -21t-16.5 -74v-299h-195zM386 586h-158l-118 147h152l47 -64l44 64h154z" />
    <glyph glyph-name="napostrophe" unicode="&#x149;" horiz-adv-x="625" 
d="M120 574h-130q35 97 42 214h166q-5 -57 -26.5 -117t-51.5 -97zM56 0v388q0 95 -1 136h190q3 -14 6 -58q47 71 149 71q80 0 125.5 -52t45.5 -147v-338h-194v315q0 40 -13.5 59.5t-46.5 19.5t-49.5 -21t-16.5 -74v-299h-195z" />
    <glyph glyph-name="Omacron" unicode="&#x14c;" horiz-adv-x="777" 
d="M394 702q159 0 251 -99.5t92 -257.5q0 -155 -92 -256.5t-261 -101.5q-166 0 -255 101t-89 256t93.5 256.5t260.5 101.5zM388 556q-140 0 -140 -209q0 -99 35 -156.5t107 -57.5q140 0 140 210q0 213 -142 213zM225 869h328v-116h-328v116z" />
    <glyph glyph-name="omacron" unicode="&#x14d;" horiz-adv-x="623" 
d="M316 537q127 0 201 -76t74 -198q0 -125 -74 -200.5t-207 -75.5q-134 0 -206 77t-72 197q0 123 73.5 199.5t210.5 76.5zM312 405q-81 0 -81 -143q0 -144 82 -144q79 0 79 142q0 79 -19.5 112t-60.5 33zM150 716h321v-122h-321v122z" />
    <glyph glyph-name="Ohungarumlaut" unicode="&#x150;" horiz-adv-x="777" 
d="M394 702q159 0 251 -99.5t92 -257.5q0 -155 -92 -256.5t-261 -101.5q-166 0 -255 101t-89 256t93.5 256.5t260.5 101.5zM388 556q-140 0 -140 -209q0 -99 35 -156.5t107 -57.5q140 0 140 210q0 213 -142 213zM297 880h177l-153 -136h-138zM527 880h176l-152 -136h-138z
" />
    <glyph glyph-name="ohungarumlaut" unicode="&#x151;" horiz-adv-x="623" 
d="M316 537q127 0 201 -76t74 -198q0 -125 -74 -200.5t-207 -75.5q-134 0 -206 77t-72 197q0 123 73.5 199.5t210.5 76.5zM312 405q-81 0 -81 -143q0 -144 82 -144q79 0 79 142q0 79 -19.5 112t-60.5 33zM249 582h-129l96 147h169zM469 582h-129l97 147h167z" />
    <glyph glyph-name="OE" unicode="&#x152;" horiz-adv-x="1049" 
d="M1006 689v-150h-307v-111h293v-151h-293v-128h328l-22 -149h-444q-3 0 -28 -2.5t-56 -4t-62 -1.5q-98 0 -172 29t-117.5 79t-64.5 111t-21 131q0 67 23.5 128.5t69.5 112.5t123 81.5t174 30.5q38 0 90 -3l53 -3h433zM505 142v403q-25 7 -77 7q-83 0 -131.5 -51.5
t-48.5 -155.5q0 -90 44.5 -149.5t133.5 -59.5q43 0 79 6z" />
    <glyph glyph-name="oe" unicode="&#x153;" horiz-adv-x="964" 
d="M665 -13q-106 0 -174 55q-72 -55 -181 -55q-134 0 -206 77.5t-72 196.5q0 122 74 199t210 77q107 0 176 -57q68 57 177 57q69 0 122 -22t83 -59.5t45 -82t15 -94.5q0 -27 -2 -55h-342q0 -46 19.5 -76t59.5 -30q52 0 69 47h191q-6 -24 -16.5 -46t-31.5 -47t-48.5 -43
t-71 -30t-96.5 -12zM312 405q-81 0 -81 -143q0 -144 82 -144q78 0 79 142q0 78 -19.5 111.5t-60.5 33.5zM592 325h146q0 90 -70 91q-69 0 -76 -91z" />
    <glyph glyph-name="Racute" unicode="&#x154;" horiz-adv-x="691" 
d="M338 260h-71v-260h-196v689h341q117 0 179 -54t62 -137q0 -65 -30.5 -105.5t-72.5 -57.5q89 -31 89 -178v-29q0 -89 9 -128h-192q-14 38 -14 150v18q0 49 -20.5 70.5t-83.5 21.5zM267 548v-147h94q91 0 91 74q0 73 -91 73h-94zM386 878h223l-192 -136h-165z" />
    <glyph glyph-name="racute" unicode="&#x155;" horiz-adv-x="430" 
d="M55 0v374q0 104 -1 150h190q5 -27 5 -85q17 42 57.5 69.5t103.5 28.5v-178q-87 4 -123.5 -25.5t-36.5 -118.5v-215h-195zM255 736h208l-176 -150h-152z" />
    <glyph glyph-name="uni0156" unicode="&#x156;" horiz-adv-x="691" 
d="M338 260h-71v-260h-196v689h341q117 0 179 -54t62 -137q0 -65 -30.5 -105.5t-72.5 -57.5q89 -31 89 -178v-29q0 -89 9 -128h-192q-14 38 -14 150v18q0 49 -20.5 70.5t-83.5 21.5zM267 548v-147h94q91 0 91 74q0 73 -91 73h-94zM360 -256h-141q50 102 61 207h169
q-7 -51 -33 -113t-56 -94z" />
    <glyph glyph-name="uni0157" unicode="&#x157;" horiz-adv-x="430" 
d="M55 0v374q0 104 -1 150h190q5 -27 5 -85q17 42 57.5 69.5t103.5 28.5v-178q-87 4 -123.5 -25.5t-36.5 -118.5v-215h-195zM149 -256h-141q50 102 61 207h169q-7 -51 -33 -113t-56 -94z" />
    <glyph glyph-name="Rcaron" unicode="&#x158;" horiz-adv-x="691" 
d="M338 260h-71v-260h-196v689h341q117 0 179 -54t62 -137q0 -65 -30.5 -105.5t-72.5 -57.5q89 -31 89 -178v-29q0 -89 9 -128h-192q-14 38 -14 150v18q0 49 -20.5 70.5t-83.5 21.5zM267 548v-147h94q91 0 91 74q0 73 -91 73h-94zM435 740h-175l-126 137h162l53 -62l52 62
h161z" />
    <glyph glyph-name="rcaron" unicode="&#x159;" horiz-adv-x="430" 
d="M55 0v374q0 104 -1 150h190q5 -27 5 -85q17 42 57.5 69.5t103.5 28.5v-178q-87 4 -123.5 -25.5t-36.5 -118.5v-215h-195zM304 578h-158l-118 147h152l47 -64l44 64h154z" />
    <glyph glyph-name="Sacute" unicode="&#x15a;" horiz-adv-x="668" 
d="M26 209h196q17 -86 119 -86q89 0 89 62q0 33 -28 50.5t-111 37.5q-142 34 -193 86t-51 130q0 93 70 153t207 60q139 0 211 -60t79 -150h-195q-10 74 -96 74q-74 0 -74 -54q0 -28 25.5 -43t105.5 -35q148 -37 201.5 -91.5t53.5 -136.5q0 -100 -77.5 -159.5t-224.5 -59.5
q-139 0 -217 59.5t-90 162.5zM375 882h223l-192 -136h-165z" />
    <glyph glyph-name="sacute" unicode="&#x15b;" horiz-adv-x="554" 
d="M26 162h180q12 -52 79 -52q55 0 55 36q0 19 -19 28.5t-73 21.5q-66 15 -108.5 33.5t-63 42t-28 46t-7.5 53.5q0 67 55 116.5t178 49.5q117 0 175 -48.5t62 -113.5h-174q-10 46 -68 46q-48 0 -48 -33q0 -15 19.5 -24.5t82.5 -23.5q118 -27 160.5 -69t42.5 -109
q0 -77 -60.5 -126t-186.5 -49q-120 0 -182.5 49t-70.5 126zM303 739h208l-176 -150h-152z" />
    <glyph glyph-name="Scircumflex" unicode="&#x15c;" horiz-adv-x="668" 
d="M26 209h196q17 -86 119 -86q89 0 89 62q0 33 -28 50.5t-111 37.5q-142 34 -193 86t-51 130q0 93 70 153t207 60q139 0 211 -60t79 -150h-195q-10 74 -96 74q-74 0 -74 -54q0 -28 25.5 -43t105.5 -35q148 -37 201.5 -91.5t53.5 -136.5q0 -100 -77.5 -159.5t-224.5 -59.5
q-139 0 -217 59.5t-90 162.5zM241 880h188l118 -137h-160l-53 63l-52 -63h-163z" />
    <glyph glyph-name="scircumflex" unicode="&#x15d;" horiz-adv-x="554" 
d="M26 162h180q12 -52 79 -52q55 0 55 36q0 19 -19 28.5t-73 21.5q-66 15 -108.5 33.5t-63 42t-28 46t-7.5 53.5q0 67 55 116.5t178 49.5q117 0 175 -48.5t62 -113.5h-174q-10 46 -68 46q-48 0 -48 -33q0 -15 19.5 -24.5t82.5 -23.5q118 -27 160.5 -69t42.5 -109
q0 -77 -60.5 -126t-186.5 -49q-120 0 -182.5 49t-70.5 126zM197 727h162l116 -147h-155l-44 63l-41 -63h-157z" />
    <glyph glyph-name="uni015E" unicode="&#x15e;" horiz-adv-x="668" 
d="M26 209h196q17 -86 119 -86q89 0 89 62q0 33 -28 50.5t-111 37.5q-142 34 -193 86t-51 130q0 93 70 153t207 60q139 0 211 -60t79 -150h-195q-10 74 -96 74q-74 0 -74 -54q0 -28 25.5 -43t105.5 -35q148 -37 201.5 -91.5t53.5 -136.5q0 -87 -58.5 -144t-171.5 -71
l-32 -31q88 -21 88 -95q0 -59 -45 -83t-104 -24q-58 0 -83 9v83q30 -5 49 -5q34 0 34 22q0 26 -70 29l-1 43l48 50q-119 10 -185.5 68t-77.5 152z" />
    <glyph glyph-name="uni015F" unicode="&#x15f;" horiz-adv-x="554" 
d="M26 162h180q12 -52 79 -52q55 0 55 36q0 19 -19 28.5t-73 21.5q-66 15 -108.5 33.5t-63 42t-28 46t-7.5 53.5q0 67 55 116.5t178 49.5q117 0 175 -48.5t62 -113.5h-174q-10 46 -68 46q-48 0 -48 -33q0 -15 19.5 -24.5t82.5 -23.5q118 -27 160.5 -69t42.5 -109
q0 -65 -44 -111.5t-136 -59.5l-36 -35q88 -21 88 -95q0 -59 -45 -83t-104 -24q-58 0 -83 9v83q30 -5 49 -5q34 0 34 22q0 26 -70 29l-1 43l52 54q-96 11 -146.5 58t-57.5 115z" />
    <glyph glyph-name="Scaron" unicode="&#x160;" horiz-adv-x="668" 
d="M26 209h196q17 -86 119 -86q89 0 89 62q0 33 -28 50.5t-111 37.5q-142 34 -193 86t-51 130q0 93 70 153t207 60q139 0 211 -60t79 -150h-195q-10 74 -96 74q-74 0 -74 -54q0 -28 25.5 -43t105.5 -35q148 -37 201.5 -91.5t53.5 -136.5q0 -100 -77.5 -159.5t-224.5 -59.5
q-139 0 -217 59.5t-90 162.5zM420 744h-175l-126 137h162l53 -62l52 62h161z" />
    <glyph glyph-name="scaron" unicode="&#x161;" horiz-adv-x="554" 
d="M26 162h180q12 -52 79 -52q55 0 55 36q0 19 -19 28.5t-73 21.5q-66 15 -108.5 33.5t-63 42t-28 46t-7.5 53.5q0 67 55 116.5t178 49.5q117 0 175 -48.5t62 -113.5h-174q-10 46 -68 46q-48 0 -48 -33q0 -15 19.5 -24.5t82.5 -23.5q118 -27 160.5 -69t42.5 -109
q0 -77 -60.5 -126t-186.5 -49q-120 0 -182.5 49t-70.5 126zM354 579h-158l-118 147h152l47 -64l44 64h154z" />
    <glyph glyph-name="uni0162" unicode="&#x162;" horiz-adv-x="617" 
d="M209 0v539h-197v150h594v-150h-195v-539h-33l-41 -40q88 -21 88 -95q0 -59 -45 -83t-104 -24q-58 0 -83 9v83q30 -5 49 -5q34 0 34 22q0 26 -70 29l-1 43l58 61h-54z" />
    <glyph glyph-name="uni0163" unicode="&#x163;" horiz-adv-x="399" 
d="M13 393v131h75v136h193v-136h92v-131h-92v-225q0 -25 10.5 -35t40.5 -10q17 0 28 1v-120q-22 -7 -72 -11l-34 -33q88 -21 88 -95q0 -59 -45 -83t-104 -24q-58 0 -83 9v83q30 -5 49 -5q34 0 34 22q0 26 -70 29l-1 43l58 61q-51 14 -72 51.5t-21 99.5v242h-74z" />
    <glyph glyph-name="Tcaron" unicode="&#x164;" horiz-adv-x="617" 
d="M209 0v539h-197v150h594v-150h-195v-539h-202zM394 740h-175l-126 137h162l53 -62l52 62h161z" />
    <glyph glyph-name="tcaron" unicode="&#x165;" horiz-adv-x="399" 
d="M441 575h-99l-3 240h123zM13 393v131h75v136h193v-136h92v-131h-92v-225q0 -25 10.5 -35t40.5 -10q17 0 28 1v-120q-37 -12 -114 -12q-88 0 -123.5 40t-35.5 119v242h-74z" />
    <glyph glyph-name="Utilde" unicode="&#x168;" horiz-adv-x="744" 
d="M62 689h202v-424q0 -69 30 -100.5t80 -31.5q105 0 105 132v424h202v-403q0 -299 -310 -299q-147 0 -228 69.5t-81 228.5v404zM291 750h-108v34q0 67 27.5 91.5t75.5 24.5q37 0 86.5 -20t61.5 -20q21 0 21 28v10h106v-23q0 -76 -28.5 -103.5t-79.5 -27.5q-31 0 -81.5 19
t-61.5 19q-19 0 -19 -19v-13z" />
    <glyph glyph-name="utilde" unicode="&#x169;" horiz-adv-x="620" 
d="M564 524v-357q0 -117 1 -167h-191q0 1 -4 55q-47 -68 -145 -68q-84 0 -128 49.5t-44 143.5v344h195v-312q0 -81 57 -81q35 0 50 23t15 80v290h194zM234 581h-108v33q0 67 27 92.5t74 25.5q34 0 80 -18.5t58 -18.5q20 0 20 27v11h106v-25q0 -76 -28.5 -103.5t-75.5 -27.5
q-34 0 -78.5 18t-55.5 18q-19 0 -19 -19v-13z" />
    <glyph glyph-name="Umacron" unicode="&#x16a;" horiz-adv-x="744" 
d="M62 689h202v-424q0 -69 30 -100.5t80 -31.5q105 0 105 132v424h202v-403q0 -299 -310 -299q-147 0 -228 69.5t-81 228.5v404zM208 866h328v-116h-328v116z" />
    <glyph glyph-name="umacron" unicode="&#x16b;" horiz-adv-x="620" 
d="M564 524v-357q0 -117 1 -167h-191q0 1 -4 55q-47 -68 -145 -68q-84 0 -128 49.5t-44 143.5v344h195v-312q0 -81 57 -81q35 0 50 23t15 80v290h194zM148 715h321v-122h-321v122z" />
    <glyph glyph-name="Ubreve" unicode="&#x16c;" horiz-adv-x="744" 
d="M62 689h202v-424q0 -69 30 -100.5t80 -31.5q105 0 105 132v424h202v-403q0 -299 -310 -299q-147 0 -228 69.5t-81 228.5v404zM189 887h123q10 -50 60 -50q51 0 60 50h122q-9 -62 -52.5 -107t-131.5 -45q-47 0 -82.5 14t-55.5 37.5t-30.5 48.5t-12.5 52z" />
    <glyph glyph-name="ubreve" unicode="&#x16d;" horiz-adv-x="620" 
d="M564 524v-357q0 -117 1 -167h-191q0 1 -4 55q-47 -68 -145 -68q-84 0 -128 49.5t-44 143.5v344h195v-312q0 -81 57 -81q35 0 50 23t15 80v290h194zM134 730h127q11 -43 48 -43q16 0 26.5 7t14 14.5t7.5 21.5h126q-9 -66 -50 -110.5t-126 -44.5q-86 0 -127.5 45t-45.5 110
z" />
    <glyph glyph-name="Uring" unicode="&#x16e;" horiz-adv-x="744" 
d="M62 689h202v-424q0 -69 30 -100.5t80 -31.5q105 0 105 132v424h202v-403q0 -299 -310 -299q-147 0 -228 69.5t-81 228.5v404zM373 723q-63 0 -98 28t-35 75t34.5 76t98.5 29q63 0 97 -28t34 -76q0 -49 -35 -76.5t-96 -27.5zM371 792q44 0 44 34q0 37 -43 37t-43 -36
q0 -15 10.5 -25t31.5 -10z" />
    <glyph glyph-name="uring" unicode="&#x16f;" horiz-adv-x="620" 
d="M564 524v-357q0 -117 1 -167h-191q0 1 -4 55q-47 -68 -145 -68q-84 0 -128 49.5t-44 143.5v344h195v-312q0 -81 57 -81q35 0 50 23t15 80v290h194zM310 571q-63 0 -98 28t-35 75t34.5 76t98.5 29q63 0 97 -28t34 -76q0 -49 -35 -76.5t-96 -27.5zM308 640q44 0 44 34
q0 37 -43 37t-43 -36q0 -15 10 -25t32 -10z" />
    <glyph glyph-name="Uhungarumlaut" unicode="&#x170;" horiz-adv-x="744" 
d="M62 689h202v-424q0 -69 30 -100.5t80 -31.5q105 0 105 132v424h202v-403q0 -299 -310 -299q-147 0 -228 69.5t-81 228.5v404zM280 876h177l-153 -136h-138zM510 876h176l-152 -136h-138z" />
    <glyph glyph-name="uhungarumlaut" unicode="&#x171;" horiz-adv-x="620" 
d="M564 524v-357q0 -117 1 -167h-191q0 1 -4 55q-47 -68 -145 -68q-84 0 -128 49.5t-44 143.5v344h195v-312q0 -81 57 -81q35 0 50 23t15 80v290h194zM247 579h-129l96 147h169zM467 579h-129l97 147h167z" />
    <glyph glyph-name="Uogonek" unicode="&#x172;" horiz-adv-x="744" 
d="M62 689h202v-424q0 -69 30 -100.5t80 -31.5q105 0 105 132v424h202v-403q0 -227 -179 -282q-46 -35 -46 -69q0 -38 51 -38q25 0 40 4v-116q-37 -18 -108 -18q-64 0 -102 30.5t-38 87.5t43 103q-280 12 -280 297v404z" />
    <glyph glyph-name="uogonek" unicode="&#x173;" horiz-adv-x="620" 
d="M564 524v-357q0 -117 1 -167h-25q-48 -36 -48 -70q0 -38 51 -38q25 0 40 4v-116q-37 -18 -108 -18q-64 0 -102 30.5t-38 87.5q0 70 61 120h-22q0 1 -4 55q-47 -68 -145 -68q-84 0 -128 49.5t-44 143.5v344h195v-312q0 -81 57 -81q35 0 50 23t15 80v290h194z" />
    <glyph glyph-name="Wcircumflex" unicode="&#x174;" horiz-adv-x="968" 
d="M382 0h-206l-166 689h212q60 -335 71 -487h3q13 67 30 146.5t40.5 185.5t34.5 155h180q7 -33 31.5 -142t41 -190t27.5 -147h3q10 85 44.5 279t35.5 200h194l-175 -689h-206q-12 58 -47 211.5t-49 227.5h-2q-9 -49 -97 -439zM394 877h188l118 -137h-160l-53 63l-52 -63
h-163z" />
    <glyph glyph-name="wcircumflex" unicode="&#x175;" horiz-adv-x="846" 
d="M7 524h207q48 -282 58 -366h4q31 206 65 366h180q50 -257 61 -365h3q27 183 63 365h191l-150 -524h-211q-40 220 -54 325h-3q-9 -84 -59 -325h-210zM343 725h162l116 -147h-155l-44 63l-41 -63h-157z" />
    <glyph glyph-name="Ycircumflex" unicode="&#x176;" horiz-adv-x="658" 
d="M429 0h-203v239q0 15 -7 26l-235 424h228q78 -172 125 -288q17 45 126 288h211l-239 -423q-6 -12 -6 -26v-240zM241 879h188l118 -137h-160l-53 63l-52 -63h-163z" />
    <glyph glyph-name="ycircumflex" unicode="&#x177;" horiz-adv-x="560" 
d="M-3 524h212q68 -266 79 -356h4q22 133 76 356h192l-156 -494q-22 -69 -40 -108t-47.5 -70t-70 -42.5t-102.5 -11.5q-33 0 -81 5v139q3 0 16.5 -1t20.5 -1q35 0 54.5 11.5t29.5 40.5zM200 725h162l116 -147h-155l-44 63l-41 -63h-157z" />
    <glyph glyph-name="Ydieresis" unicode="&#x178;" horiz-adv-x="658" 
d="M429 0h-203v239q0 15 -7 26l-235 424h228q78 -172 125 -288q17 45 126 288h211l-239 -423q-6 -12 -6 -26v-240zM301 746h-149v141h149v-141zM515 746h-148v141h148v-141z" />
    <glyph glyph-name="Zacute" unicode="&#x179;" horiz-adv-x="642" 
d="M27 0v126l343 413h-327v150h558v-143l-325 -396h348l-22 -150h-575zM355 878h223l-192 -136h-165z" />
    <glyph glyph-name="zacute" unicode="&#x17a;" horiz-adv-x="520" 
d="M28 0v127q4 5 110.5 124t124.5 138h-224v135h441v-132q-105 -123 -226 -257h248l-24 -135h-450zM292 736h208l-176 -150h-152z" />
    <glyph glyph-name="Zdotaccent" unicode="&#x17b;" horiz-adv-x="642" 
d="M27 0v126l343 413h-327v150h558v-143l-325 -396h348l-22 -150h-575zM406 749h-172v140h172v-140z" />
    <glyph glyph-name="zdotaccent" unicode="&#x17c;" horiz-adv-x="520" 
d="M28 0v127q4 5 110.5 124t124.5 138h-224v135h441v-132q-105 -123 -226 -257h248l-24 -135h-450zM346 588h-172v140h172v-140z" />
    <glyph glyph-name="Zcaron" unicode="&#x17d;" horiz-adv-x="642" 
d="M27 0v126l343 413h-327v150h558v-143l-325 -396h348l-22 -150h-575zM407 744h-175l-126 137h162l53 -62l52 62h161z" />
    <glyph glyph-name="zcaron" unicode="&#x17e;" horiz-adv-x="520" 
d="M28 0v127q4 5 110.5 124t124.5 138h-224v135h441v-132q-105 -123 -226 -257h248l-24 -135h-450zM337 578h-158l-118 147h152l47 -64l44 64h154z" />
    <glyph glyph-name="uni018F" unicode="&#x18f;" horiz-adv-x="748" 
d="M707 349q0 -103 -35.5 -182.5t-114 -129t-192.5 -49.5q-92 0 -158.5 30t-102 81t-51.5 107t-16 119q0 36 3 63h464q-4 170 -139 170q-97 0 -130 -81h-190q24 95 106 159t220 64q164 0 250.5 -98.5t85.5 -252.5zM500 265h-261q2 -63 35.5 -99t92.5 -36q118 0 133 135z" />
    <glyph glyph-name="florin" unicode="&#x192;" horiz-adv-x="558" 
d="M547 675l-27 -128q-27 9 -51 9q-49 0 -61 -79l-7 -48h95v-118h-112l-30 -202q-7 -47 -19.5 -83t-35.5 -68.5t-62.5 -50t-94.5 -17.5q-74 0 -117 23l27 136q27 -11 56 -11q24 0 34.5 18.5t19.5 70.5l29 184h-78v118h97l4 26q35 240 223 240q76 0 110 -20z" />
    <glyph glyph-name="Ohorn" unicode="&#x1a0;" horiz-adv-x="777" 
d="M394 702q115 0 198 -55q25 13 25 41q0 33 -11 66h153q10 -31 10 -69q0 -44 -21.5 -80t-64.5 -53q54 -88 54 -207q0 -155 -92 -256.5t-261 -101.5q-166 0 -255 101t-89 256t93.5 256.5t260.5 101.5zM388 556q-140 0 -140 -209q0 -99 35 -156.5t107 -57.5q140 0 140 210
q0 213 -142 213z" />
    <glyph glyph-name="ohorn" unicode="&#x1a1;" horiz-adv-x="623" 
d="M316 537q91 0 157 -41q22 13 22 39q0 33 -11 66h153q10 -31 10 -69q0 -99 -86 -133q30 -59 30 -136q0 -125 -74 -200.5t-207 -75.5q-134 0 -206 77t-72 197q0 123 73.5 199.5t210.5 76.5zM312 405q-81 0 -81 -143q0 -144 82 -144q79 0 79 142q0 79 -19.5 112t-60.5 33z
" />
    <glyph glyph-name="Uhorn" unicode="&#x1af;" horiz-adv-x="744" 
d="M62 689h202v-424q0 -69 30 -100.5t80 -31.5q105 0 105 132v424h138q22 13 22 39q0 33 -11 66h153q10 -31 10 -69q0 -51 -27.5 -89t-82.5 -51v-299q0 -299 -310 -299q-147 0 -228 69.5t-81 228.5v404z" />
    <glyph glyph-name="uhorn" unicode="&#x1b0;" horiz-adv-x="620" 
d="M370 55q-47 -68 -145 -68q-84 0 -128 49.5t-44 143.5v344h195v-312q0 -81 57 -81q35 0 50 23t15 80v290h86q44 6 44 46q0 33 -11 66h153q10 -31 10 -69q0 -99 -88 -134v-266q0 -117 1 -167h-191q0 1 -4 55z" />
    <glyph glyph-name="uni01CD" unicode="&#x1cd;" horiz-adv-x="715" 
d="M457 134h-216l-40 -134h-196l218 689h261l226 -689h-211zM275 284h147q-55 184 -74 271h-3q-15 -69 -70 -271zM443 740h-175l-126 137h162l53 -62l52 62h161z" />
    <glyph glyph-name="uni01CE" unicode="&#x1ce;" horiz-adv-x="596" 
d="M540 344v-189q0 -119 6 -155h-180q-5 14 -8 48q-48 -61 -148 -61q-85 0 -133 47t-48 120q0 177 259 177h64v29q0 28 -13 43t-46 15q-31 0 -43.5 -13t-16.5 -41h-180q14 174 245 173q127 -1 184.5 -49t57.5 -144zM352 217v16h-43q-89 0 -89 -63q0 -24 14.5 -39.5
t42.5 -15.5q45 0 60 26t15 76zM377 579h-158l-118 147h152l47 -64l44 64h154z" />
    <glyph glyph-name="uni01CF" unicode="&#x1cf;" horiz-adv-x="345" 
d="M71 689h203v-689h-203v689zM258 740h-175l-126 137h162l53 -62l52 62h161z" />
    <glyph glyph-name="uni01D0" unicode="&#x1d0;" horiz-adv-x="306" 
d="M55 0v524h195v-524h-195zM230 578h-158l-118 147h152l47 -64l44 64h154z" />
    <glyph glyph-name="uni01D1" unicode="&#x1d1;" horiz-adv-x="777" 
d="M394 702q159 0 251 -99.5t92 -257.5q0 -155 -92 -256.5t-261 -101.5q-166 0 -255 101t-89 256t93.5 256.5t260.5 101.5zM388 556q-140 0 -140 -209q0 -99 35 -156.5t107 -57.5q140 0 140 210q0 213 -142 213zM475 746h-175l-126 137h162l53 -62l52 62h161z" />
    <glyph glyph-name="uni01D2" unicode="&#x1d2;" horiz-adv-x="623" 
d="M316 537q127 0 201 -76t74 -198q0 -125 -74 -200.5t-207 -75.5q-134 0 -206 77t-72 197q0 123 73.5 199.5t210.5 76.5zM312 405q-81 0 -81 -143q0 -144 82 -144q79 0 79 142q0 79 -19.5 112t-60.5 33zM388 581h-158l-118 147h152l47 -64l44 64h154z" />
    <glyph glyph-name="uni01D3" unicode="&#x1d3;" horiz-adv-x="744" 
d="M62 689h202v-424q0 -69 30 -100.5t80 -31.5q105 0 105 132v424h202v-403q0 -299 -310 -299q-147 0 -228 69.5t-81 228.5v404zM458 740h-175l-126 137h162l53 -62l52 62h161z" />
    <glyph glyph-name="uni01D4" unicode="&#x1d4;" horiz-adv-x="620" 
d="M564 524v-357q0 -117 1 -167h-191q0 1 -4 55q-47 -68 -145 -68q-84 0 -128 49.5t-44 143.5v344h195v-312q0 -81 57 -81q35 0 50 23t15 80v290h194zM386 578h-158l-118 147h152l47 -64l44 64h154z" />
    <glyph glyph-name="uni01D5" unicode="&#x1d5;" horiz-adv-x="744" 
d="M62 689h202v-424q0 -69 30 -100.5t80 -31.5q105 0 105 132v424h202v-403q0 -299 -310 -299q-147 0 -228 69.5t-81 228.5v404zM337 740h-140v114h140v-114zM527 897h-312v98h312v-98zM547 740h-141v114h141v-114z" />
    <glyph glyph-name="uni01D6" unicode="&#x1d6;" horiz-adv-x="620" 
d="M564 524v-357q0 -117 1 -167h-191q0 1 -4 55q-47 -68 -145 -68q-84 0 -128 49.5t-44 143.5v344h195v-312q0 -81 57 -81q35 0 50 23t15 80v290h194zM272 573h-136v114h136v-114zM465 733h-313v95h313v-95zM483 573h-137v114h137v-114z" />
    <glyph glyph-name="uni01D7" unicode="&#x1d7;" horiz-adv-x="744" 
d="M62 689h202v-424q0 -69 30 -100.5t80 -31.5q105 0 105 132v424h202v-403q0 -299 -310 -299q-147 0 -228 69.5t-81 228.5v404zM193 853h141v-115h-141v115zM287 884l102 108h210l-157 -108h-155zM550 738h-140v115h140v-115z" />
    <glyph glyph-name="uni01D8" unicode="&#x1d8;" horiz-adv-x="620" 
d="M564 524v-357q0 -117 1 -167h-191q0 1 -4 55q-47 -68 -145 -68q-84 0 -128 49.5t-44 143.5v344h195v-312q0 -81 57 -81q35 0 50 23t15 80v290h194zM132 687h140v-114h-140v114zM379 718h-156l105 110h207zM486 573h-140v114h140v-114z" />
    <glyph glyph-name="uni01D9" unicode="&#x1d9;" horiz-adv-x="744" 
d="M62 689h202v-424q0 -69 30 -100.5t80 -31.5q105 0 105 132v424h202v-403q0 -299 -310 -299q-147 0 -228 69.5t-81 228.5v404zM456 882h-174l-100 113h144l44 -50l44 50h147zM334 737h-141v115h141v-115zM550 737h-140v115h140v-115z" />
    <glyph glyph-name="uni01DA" unicode="&#x1da;" horiz-adv-x="620" 
d="M564 524v-357q0 -117 1 -167h-191q0 1 -4 55q-47 -68 -145 -68q-84 0 -128 49.5t-44 143.5v344h195v-312q0 -81 57 -81q35 0 50 23t15 80v290h194zM391 711h-166l-104 114h145l43 -53l42 53h147zM272 567h-140v114h140v-114zM486 567h-140v114h140v-114z" />
    <glyph glyph-name="uni01DB" unicode="&#x1db;" horiz-adv-x="744" 
d="M62 689h202v-424q0 -69 30 -100.5t80 -31.5q105 0 105 132v424h202v-403q0 -299 -310 -299q-147 0 -228 69.5t-81 228.5v404zM193 853h141v-114h-141v114zM454 885h-154l-161 108h204zM550 739h-140v114h140v-114z" />
    <glyph glyph-name="uni01DC" unicode="&#x1dc;" horiz-adv-x="620" 
d="M564 524v-357q0 -117 1 -167h-191q0 1 -4 55q-47 -68 -145 -68q-84 0 -128 49.5t-44 143.5v344h195v-312q0 -81 57 -81q35 0 50 23t15 80v290h194zM132 681h140v-114h-140v114zM84 822h208l102 -110h-150zM486 567h-140v114h140v-114z" />
    <glyph glyph-name="Gcaron" unicode="&#x1e6;" horiz-adv-x="767" 
d="M707 395v-395h-135q-8 27 -13 63q-58 -77 -201 -77q-152 0 -235 99.5t-83 250.5q0 164 92.5 265t260.5 101q144 0 224.5 -67t91.5 -158h-200q-23 82 -117 82q-144 0 -144 -216q0 -59 12 -104.5t46 -77.5t87 -32q47 0 75.5 22t36 46t7.5 52v5h-126v141h321zM469 744h-175
l-126 137h162l53 -62l52 62h161z" />
    <glyph glyph-name="gcaron" unicode="&#x1e7;" horiz-adv-x="632" 
d="M578 374v-296q0 -138 -62 -209t-219 -71q-60 0 -106.5 12.5t-72.5 30.5t-43 43t-23 45t-8 41h192q12 -47 68 -47q49 0 65.5 29t16.5 97v28q-45 -66 -141 -66q-100 0 -156.5 71t-56.5 180q0 122 63 198.5t162 76.5q57 0 89 -19t40 -42q1 10 5 48h189q-2 -80 -2 -150z
M232 271q0 -59 21 -92t58 -33q47 0 64 31.5t17 95.5q0 69 -15 99.5t-63 30.5q-37 0 -59.5 -32t-22.5 -100zM400 581h-158l-118 147h152l47 -64l44 64h154z" />
    <glyph glyph-name="uni0218" unicode="&#x218;" horiz-adv-x="668" 
d="M26 209h196q17 -86 119 -86q89 0 89 62q0 33 -28 50.5t-111 37.5q-142 34 -193 86t-51 130q0 93 70 153t207 60q139 0 211 -60t79 -150h-195q-10 74 -96 74q-74 0 -74 -54q0 -28 25.5 -43t105.5 -35q148 -37 201.5 -91.5t53.5 -136.5q0 -100 -77.5 -159.5t-224.5 -59.5
q-139 0 -217 59.5t-90 162.5zM342 -260h-141q50 102 61 207h169q-7 -51 -33 -113t-56 -94z" />
    <glyph glyph-name="uni0219" unicode="&#x219;" horiz-adv-x="554" 
d="M26 162h180q12 -52 79 -52q55 0 55 36q0 19 -19 28.5t-73 21.5q-66 15 -108.5 33.5t-63 42t-28 46t-7.5 53.5q0 67 55 116.5t178 49.5q117 0 175 -48.5t62 -113.5h-174q-10 46 -68 46q-48 0 -48 -33q0 -15 19.5 -24.5t82.5 -23.5q118 -27 160.5 -69t42.5 -109
q0 -77 -60.5 -126t-186.5 -49q-120 0 -182.5 49t-70.5 126zM292 -256h-141q50 102 61 207h169q-7 -51 -33 -113t-56 -94z" />
    <glyph glyph-name="uni021A" unicode="&#x21a;" horiz-adv-x="617" 
d="M209 0v539h-197v150h594v-150h-195v-539h-202zM306 -256h-141q50 102 61 207h169q-7 -51 -33 -113t-56 -94z" />
    <glyph glyph-name="uni021B" unicode="&#x21b;" horiz-adv-x="399" 
d="M13 393v131h75v136h193v-136h92v-131h-92v-225q0 -25 10.5 -35t40.5 -10q17 0 28 1v-120q-37 -12 -114 -12q-88 0 -123.5 40t-35.5 119v242h-74zM214 -256h-141q50 102 61 207h169q-7 -51 -33 -113t-56 -94z" />
    <glyph glyph-name="uni0237" unicode="&#x237;" horiz-adv-x="307" 
d="M57 524h194v-487q0 -64 -7.5 -104.5t-28.5 -73t-62 -47t-105 -14.5q-23 0 -55 2v140h14q27 0 38.5 13t11.5 46v525z" />
    <glyph glyph-name="uni0251" unicode="&#x251;" horiz-adv-x="639" 
d="M386 524h195v-360q0 -101 7 -164h-176q-2 10 -4.5 30t-3.5 26q-44 -69 -154 -69q-103 0 -160.5 77t-57.5 195q0 122 64 200t170 78q44 0 76.5 -13t43.5 -33v33zM232 264q0 -140 81 -140t81 139q0 67 -16 102.5t-61 35.5q-39 0 -62 -34.5t-23 -102.5z" />
    <glyph glyph-name="uni0259" unicode="&#x259;" horiz-adv-x="595" 
d="M25 300h341q0 45 -19 75.5t-59 30.5q-32 0 -46 -11.5t-23 -35.5h-191q8 31 24 58t44.5 56.5t79 46.5t116.5 17q71 0 125 -22.5t84.5 -62t45.5 -86t15 -100.5q0 -126 -68.5 -202.5t-205.5 -76.5q-73 0 -126.5 23t-82.5 63t-42.5 85t-13.5 97q0 31 2 45zM364 199h-146
q2 -91 71 -91q70 0 75 91z" />
    <glyph glyph-name="uni0261" unicode="&#x261;" horiz-adv-x="632" 
d="M578 374v-296q0 -138 -62 -209t-219 -71q-60 0 -106.5 12.5t-72.5 30.5t-43 43t-23 45t-8 41h192q12 -47 68 -47q49 0 65.5 29t16.5 97v28q-45 -66 -141 -66q-100 0 -156.5 71t-56.5 180q0 122 63 198.5t162 76.5q57 0 89 -19t40 -42q1 10 5 48h189q-2 -80 -2 -150z
M232 271q0 -59 21 -92t58 -33q47 0 64 31.5t17 95.5q0 69 -15 99.5t-63 30.5q-37 0 -59.5 -32t-22.5 -100z" />
    <glyph glyph-name="uni02BB" unicode="&#x2bb;" horiz-adv-x="422" 
d="M185 724h137q-41 -157 -42 -307h-180q5 76 28 161t57 146z" />
    <glyph glyph-name="uni02BC" unicode="&#x2bc;" horiz-adv-x="422" 
d="M237 417h-137q41 159 42 307h180q-6 -78 -28.5 -161.5t-56.5 -145.5z" />
    <glyph glyph-name="uni02BE" unicode="&#x2be;" horiz-adv-x="337" 
d="M101 636q38 3 38 32t-39 32v75q61 0 99 -27.5t38 -78.5q0 -52 -38.5 -79t-97.5 -27v73z" />
    <glyph glyph-name="uni02BF" unicode="&#x2bf;" horiz-adv-x="337" 
d="M236 638v-75q-60 0 -98 27.5t-38 78.5q0 52 38.5 79t97.5 27v-73q-39 -3 -39 -32q0 -30 39 -32z" />
    <glyph glyph-name="circumflex" unicode="&#x2c6;" 
d="M120 725h162l116 -147h-155l-44 63l-41 -63h-157z" />
    <glyph glyph-name="caron" unicode="&#x2c7;" 
d="M277 578h-158l-118 147h152l47 -64l44 64h154z" />
    <glyph glyph-name="uni02C8" unicode="&#x2c8;" horiz-adv-x="340" 
d="M240 546h-140v201h140v-201z" />
    <glyph glyph-name="uni02C9" unicode="&#x2c9;" horiz-adv-x="522" 
d="M100 715h321v-122h-321v122z" />
    <glyph glyph-name="uni02CA" unicode="&#x2ca;" horiz-adv-x="513" 
d="M235 736h208l-176 -150h-152z" />
    <glyph glyph-name="uni02CB" unicode="&#x2cb;" horiz-adv-x="515" 
d="M69 736h210l121 -150h-153z" />
    <glyph glyph-name="uni02CC" unicode="&#x2cc;" horiz-adv-x="340" 
d="M240 -254h-140v201h140v-201z" />
    <glyph glyph-name="breve" unicode="&#x2d8;" 
d="M25 730h127q11 -43 48 -43q16 0 26.5 7t14 14.5t7.5 21.5h126q-9 -66 -50 -110.5t-126 -44.5q-86 0 -127.5 45t-45.5 110z" />
    <glyph glyph-name="dotaccent" unicode="&#x2d9;" 
d="M286 588h-172v140h172v-140z" />
    <glyph glyph-name="ring" unicode="&#x2da;" 
d="M201 571q-63 0 -98 28t-35 75t34.5 76t98.5 29q63 0 97 -28t34 -76q0 -49 -35 -76.5t-96 -27.5zM199 640q44 0 44 34q0 37 -43 37t-43 -36q0 -15 10.5 -25t31.5 -10z" />
    <glyph glyph-name="ogonek" unicode="&#x2db;" 
d="M151 7l140 -3q-53 -37 -53 -74q0 -38 51 -38q25 0 40 4v-116q-37 -18 -108 -18q-64 0 -102 30.5t-38 87.5q0 75 70 127z" />
    <glyph glyph-name="tilde" unicode="&#x2dc;" 
d="M125 581h-108v33q0 67 27 92.5t74 25.5q34 0 80 -18.5t58 -18.5q20 0 20 27v11h106v-25q0 -76 -28.5 -103.5t-75.5 -27.5q-34 0 -78.5 18t-55.5 18q-19 0 -19 -19v-13z" />
    <glyph glyph-name="hungarumlaut" unicode="&#x2dd;" 
d="M138 579h-129l96 147h169zM358 579h-129l97 147h167z" />
    <glyph glyph-name="uni0300" unicode="&#x300;" horiz-adv-x="0" 
d="M-186 736h210l121 -150h-153z" />
    <glyph glyph-name="uni0301" unicode="&#x301;" horiz-adv-x="0" 
d="M-25 736h208l-176 -150h-152z" />
    <glyph glyph-name="uni0302" unicode="&#x302;" horiz-adv-x="0" 
d="M-80 725h162l116 -147h-155l-44 63l-41 -63h-157z" />
    <glyph glyph-name="uni0303" unicode="&#x303;" horiz-adv-x="0" 
d="M-75 581h-108v33q0 67 27 92.5t74 25.5q34 0 80 -18.5t58 -18.5q20 0 20 27v11h106v-25q0 -76 -28.5 -103.5t-75.5 -27.5q-34 0 -78.5 18t-55.5 18q-19 0 -19 -19v-13z" />
    <glyph glyph-name="uni0304" unicode="&#x304;" horiz-adv-x="0" 
d="M-161 715h321v-122h-321v122z" />
    <glyph glyph-name="uni0306" unicode="&#x306;" horiz-adv-x="0" 
d="M-175 730h127q11 -43 48 -43q16 0 26.5 7t14 14.5t7.5 21.5h126q-9 -66 -50 -110.5t-126 -44.5q-86 0 -127.5 45t-45.5 110z" />
    <glyph glyph-name="uni0307" unicode="&#x307;" horiz-adv-x="0" 
d="M86 588h-172v140h172v-140z" />
    <glyph glyph-name="uni0308" unicode="&#x308;" horiz-adv-x="0" 
d="M-33 588h-149v140h149v-140zM182 588h-149v140h149v-140z" />
    <glyph glyph-name="uni0309" unicode="&#x309;" horiz-adv-x="0" 
d="M64 581h-129q39 40 39 66q0 24 -29 24q-25 0 -49 -12l-32 92q54 32 128 32q60 0 94 -27t34 -71q0 -59 -56 -104z" />
    <glyph glyph-name="uni030A" unicode="&#x30a;" horiz-adv-x="0" 
d="M1 571q-63 0 -98 28t-35 75t34.5 76t98.5 29q63 0 97 -28t34 -76q0 -49 -35 -76.5t-96 -27.5zM-1 640q44 0 44 34q0 37 -43 37t-43 -36q0 -15 10.5 -25t31.5 -10z" />
    <glyph glyph-name="uni030B" unicode="&#x30b;" horiz-adv-x="0" 
d="M-103 579h-129l96 147h169zM117 579h-129l97 147h167z" />
    <glyph glyph-name="uni030C" unicode="&#x30c;" horiz-adv-x="0" 
d="M77 578h-158l-118 147h152l47 -64l44 64h154z" />
    <glyph glyph-name="uni031B" unicode="&#x31b;" horiz-adv-x="0" 
d="M-47 447l-49 103q44 6 44 46q0 33 -11 66h153q10 -31 10 -69q0 -59 -37 -100t-110 -46z" />
    <glyph glyph-name="uni0323" unicode="&#x323;" horiz-adv-x="0" 
d="M92 -215h-184v161h184v-161z" />
    <glyph glyph-name="uni0324" unicode="&#x324;" horiz-adv-x="0" 
d="M-33 -211h-149v140h149v-140zM182 -211h-149v140h149v-140z" />
    <glyph glyph-name="uni0326" unicode="&#x326;" horiz-adv-x="0" 
d="M15 -256h-141q50 102 61 207h169q-7 -51 -33 -113t-56 -94z" />
    <glyph glyph-name="uni0327" unicode="&#x327;" horiz-adv-x="0" 
d="M-31 8l109 -6l-43 -42q88 -21 88 -95q0 -59 -45 -83t-104 -24q-58 0 -83 9v83q30 -5 49 -5q34 0 34 22q0 26 -70 29l-1 43z" />
    <glyph glyph-name="uni0328" unicode="&#x328;" horiz-adv-x="0" 
d="M-64 7l140 -3q-53 -37 -53 -74q0 -38 51 -38q25 0 40 4v-116q-37 -18 -108 -18q-64 0 -102 30.5t-38 87.5q0 75 70 127z" />
    <glyph glyph-name="uni032E" unicode="&#x32e;" horiz-adv-x="0" 
d="M-175 -49h127q11 -43 48 -43q16 0 26.5 7t14 14.5t7.5 21.5h126q-9 -66 -50 -110.5t-126 -44.5q-86 0 -127.5 45t-45.5 110z" />
    <glyph glyph-name="uni0331" unicode="&#x331;" horiz-adv-x="0" 
d="M-161 -68h321v-122h-321v122z" />
    <glyph glyph-name="pi" unicode="&#x3c0;" horiz-adv-x="629" 
d="M367 0v392h-109v-392h-190v392q-43 0 -71 -4l1 129q35 7 148 7h478v-132h-67v-392h-190z" />
    <glyph glyph-name="uni1E0C" unicode="&#x1e0c;" horiz-adv-x="754" 
d="M71 0v689h296q161 0 253.5 -93t92.5 -244q0 -155 -92.5 -253.5t-256.5 -98.5h-293zM273 543v-397h78q154 0 154 206q0 191 -152 191h-80zM438 -216h-184v161h184v-161z" />
    <glyph glyph-name="uni1E0D" unicode="&#x1e0d;" horiz-adv-x="635" 
d="M386 724h195v-566q0 -113 1 -158h-189q-3 17 -6 50q-43 -63 -143 -63t-156 76t-56 196q0 122 62.5 200t170.5 78q45 0 77.5 -12.5t43.5 -31.5v231zM232 264q0 -140 81 -140q27 0 44 11t24.5 32.5t10 42.5t2.5 53q0 74 -14.5 106t-63.5 32q-84 0 -84 -137zM412 -215h-184
v161h184v-161z" />
    <glyph glyph-name="uni1E0E" unicode="&#x1e0e;" horiz-adv-x="754" 
d="M71 0v689h296q161 0 253.5 -93t92.5 -244q0 -155 -92.5 -253.5t-256.5 -98.5h-293zM273 543v-397h78q154 0 154 206q0 191 -152 191h-80zM187 -68h321v-122h-321v122z" />
    <glyph glyph-name="uni1E0F" unicode="&#x1e0f;" horiz-adv-x="635" 
d="M386 724h195v-566q0 -113 1 -158h-189q-3 17 -6 50q-43 -63 -143 -63t-156 76t-56 196q0 122 62.5 200t170.5 78q45 0 77.5 -12.5t43.5 -31.5v231zM232 264q0 -140 81 -140q27 0 44 11t24.5 32.5t10 42.5t2.5 53q0 74 -14.5 106t-63.5 32q-84 0 -84 -137zM160 -68h321
v-122h-321v122z" />
    <glyph glyph-name="uni1E20" unicode="&#x1e20;" horiz-adv-x="767" 
d="M707 395v-395h-135q-8 27 -13 63q-58 -77 -201 -77q-152 0 -235 99.5t-83 250.5q0 164 92.5 265t260.5 101q144 0 224.5 -67t91.5 -158h-200q-23 82 -117 82q-144 0 -144 -216q0 -59 12 -104.5t46 -77.5t87 -32q47 0 75.5 22t36 46t7.5 52v5h-126v141h321zM219 870h328
v-116h-328v116z" />
    <glyph glyph-name="uni1E21" unicode="&#x1e21;" horiz-adv-x="632" 
d="M578 374v-296q0 -138 -62 -209t-219 -71q-60 0 -106.5 12.5t-72.5 30.5t-43 43t-23 45t-8 41h192q12 -47 68 -47q49 0 65.5 29t16.5 97v28q-45 -66 -141 -66q-100 0 -156.5 71t-56.5 180q0 122 63 198.5t162 76.5q57 0 89 -19t40 -42q1 10 5 48h189q-2 -80 -2 -150z
M232 271q0 -59 21 -92t58 -33q47 0 64 31.5t17 95.5q0 69 -15 99.5t-63 30.5q-37 0 -59.5 -32t-22.5 -100zM158 715h321v-122h-321v122z" />
    <glyph glyph-name="uni1E24" unicode="&#x1e24;" horiz-adv-x="758" 
d="M71 0v689h203v-258h210v258h203v-689h-203v282h-210v-282h-203zM471 -215h-184v161h184v-161z" />
    <glyph glyph-name="uni1E25" unicode="&#x1e25;" horiz-adv-x="626" 
d="M55 724h195v-255q55 68 148 68q82 0 127.5 -51t45.5 -147v-339h-194v316q0 78 -60 78q-41 0 -54 -27.5t-13 -82.5v-284h-195v724zM405 -215h-184v161h184v-161z" />
    <glyph glyph-name="uni1E2A" unicode="&#x1e2a;" horiz-adv-x="758" 
d="M71 0v689h203v-258h210v258h203v-689h-203v282h-210v-282h-203zM204 -49h127q11 -43 48 -43q16 0 26.5 7t14 14.5t7.5 21.5h126q-9 -66 -50 -110.5t-126 -44.5q-86 0 -127.5 45t-45.5 110z" />
    <glyph glyph-name="uni1E2B" unicode="&#x1e2b;" horiz-adv-x="626" 
d="M55 724h195v-255q55 68 148 68q82 0 127.5 -51t45.5 -147v-339h-194v316q0 78 -60 78q-41 0 -54 -27.5t-13 -82.5v-284h-195v724zM138 -49h127q11 -43 48 -43q16 0 26.5 7t14 14.5t7.5 21.5h126q-9 -66 -50 -110.5t-126 -44.5q-86 0 -127.5 45t-45.5 110z" />
    <glyph glyph-name="uni1E36" unicode="&#x1e36;" horiz-adv-x="608" 
d="M71 0v689h203v-539h324l-22 -150h-505zM422 -215h-184v161h184v-161z" />
    <glyph glyph-name="uni1E37" unicode="&#x1e37;" horiz-adv-x="306" 
d="M250 0h-195v724h195v-724zM245 -215h-184v161h184v-161z" />
    <glyph glyph-name="uni1E38" unicode="&#x1e38;" horiz-adv-x="608" 
d="M71 0v689h203v-539h324l-22 -150h-505zM422 -215h-184v161h184v-161zM10 863h328v-116h-328v116z" />
    <glyph glyph-name="uni1E39" unicode="&#x1e39;" horiz-adv-x="306" 
d="M250 0h-195v724h195v-724zM-8 897h321v-122h-321v122zM245 -215h-184v161h184v-161z" />
    <glyph glyph-name="uni1E3A" unicode="&#x1e3a;" horiz-adv-x="608" 
d="M71 0v689h203v-539h324l-22 -150h-505zM166 -68h321v-122h-321v122z" />
    <glyph glyph-name="uni1E3B" unicode="&#x1e3b;" horiz-adv-x="306" 
d="M250 0h-195v724h195v-724zM-8 -68h321v-122h-321v122z" />
    <glyph glyph-name="uni1E42" unicode="&#x1e42;" horiz-adv-x="911" 
d="M646 0v225q0 164 6 328h-6q-40 -211 -125 -553h-162q-14 68 -38.5 186t-42.5 208.5t-30 158.5h-7q10 -135 10 -334v-219h-180v689h291q55 -225 89 -444h3q22 138 104 444h282v-689h-194zM533 -215h-184v161h184v-161z" />
    <glyph glyph-name="uni1E43" unicode="&#x1e43;" horiz-adv-x="914" 
d="M55 0v381q0 99 -1 143h187q4 -27 6 -56q56 69 148 69q96 0 133 -72q64 72 161 72q77 0 123.5 -49.5t46.5 -146.5v-341h-190v324q0 71 -55 71q-32 0 -46 -21.5t-14 -67.5v-306h-192v322q0 72 -53 72q-33 0 -47 -21t-14 -71v-302h-193zM549 -215h-184v161h184v-161z" />
    <glyph glyph-name="uni1E44" unicode="&#x1e44;" horiz-adv-x="768" 
d="M256 0h-185v689h242q20 -43 74 -156t86.5 -184.5t45.5 -109.5h4q-10 90 -10 303v147h184v-689h-230q-8 18 -68 144.5t-96.5 207.5t-51.5 122h-2q7 -76 7 -319v-155zM473 743h-172v140h172v-140z" />
    <glyph glyph-name="uni1E45" unicode="&#x1e45;" horiz-adv-x="625" 
d="M56 0v388q0 95 -1 136h190q3 -14 6 -58q47 71 149 71q80 0 125.5 -52t45.5 -147v-338h-194v315q0 40 -13.5 59.5t-46.5 19.5t-49.5 -21t-16.5 -74v-299h-195zM398 591h-172v140h172v-140z" />
    <glyph glyph-name="uni1E46" unicode="&#x1e46;" horiz-adv-x="768" 
d="M256 0h-185v689h242q20 -43 74 -156t86.5 -184.5t45.5 -109.5h4q-10 90 -10 303v147h184v-689h-230q-8 18 -68 144.5t-96.5 207.5t-51.5 122h-2q7 -76 7 -319v-155zM476 -215h-184v161h184v-161z" />
    <glyph glyph-name="uni1E47" unicode="&#x1e47;" horiz-adv-x="625" 
d="M56 0v388q0 95 -1 136h190q3 -14 6 -58q47 71 149 71q80 0 125.5 -52t45.5 -147v-338h-194v315q0 40 -13.5 59.5t-46.5 19.5t-49.5 -21t-16.5 -74v-299h-195zM404 -215h-184v161h184v-161z" />
    <glyph glyph-name="uni1E48" unicode="&#x1e48;" horiz-adv-x="768" 
d="M256 0h-185v689h242q20 -43 74 -156t86.5 -184.5t45.5 -109.5h4q-10 90 -10 303v147h184v-689h-230q-8 18 -68 144.5t-96.5 207.5t-51.5 122h-2q7 -76 7 -319v-155zM223 -68h321v-122h-321v122z" />
    <glyph glyph-name="uni1E49" unicode="&#x1e49;" horiz-adv-x="625" 
d="M56 0v388q0 95 -1 136h190q3 -14 6 -58q47 71 149 71q80 0 125.5 -52t45.5 -147v-338h-194v315q0 40 -13.5 59.5t-46.5 19.5t-49.5 -21t-16.5 -74v-299h-195zM151 -68h321v-122h-321v122z" />
    <glyph glyph-name="uni1E5A" unicode="&#x1e5a;" horiz-adv-x="691" 
d="M338 260h-71v-260h-196v689h341q117 0 179 -54t62 -137q0 -65 -30.5 -105.5t-72.5 -57.5q89 -31 89 -178v-29q0 -89 9 -128h-192q-14 38 -14 150v18q0 49 -20.5 70.5t-83.5 21.5zM267 548v-147h94q91 0 91 74q0 73 -91 73h-94zM444 -215h-184v161h184v-161z" />
    <glyph glyph-name="uni1E5B" unicode="&#x1e5b;" horiz-adv-x="430" 
d="M55 0v374q0 104 -1 150h190q5 -27 5 -85q17 42 57.5 69.5t103.5 28.5v-178q-87 4 -123.5 -25.5t-36.5 -118.5v-215h-195zM245 -215h-184v161h184v-161z" />
    <glyph glyph-name="uni1E5C" unicode="&#x1e5c;" horiz-adv-x="691" 
d="M338 260h-71v-260h-196v689h341q117 0 179 -54t62 -137q0 -65 -30.5 -105.5t-72.5 -57.5q89 -31 89 -178v-29q0 -89 9 -128h-192q-14 38 -14 150v18q0 49 -20.5 70.5t-83.5 21.5zM267 548v-147h94q91 0 91 74q0 73 -91 73h-94zM444 -215h-184v161h184v-161zM181 866h328
v-116h-328v116z" />
    <glyph glyph-name="uni1E5D" unicode="&#x1e5d;" horiz-adv-x="430" 
d="M55 0v374q0 104 -1 150h190q5 -27 5 -85q17 42 57.5 69.5t103.5 28.5v-178q-87 4 -123.5 -25.5t-36.5 -118.5v-215h-195zM67 715h321v-122h-321v122zM245 -215h-184v161h184v-161z" />
    <glyph glyph-name="uni1E5E" unicode="&#x1e5e;" horiz-adv-x="691" 
d="M338 260h-71v-260h-196v689h341q117 0 179 -54t62 -137q0 -65 -30.5 -105.5t-72.5 -57.5q89 -31 89 -178v-29q0 -89 9 -128h-192q-14 38 -14 150v18q0 49 -20.5 70.5t-83.5 21.5zM267 548v-147h94q91 0 91 74q0 73 -91 73h-94zM191 -68h321v-122h-321v122z" />
    <glyph glyph-name="uni1E5F" unicode="&#x1e5f;" horiz-adv-x="430" 
d="M55 0v374q0 104 -1 150h190q5 -27 5 -85q17 42 57.5 69.5t103.5 28.5v-178q-87 4 -123.5 -25.5t-36.5 -118.5v-215h-195zM7 -68h321v-122h-321v122z" />
    <glyph glyph-name="uni1E60" unicode="&#x1e60;" horiz-adv-x="668" 
d="M26 209h196q17 -86 119 -86q89 0 89 62q0 33 -28 50.5t-111 37.5q-142 34 -193 86t-51 130q0 93 70 153t207 60q139 0 211 -60t79 -150h-195q-10 74 -96 74q-74 0 -74 -54q0 -28 25.5 -43t105.5 -35q148 -37 201.5 -91.5t53.5 -136.5q0 -100 -77.5 -159.5t-224.5 -59.5
q-139 0 -217 59.5t-90 162.5zM419 753h-172v140h172v-140z" />
    <glyph glyph-name="uni1E61" unicode="&#x1e61;" horiz-adv-x="554" 
d="M26 162h180q12 -52 79 -52q55 0 55 36q0 19 -19 28.5t-73 21.5q-66 15 -108.5 33.5t-63 42t-28 46t-7.5 53.5q0 67 55 116.5t178 49.5q117 0 175 -48.5t62 -113.5h-174q-10 46 -68 46q-48 0 -48 -33q0 -15 19.5 -24.5t82.5 -23.5q118 -27 160.5 -69t42.5 -109
q0 -77 -60.5 -126t-186.5 -49q-120 0 -182.5 49t-70.5 126zM363 591h-172v140h172v-140z" />
    <glyph glyph-name="uni1E62" unicode="&#x1e62;" horiz-adv-x="668" 
d="M26 209h196q17 -86 119 -86q89 0 89 62q0 33 -28 50.5t-111 37.5q-142 34 -193 86t-51 130q0 93 70 153t207 60q139 0 211 -60t79 -150h-195q-10 74 -96 74q-74 0 -74 -54q0 -28 25.5 -43t105.5 -35q148 -37 201.5 -91.5t53.5 -136.5q0 -100 -77.5 -159.5t-224.5 -59.5
q-139 0 -217 59.5t-90 162.5zM426 -219h-184v161h184v-161z" />
    <glyph glyph-name="uni1E63" unicode="&#x1e63;" horiz-adv-x="554" 
d="M26 162h180q12 -52 79 -52q55 0 55 36q0 19 -19 28.5t-73 21.5q-66 15 -108.5 33.5t-63 42t-28 46t-7.5 53.5q0 67 55 116.5t178 49.5q117 0 175 -48.5t62 -113.5h-174q-10 46 -68 46q-48 0 -48 -33q0 -15 19.5 -24.5t82.5 -23.5q118 -27 160.5 -69t42.5 -109
q0 -77 -60.5 -126t-186.5 -49q-120 0 -182.5 49t-70.5 126zM369 -215h-184v161h184v-161z" />
    <glyph glyph-name="uni1E6C" unicode="&#x1e6c;" horiz-adv-x="617" 
d="M209 0v539h-197v150h594v-150h-195v-539h-202zM400 -215h-184v161h184v-161z" />
    <glyph glyph-name="uni1E6D" unicode="&#x1e6d;" horiz-adv-x="399" 
d="M13 393v131h75v136h193v-136h92v-131h-92v-225q0 -25 10.5 -35t40.5 -10q17 0 28 1v-120q-37 -12 -114 -12q-88 0 -123.5 40t-35.5 119v242h-74zM307 -215h-184v161h184v-161z" />
    <glyph glyph-name="uni1E6E" unicode="&#x1e6e;" horiz-adv-x="617" 
d="M209 0v539h-197v150h594v-150h-195v-539h-202zM147 -68h321v-122h-321v122z" />
    <glyph glyph-name="uni1E6F" unicode="&#x1e6f;" horiz-adv-x="399" 
d="M13 393v131h75v136h193v-136h92v-131h-92v-225q0 -25 10.5 -35t40.5 -10q17 0 28 1v-120q-37 -12 -114 -12q-88 0 -123.5 40t-35.5 119v242h-74zM58 -68h321v-122h-321v122z" />
    <glyph glyph-name="Wgrave" unicode="&#x1e80;" horiz-adv-x="968" 
d="M382 0h-206l-166 689h212q60 -335 71 -487h3q13 67 30 146.5t40.5 185.5t34.5 155h180q7 -33 31.5 -142t41 -190t27.5 -147h3q10 85 44.5 279t35.5 200h194l-175 -689h-206q-12 58 -47 211.5t-49 227.5h-2q-9 -49 -97 -439zM228 878h225l124 -136h-164z" />
    <glyph glyph-name="wgrave" unicode="&#x1e81;" horiz-adv-x="846" 
d="M7 524h207q48 -282 58 -366h4q31 206 65 366h180q50 -257 61 -365h3q27 183 63 365h191l-150 -524h-211q-40 220 -54 325h-3q-9 -84 -59 -325h-210zM180 736h210l121 -150h-153z" />
    <glyph glyph-name="Wacute" unicode="&#x1e82;" horiz-adv-x="968" 
d="M382 0h-206l-166 689h212q60 -335 71 -487h3q13 67 30 146.5t40.5 185.5t34.5 155h180q7 -33 31.5 -142t41 -190t27.5 -147h3q10 85 44.5 279t35.5 200h194l-175 -689h-206q-12 58 -47 211.5t-49 227.5h-2q-9 -49 -97 -439zM536 878h223l-192 -136h-165z" />
    <glyph glyph-name="wacute" unicode="&#x1e83;" horiz-adv-x="846" 
d="M7 524h207q48 -282 58 -366h4q31 206 65 366h180q50 -257 61 -365h3q27 183 63 365h191l-150 -524h-211q-40 220 -54 325h-3q-9 -84 -59 -325h-210zM466 736h208l-176 -150h-152z" />
    <glyph glyph-name="Wdieresis" unicode="&#x1e84;" horiz-adv-x="968" 
d="M382 0h-206l-166 689h212q60 -335 71 -487h3q13 67 30 146.5t40.5 185.5t34.5 155h180q7 -33 31.5 -142t41 -190t27.5 -147h3q10 85 44.5 279t35.5 200h194l-175 -689h-206q-12 58 -47 211.5t-49 227.5h-2q-9 -49 -97 -439zM456 746h-149v141h149v-141zM670 746h-148v141
h148v-141z" />
    <glyph glyph-name="wdieresis" unicode="&#x1e85;" horiz-adv-x="846" 
d="M7 524h207q48 -282 58 -366h4q31 206 65 366h180q50 -257 61 -365h3q27 183 63 365h191l-150 -524h-211q-40 220 -54 325h-3q-9 -84 -59 -325h-210zM390 588h-149v140h149v-140zM605 588h-149v140h149v-140z" />
    <glyph glyph-name="uni1E8E" unicode="&#x1e8e;" horiz-adv-x="658" 
d="M429 0h-203v239q0 15 -7 26l-235 424h228q78 -172 125 -288q17 45 126 288h211l-239 -423q-6 -12 -6 -26v-240zM417 742h-172v140h172v-140z" />
    <glyph glyph-name="uni1E8F" unicode="&#x1e8f;" horiz-adv-x="560" 
d="M-3 524h212q68 -266 79 -356h4q22 133 76 356h192l-156 -494q-22 -69 -40 -108t-47.5 -70t-70 -42.5t-102.5 -11.5q-33 0 -81 5v139q3 0 16.5 -1t20.5 -1q35 0 54.5 11.5t29.5 40.5zM366 588h-172v140h172v-140z" />
    <glyph glyph-name="uni1E92" unicode="&#x1e92;" horiz-adv-x="642" 
d="M27 0v126l343 413h-327v150h558v-143l-325 -396h348l-22 -150h-575zM413 -215h-184v161h184v-161z" />
    <glyph glyph-name="uni1E93" unicode="&#x1e93;" horiz-adv-x="520" 
d="M28 0v127q4 5 110.5 124t124.5 138h-224v135h441v-132q-105 -123 -226 -257h248l-24 -135h-450zM352 -215h-184v161h184v-161z" />
    <glyph glyph-name="uni1E97" unicode="&#x1e97;" horiz-adv-x="399" 
d="M13 393v131h75v136h193v-136h92v-131h-92v-225q0 -25 10.5 -35t40.5 -10q17 0 28 1v-120q-37 -12 -114 -12q-88 0 -123.5 40t-35.5 119v242h-74zM152 704h-149v140h149v-140zM367 704h-149v140h149v-140z" />
    <glyph glyph-name="uni1E9E" unicode="&#x1e9e;" horiz-adv-x="729" 
d="M275 475v-475h-204v501q0 201 293 201q86 0 149 -17.5t95 -47t46.5 -60t14.5 -63.5q0 -24 -2 -34l-129 -78v-5l44 -29q70 -45 97 -89t27 -98q0 -88 -59 -139.5t-173 -51.5q-108 0 -162 39v148q64 -55 145 -54q60 0 60 41q0 19 -14.5 34t-61.5 43l-71 43q-50 30 -49 77.5
t51 78.5l94 59q0 71 -95 71q-47 0 -71.5 -21t-24.5 -74z" />
    <glyph glyph-name="uni1EA0" unicode="&#x1ea0;" horiz-adv-x="715" 
d="M457 134h-216l-40 -134h-196l218 689h261l226 -689h-211zM275 284h147q-55 184 -74 271h-3q-15 -69 -70 -271zM449 -215h-184v161h184v-161z" />
    <glyph glyph-name="uni1EA1" unicode="&#x1ea1;" horiz-adv-x="596" 
d="M540 344v-189q0 -119 6 -155h-180q-5 14 -8 48q-48 -61 -148 -61q-85 0 -133 47t-48 120q0 177 259 177h64v29q0 28 -13 43t-46 15q-31 0 -43.5 -13t-16.5 -41h-180q14 174 245 173q127 -1 184.5 -49t57.5 -144zM352 217v16h-43q-89 0 -89 -63q0 -24 14.5 -39.5
t42.5 -15.5q45 0 60 26t15 76zM392 -215h-184v161h184v-161z" />
    <glyph glyph-name="uni1EA2" unicode="&#x1ea2;" horiz-adv-x="715" 
d="M457 134h-216l-40 -134h-196l218 689h261l226 -689h-211zM275 284h147q-55 184 -74 271h-3q-15 -69 -70 -271zM421 741h-129q39 40 39 66q0 24 -29 24q-25 0 -49 -12l-32 92q54 32 128 32q60 0 94 -27t34 -71q0 -59 -56 -104z" />
    <glyph glyph-name="uni1EA3" unicode="&#x1ea3;" horiz-adv-x="596" 
d="M540 344v-189q0 -119 6 -155h-180q-5 14 -8 48q-48 -61 -148 -61q-85 0 -133 47t-48 120q0 177 259 177h64v29q0 28 -13 43t-46 15q-31 0 -43.5 -13t-16.5 -41h-180q14 174 245 173q127 -1 184.5 -49t57.5 -144zM352 217v16h-43q-89 0 -89 -63q0 -24 14.5 -39.5
t42.5 -15.5q45 0 60 26t15 76zM364 581h-129q39 40 39 66q0 24 -29 24q-25 0 -49 -12l-32 92q54 32 128 32q60 0 94 -27t34 -71q0 -59 -56 -104z" />
    <glyph glyph-name="uni1EA4" unicode="&#x1ea4;" horiz-adv-x="715" 
d="M457 134h-216l-40 -134h-196l218 689h261l226 -689h-211zM275 284h147q-55 184 -74 271h-3q-15 -69 -70 -271zM271 874h168l132 -134h-161l-53 58l-53 -58h-161zM614 956h177l-150 -122h-126z" />
    <glyph glyph-name="uni1EA5" unicode="&#x1ea5;" horiz-adv-x="596" 
d="M540 344v-189q0 -119 6 -155h-180q-5 14 -8 48q-48 -61 -148 -61q-85 0 -133 47t-48 120q0 177 259 177h64v29q0 28 -13 43t-46 15q-31 0 -43.5 -13t-16.5 -41h-180q14 174 245 173q127 -1 184.5 -49t57.5 -144zM352 217v16h-43q-89 0 -89 -63q0 -24 14.5 -39.5
t42.5 -15.5q45 0 60 26t15 76zM217 709h167l103 -132h-143l-45 59l-44 -59h-143zM528 811h164l-138 -128h-121z" />
    <glyph glyph-name="uni1EA6" unicode="&#x1ea6;" horiz-adv-x="715" 
d="M457 134h-216l-40 -134h-196l218 689h261l226 -689h-211zM275 284h147q-55 184 -74 271h-3q-15 -69 -70 -271zM271 874h168l132 -134h-161l-53 58l-53 -58h-161zM432 952h176l94 -117h-119z" />
    <glyph glyph-name="uni1EA7" unicode="&#x1ea7;" horiz-adv-x="596" 
d="M540 344v-189q0 -119 6 -155h-180q-5 14 -8 48q-48 -61 -148 -61q-85 0 -133 47t-48 120q0 177 259 177h64v29q0 28 -13 43t-46 15q-31 0 -43.5 -13t-16.5 -41h-180q14 174 245 173q127 -1 184.5 -49t57.5 -144zM352 217v16h-43q-89 0 -89 -63q0 -24 14.5 -39.5
t42.5 -15.5q45 0 60 26t15 76zM217 709h167l103 -132h-143l-45 59l-44 -59h-143zM361 808h163l103 -130h-123z" />
    <glyph glyph-name="uni1EA8" unicode="&#x1ea8;" horiz-adv-x="715" 
d="M457 134h-216l-40 -134h-196l218 689h261l226 -689h-211zM275 284h147q-55 184 -74 271h-3q-15 -69 -70 -271zM631 835h-114q38 31 38 61q0 19 -26 19q-22 0 -45 -14l-26 75q46 35 114 35q50 0 77.5 -23t27.5 -63q0 -53 -46 -90zM269 874h172l130 -134h-161l-53 59
l-53 -59h-161z" />
    <glyph glyph-name="uni1EA9" unicode="&#x1ea9;" horiz-adv-x="596" 
d="M540 344v-189q0 -119 6 -155h-180q-5 14 -8 48q-48 -61 -148 -61q-85 0 -133 47t-48 120q0 177 259 177h64v29q0 28 -13 43t-46 15q-31 0 -43.5 -13t-16.5 -41h-180q14 174 245 173q127 -1 184.5 -49t57.5 -144zM352 217v16h-43q-89 0 -89 -63q0 -24 14.5 -39.5
t42.5 -15.5q45 0 60 26t15 76zM557 680h-114q43 33 43 57q0 19 -23 19q-24 0 -43 -12l-24 76q44 29 107 29q50 0 76 -21.5t26 -60.5q0 -56 -48 -87zM217 709h167l103 -132h-143l-45 59l-44 -59h-143z" />
    <glyph glyph-name="uni1EAA" unicode="&#x1eaa;" horiz-adv-x="715" 
d="M457 134h-216l-40 -134h-196l218 689h261l226 -689h-211zM275 284h147q-55 184 -74 271h-3q-15 -69 -70 -271zM269 867h-99v13q0 105 100 105q38 0 88 -14t66 -14q22 0 22 19v8h98v-13q0 -105 -99 -105q-34 0 -87 13t-68 13q-21 0 -21 -20v-5zM260 837h194l112 -105h-164
l-47 43l-44 -43h-165z" />
    <glyph glyph-name="uni1EAB" unicode="&#x1eab;" horiz-adv-x="596" 
d="M540 344v-189q0 -119 6 -155h-180q-5 14 -8 48q-48 -61 -148 -61q-85 0 -133 47t-48 120q0 177 259 177h64v29q0 28 -13 43t-46 15q-31 0 -43.5 -13t-16.5 -41h-180q14 174 245 173q127 -1 184.5 -49t57.5 -144zM352 217v16h-43q-89 0 -89 -63q0 -24 14.5 -39.5
t42.5 -15.5q45 0 60 26t15 76zM226 722h-100v13q0 105 96 105q36 0 78.5 -14t52.5 -14q22 0 22 19v7h98v-13q0 -57 -28 -81t-71 -24q-31 0 -73 13.5t-54 13.5q-21 0 -21 -20v-5zM207 686h185l113 -111h-160l-49 47l-44 -47h-157z" />
    <glyph glyph-name="uni1EAC" unicode="&#x1eac;" horiz-adv-x="715" 
d="M457 134h-216l-40 -134h-196l218 689h261l226 -689h-211zM275 284h147q-55 184 -74 271h-3q-15 -69 -70 -271zM449 -213h-184v161h184v-161zM264 872h188l118 -137h-160l-53 63l-52 -63h-163z" />
    <glyph glyph-name="uni1EAD" unicode="&#x1ead;" horiz-adv-x="596" 
d="M540 344v-189q0 -119 6 -155h-180q-5 14 -8 48q-48 -61 -148 -61q-85 0 -133 47t-48 120q0 177 259 177h64v29q0 28 -13 43t-46 15q-31 0 -43.5 -13t-16.5 -41h-180q14 174 245 173q127 -1 184.5 -49t57.5 -144zM352 217v16h-43q-89 0 -89 -63q0 -24 14.5 -39.5
t42.5 -15.5q45 0 60 26t15 76zM396 -215h-184v161h184v-161zM220 725h162l116 -147h-155l-44 63l-41 -63h-157z" />
    <glyph glyph-name="uni1EAE" unicode="&#x1eae;" horiz-adv-x="715" 
d="M457 134h-216l-40 -134h-196l218 689h261l226 -689h-211zM275 284h147q-55 184 -74 271h-3q-15 -69 -70 -271zM172 869h121q15 -40 64 -40q51 0 65 40h123q-12 -56 -55.5 -97t-133.5 -41t-133 42t-51 96zM382 995h203l-161 -98h-147z" />
    <glyph glyph-name="uni1EAF" unicode="&#x1eaf;" horiz-adv-x="596" 
d="M540 344v-189q0 -119 6 -155h-180q-5 14 -8 48q-48 -61 -148 -61q-85 0 -133 47t-48 120q0 177 259 177h64v29q0 28 -13 43t-46 15q-31 0 -43.5 -13t-16.5 -41h-180q14 174 245 173q127 -1 184.5 -49t57.5 -144zM352 217v16h-43q-89 0 -89 -63q0 -24 14.5 -39.5
t42.5 -15.5q45 0 60 26t15 76zM119 713h119q12 -42 62 -42q49 0 61 42h120q-6 -35 -22.5 -63.5t-58 -51.5t-102.5 -23q-84 0 -127 41t-52 97zM328 842h186l-151 -103h-138z" />
    <glyph glyph-name="uni1EB0" unicode="&#x1eb0;" horiz-adv-x="715" 
d="M457 134h-216l-40 -134h-196l218 689h261l226 -689h-211zM275 284h147q-55 184 -74 271h-3q-15 -69 -70 -271zM172 869h121q15 -40 64 -40q51 0 65 40h123q-12 -56 -55.5 -97t-133.5 -41t-133 42t-51 96zM134 995h203l105 -98h-150z" />
    <glyph glyph-name="uni1EB1" unicode="&#x1eb1;" horiz-adv-x="596" 
d="M540 344v-189q0 -119 6 -155h-180q-5 14 -8 48q-48 -61 -148 -61q-85 0 -133 47t-48 120q0 177 259 177h64v29q0 28 -13 43t-46 15q-31 0 -43.5 -13t-16.5 -41h-180q14 174 245 173q127 -1 184.5 -49t57.5 -144zM352 217v16h-43q-89 0 -89 -63q0 -24 14.5 -39.5
t42.5 -15.5q45 0 60 26t15 76zM119 713h119q12 -42 62 -42q49 0 61 42h120q-6 -35 -22.5 -63.5t-58 -51.5t-102.5 -23q-84 0 -127 41t-52 97zM89 842h189l103 -103h-139z" />
    <glyph glyph-name="uni1EB2" unicode="&#x1eb2;" horiz-adv-x="715" 
d="M457 134h-216l-40 -134h-196l218 689h261l226 -689h-211zM275 284h147q-55 184 -74 271h-3q-15 -69 -70 -271zM412 890h-116q39 31 39 55q0 19 -25 19q-18 0 -43 -10l-27 74q43 30 113 30q51 0 79 -23t28 -62q0 -48 -48 -83zM172 869h121q15 -40 64 -40q47 0 65 40h122
q-37 -138 -188 -138q-90 0 -133 42.5t-51 95.5z" />
    <glyph glyph-name="uni1EB3" unicode="&#x1eb3;" horiz-adv-x="596" 
d="M540 344v-189q0 -119 6 -155h-180q-5 14 -8 48q-48 -61 -148 -61q-85 0 -133 47t-48 120q0 177 259 177h64v29q0 28 -13 43t-46 15q-31 0 -43.5 -13t-16.5 -41h-180q14 174 245 173q127 -1 184.5 -49t57.5 -144zM352 217v16h-43q-89 0 -89 -63q0 -24 14.5 -39.5
t42.5 -15.5q45 0 60 26t15 76zM349 735h-113q43 32 43 56q0 21 -25 21q-23 0 -42 -11l-24 74q44 30 109 30q52 0 79 -22t27 -62q0 -53 -54 -86zM119 713h119q12 -42 62 -42q49 0 61 42h120q-6 -35 -22.5 -63.5t-58 -51.5t-102.5 -23q-84 0 -127 41t-52 97z" />
    <glyph glyph-name="uni1EB4" unicode="&#x1eb4;" horiz-adv-x="715" 
d="M457 134h-216l-40 -134h-196l218 689h261l226 -689h-211zM275 284h147q-55 184 -74 271h-3q-15 -69 -70 -271zM270 882h-99v14q0 104 100 104q38 0 88 -14t66 -14q22 0 22 19v8h98v-13q0 -105 -99 -105q-34 0 -87 13t-68 13q-21 0 -21 -20v-5zM174 844h121q19 -32 62 -32
q47 0 61 32h122q-12 -49 -55 -82.5t-130 -33.5q-83 0 -127 34.5t-54 81.5z" />
    <glyph glyph-name="uni1EB5" unicode="&#x1eb5;" horiz-adv-x="596" 
d="M540 344v-189q0 -119 6 -155h-180q-5 14 -8 48q-48 -61 -148 -61q-85 0 -133 47t-48 120q0 177 259 177h64v29q0 28 -13 43t-46 15q-31 0 -43.5 -13t-16.5 -41h-180q14 174 245 173q127 -1 184.5 -49t57.5 -144zM352 217v16h-43q-89 0 -89 -63q0 -24 14.5 -39.5
t42.5 -15.5q45 0 60 26t15 76zM226 738h-99v14q0 104 95 104q36 0 79 -14t52 -14q22 0 22 19v8h98v-13q0 -105 -99 -105q-31 0 -73 13t-54 13q-21 0 -21 -19v-6zM132 700h113q17 -34 55 -34q43 0 55 34h114q-9 -52 -51 -88t-120 -36q-76 0 -118 36.5t-48 87.5z" />
    <glyph glyph-name="uni1EB6" unicode="&#x1eb6;" horiz-adv-x="715" 
d="M457 134h-216l-40 -134h-196l218 689h261l226 -689h-211zM275 284h147q-55 184 -74 271h-3q-15 -69 -70 -271zM449 -215h-184v161h184v-161zM174 887h123q10 -50 60 -50q51 0 60 50h122q-9 -62 -52.5 -107t-131.5 -45q-47 0 -82.5 14t-55.5 37.5t-30.5 48.5t-12.5 52z
" />
    <glyph glyph-name="uni1EB7" unicode="&#x1eb7;" horiz-adv-x="596" 
d="M540 344v-189q0 -119 6 -155h-180q-5 14 -8 48q-48 -61 -148 -61q-85 0 -133 47t-48 120q0 177 259 177h64v29q0 28 -13 43t-46 15q-31 0 -43.5 -13t-16.5 -41h-180q14 174 245 173q127 -1 184.5 -49t57.5 -144zM352 217v16h-43q-89 0 -89 -63q0 -24 14.5 -39.5
t42.5 -15.5q45 0 60 26t15 76zM125 730h127q11 -43 48 -43q16 0 26.5 7t14 14.5t7.5 21.5h126q-9 -66 -50 -110.5t-126 -44.5q-86 0 -127.5 45t-45.5 110zM408 -211h-184v161h184v-161z" />
    <glyph glyph-name="uni1EB8" unicode="&#x1eb8;" horiz-adv-x="638" 
d="M579 428v-149h-314v-129h351l-23 -150h-522v689h521v-150h-327v-111h314zM427 -215h-184v161h184v-161z" />
    <glyph glyph-name="uni1EB9" unicode="&#x1eb9;" horiz-adv-x="601" 
d="M569 224h-341q0 -45 19 -75.5t59 -30.5q32 0 46 11.5t23 35.5h191q-8 -31 -24 -58t-44.5 -56.5t-79 -46.5t-116.5 -17q-71 0 -125 22.5t-84.5 62t-45.5 86t-15 100.5q0 126 68.5 202.5t205.5 76.5q73 0 126.5 -23t82.5 -63t42.5 -85t13.5 -97q0 -31 -2 -45zM230 325h146
q-2 91 -71 91q-70 0 -75 -91zM399 -215h-184v161h184v-161z" />
    <glyph glyph-name="uni1EBA" unicode="&#x1eba;" horiz-adv-x="638" 
d="M579 428v-149h-314v-129h351l-23 -150h-522v689h521v-150h-327v-111h314zM405 741h-129q39 40 39 66q0 24 -29 24q-25 0 -49 -12l-32 92q54 32 128 32q60 0 94 -27t34 -71q0 -59 -56 -104z" />
    <glyph glyph-name="uni1EBB" unicode="&#x1ebb;" horiz-adv-x="601" 
d="M569 224h-341q0 -45 19 -75.5t59 -30.5q32 0 46 11.5t23 35.5h191q-8 -31 -24 -58t-44.5 -56.5t-79 -46.5t-116.5 -17q-71 0 -125 22.5t-84.5 62t-45.5 86t-15 100.5q0 126 68.5 202.5t205.5 76.5q73 0 126.5 -23t82.5 -63t42.5 -85t13.5 -97q0 -31 -2 -45zM230 325h146
q-2 91 -71 91q-70 0 -75 -91zM374 581h-129q39 40 39 66q0 24 -29 24q-25 0 -49 -12l-32 92q54 32 128 32q60 0 94 -27t34 -71q0 -59 -56 -104z" />
    <glyph glyph-name="uni1EBC" unicode="&#x1ebc;" horiz-adv-x="638" 
d="M579 428v-149h-314v-129h351l-23 -150h-522v689h521v-150h-327v-111h314zM257 749h-108v34q0 67 27.5 91.5t75.5 24.5q37 0 86.5 -20t61.5 -20q21 0 21 28v10h106v-23q0 -76 -28.5 -103.5t-79.5 -27.5q-31 0 -81.5 19t-61.5 19q-19 0 -19 -19v-13z" />
    <glyph glyph-name="uni1EBD" unicode="&#x1ebd;" horiz-adv-x="601" 
d="M569 224h-341q0 -45 19 -75.5t59 -30.5q32 0 46 11.5t23 35.5h191q-8 -31 -24 -58t-44.5 -56.5t-79 -46.5t-116.5 -17q-71 0 -125 22.5t-84.5 62t-45.5 86t-15 100.5q0 126 68.5 202.5t205.5 76.5q73 0 126.5 -23t82.5 -63t42.5 -85t13.5 -97q0 -31 -2 -45zM230 325h146
q-2 91 -71 91q-70 0 -75 -91zM229 585h-108v33q0 67 27 92.5t74 25.5q34 0 80 -18.5t58 -18.5q20 0 20 27v11h106v-25q0 -76 -28.5 -103.5t-75.5 -27.5q-34 0 -78.5 18t-55.5 18q-19 0 -19 -19v-13z" />
    <glyph glyph-name="uni1EBE" unicode="&#x1ebe;" horiz-adv-x="638" 
d="M579 428v-149h-314v-129h351l-23 -150h-522v689h521v-150h-327v-111h314zM248 878h168l132 -134h-161l-53 58l-53 -58h-161zM591 960h177l-150 -122h-126z" />
    <glyph glyph-name="uni1EBF" unicode="&#x1ebf;" horiz-adv-x="601" 
d="M569 224h-341q0 -45 19 -75.5t59 -30.5q32 0 46 11.5t23 35.5h191q-8 -31 -24 -58t-44.5 -56.5t-79 -46.5t-116.5 -17q-71 0 -125 22.5t-84.5 62t-45.5 86t-15 100.5q0 126 68.5 202.5t205.5 76.5q73 0 126.5 -23t82.5 -63t42.5 -85t13.5 -97q0 -31 -2 -45zM230 325h146
q-2 91 -71 91q-70 0 -75 -91zM217 709h167l103 -132h-143l-45 59l-44 -59h-143zM528 811h164l-138 -128h-121z" />
    <glyph glyph-name="uni1EC0" unicode="&#x1ec0;" horiz-adv-x="638" 
d="M579 428v-149h-314v-129h351l-23 -150h-522v689h521v-150h-327v-111h314zM248 878h168l132 -134h-161l-53 58l-53 -58h-161zM409 956h176l94 -117h-119z" />
    <glyph glyph-name="uni1EC1" unicode="&#x1ec1;" horiz-adv-x="601" 
d="M569 224h-341q0 -45 19 -75.5t59 -30.5q32 0 46 11.5t23 35.5h191q-8 -31 -24 -58t-44.5 -56.5t-79 -46.5t-116.5 -17q-71 0 -125 22.5t-84.5 62t-45.5 86t-15 100.5q0 126 68.5 202.5t205.5 76.5q73 0 126.5 -23t82.5 -63t42.5 -85t13.5 -97q0 -31 -2 -45zM230 325h146
q-2 91 -71 91q-70 0 -75 -91zM219 709h167l103 -132h-143l-45 59l-44 -59h-143zM363 808h163l103 -130h-123z" />
    <glyph glyph-name="uni1EC2" unicode="&#x1ec2;" horiz-adv-x="638" 
d="M579 428v-149h-314v-129h351l-23 -150h-522v689h521v-150h-327v-111h314zM607 839h-114q38 31 38 61q0 19 -26 19q-22 0 -45 -14l-26 75q46 35 114 35q50 0 77.5 -23t27.5 -63q0 -53 -46 -90zM245 878h172l130 -134h-161l-53 59l-53 -59h-161z" />
    <glyph glyph-name="uni1EC3" unicode="&#x1ec3;" horiz-adv-x="601" 
d="M569 224h-341q0 -45 19 -75.5t59 -30.5q32 0 46 11.5t23 35.5h191q-8 -31 -24 -58t-44.5 -56.5t-79 -46.5t-116.5 -17q-71 0 -125 22.5t-84.5 62t-45.5 86t-15 100.5q0 126 68.5 202.5t205.5 76.5q73 0 126.5 -23t82.5 -63t42.5 -85t13.5 -97q0 -31 -2 -45zM230 325h146
q-2 91 -71 91q-70 0 -75 -91zM557 680h-114q43 33 43 57q0 19 -23 19q-24 0 -43 -12l-24 76q44 29 107 29q50 0 76 -21.5t26 -60.5q0 -56 -48 -87zM217 709h167l103 -132h-143l-45 59l-44 -59h-143z" />
    <glyph glyph-name="uni1EC4" unicode="&#x1ec4;" horiz-adv-x="638" 
d="M579 428v-149h-314v-129h351l-23 -150h-522v689h521v-150h-327v-111h314zM246 871h-99v13q0 105 100 105q38 0 88 -14t66 -14q22 0 22 19v8h98v-13q0 -105 -99 -105q-34 0 -87 13t-68 13q-21 0 -21 -20v-5zM237 841h194l112 -105h-164l-47 43l-44 -43h-165z" />
    <glyph glyph-name="uni1EC5" unicode="&#x1ec5;" horiz-adv-x="601" 
d="M569 224h-341q0 -45 19 -75.5t59 -30.5q32 0 46 11.5t23 35.5h191q-8 -31 -24 -58t-44.5 -56.5t-79 -46.5t-116.5 -17q-71 0 -125 22.5t-84.5 62t-45.5 86t-15 100.5q0 126 68.5 202.5t205.5 76.5q73 0 126.5 -23t82.5 -63t42.5 -85t13.5 -97q0 -31 -2 -45zM230 325h146
q-2 91 -71 91q-70 0 -75 -91zM228 724h-100v13q0 105 96 105q36 0 78.5 -14t52.5 -14q22 0 22 19v7h98v-13q0 -57 -28 -81t-71 -24q-31 0 -73 13.5t-54 13.5q-21 0 -21 -20v-5zM209 688h185l113 -111h-160l-49 47l-44 -47h-157z" />
    <glyph glyph-name="uni1EC6" unicode="&#x1ec6;" horiz-adv-x="638" 
d="M579 428v-149h-314v-129h351l-23 -150h-522v689h521v-150h-327v-111h314zM430 -215h-184v161h184v-161zM239 877h188l118 -137h-160l-53 63l-52 -63h-163z" />
    <glyph glyph-name="uni1EC7" unicode="&#x1ec7;" horiz-adv-x="601" 
d="M569 224h-341q0 -45 19 -75.5t59 -30.5q32 0 46 11.5t23 35.5h191q-8 -31 -24 -58t-44.5 -56.5t-79 -46.5t-116.5 -17q-71 0 -125 22.5t-84.5 62t-45.5 86t-15 100.5q0 126 68.5 202.5t205.5 76.5q73 0 126.5 -23t82.5 -63t42.5 -85t13.5 -97q0 -31 -2 -45zM230 325h146
q-2 91 -71 91q-70 0 -75 -91zM399 -215h-184v161h184v-161zM227 725h162l116 -147h-155l-44 63l-41 -63h-157z" />
    <glyph glyph-name="uni1EC8" unicode="&#x1ec8;" horiz-adv-x="345" 
d="M71 689h203v-689h-203v689zM236 743h-129q39 40 39 66q0 24 -29 24q-25 0 -49 -12l-32 92q54 32 128 32q60 0 94 -27t34 -71q0 -59 -56 -104z" />
    <glyph glyph-name="uni1EC9" unicode="&#x1ec9;" horiz-adv-x="306" 
d="M55 0v524h195v-524h-195zM217 581h-129q39 40 39 66q0 24 -29 24q-25 0 -49 -12l-32 92q54 32 128 32q60 0 94 -27t34 -71q0 -59 -56 -104z" />
    <glyph glyph-name="uni1ECA" unicode="&#x1eca;" horiz-adv-x="345" 
d="M71 689h203v-689h-203v689zM264 -215h-184v161h184v-161z" />
    <glyph glyph-name="uni1ECB" unicode="&#x1ecb;" horiz-adv-x="306" 
d="M55 0v524h195v-524h-195zM250 589h-195v135h195v-135zM245 -215h-184v161h184v-161z" />
    <glyph glyph-name="uni1ECC" unicode="&#x1ecc;" horiz-adv-x="777" 
d="M394 702q159 0 251 -99.5t92 -257.5q0 -155 -92 -256.5t-261 -101.5q-166 0 -255 101t-89 256t93.5 256.5t260.5 101.5zM388 556q-140 0 -140 -209q0 -99 35 -156.5t107 -57.5q140 0 140 210q0 213 -142 213zM481 -229h-184v161h184v-161z" />
    <glyph glyph-name="uni1ECD" unicode="&#x1ecd;" horiz-adv-x="623" 
d="M316 537q127 0 201 -76t74 -198q0 -125 -74 -200.5t-207 -75.5q-134 0 -206 77t-72 197q0 123 73.5 199.5t210.5 76.5zM312 405q-81 0 -81 -143q0 -144 82 -144q79 0 79 142q0 79 -19.5 112t-60.5 33zM403 -221h-184v161h184v-161z" />
    <glyph glyph-name="uni1ECE" unicode="&#x1ece;" horiz-adv-x="777" 
d="M394 702q159 0 251 -99.5t92 -257.5q0 -155 -92 -256.5t-261 -101.5q-166 0 -255 101t-89 256t93.5 256.5t260.5 101.5zM388 556q-140 0 -140 -209q0 -99 35 -156.5t107 -57.5q140 0 140 210q0 213 -142 213zM453 746h-129q39 40 39 66q0 24 -29 24q-25 0 -49 -12l-32 92
q54 32 128 32q60 0 94 -27t34 -71q0 -59 -56 -104z" />
    <glyph glyph-name="uni1ECF" unicode="&#x1ecf;" horiz-adv-x="623" 
d="M316 537q127 0 201 -76t74 -198q0 -125 -74 -200.5t-207 -75.5q-134 0 -206 77t-72 197q0 123 73.5 199.5t210.5 76.5zM312 405q-81 0 -81 -143q0 -144 82 -144q79 0 79 142q0 79 -19.5 112t-60.5 33zM375 581h-129q39 40 39 66q0 24 -29 24q-25 0 -49 -12l-32 92
q54 32 128 32q60 0 94 -27t34 -71q0 -59 -56 -104z" />
    <glyph glyph-name="uni1ED0" unicode="&#x1ed0;" horiz-adv-x="777" 
d="M394 702q159 0 251 -99.5t92 -257.5q0 -155 -92 -256.5t-261 -101.5q-166 0 -255 101t-89 256t93.5 256.5t260.5 101.5zM388 556q-140 0 -140 -209q0 -99 35 -156.5t107 -57.5q140 0 140 210q0 213 -142 213zM303 878h168l132 -134h-161l-53 58l-53 -58h-161zM646 960
h177l-150 -122h-126z" />
    <glyph glyph-name="uni1ED1" unicode="&#x1ed1;" horiz-adv-x="623" 
d="M316 537q127 0 201 -76t74 -198q0 -125 -74 -200.5t-207 -75.5q-134 0 -206 77t-72 197q0 123 73.5 199.5t210.5 76.5zM312 405q-81 0 -81 -143q0 -144 82 -144q79 0 79 142q0 79 -19.5 112t-60.5 33zM228 709h167l103 -132h-143l-45 59l-44 -59h-143zM539 811h164
l-138 -128h-121z" />
    <glyph glyph-name="uni1ED2" unicode="&#x1ed2;" horiz-adv-x="777" 
d="M394 702q159 0 251 -99.5t92 -257.5q0 -155 -92 -256.5t-261 -101.5q-166 0 -255 101t-89 256t93.5 256.5t260.5 101.5zM388 556q-140 0 -140 -209q0 -99 35 -156.5t107 -57.5q140 0 140 210q0 213 -142 213zM303 878h168l132 -134h-161l-53 58l-53 -58h-161zM464 956
h176l94 -117h-119z" />
    <glyph glyph-name="uni1ED3" unicode="&#x1ed3;" horiz-adv-x="623" 
d="M316 537q127 0 201 -76t74 -198q0 -125 -74 -200.5t-207 -75.5q-134 0 -206 77t-72 197q0 123 73.5 199.5t210.5 76.5zM312 405q-81 0 -81 -143q0 -144 82 -144q79 0 79 142q0 79 -19.5 112t-60.5 33zM228 710h167l103 -132h-143l-45 59l-44 -59h-143zM372 809h163
l103 -130h-123z" />
    <glyph glyph-name="uni1ED4" unicode="&#x1ed4;" horiz-adv-x="777" 
d="M394 702q159 0 251 -99.5t92 -257.5q0 -155 -92 -256.5t-261 -101.5q-166 0 -255 101t-89 256t93.5 256.5t260.5 101.5zM388 556q-140 0 -140 -209q0 -99 35 -156.5t107 -57.5q140 0 140 210q0 213 -142 213zM663 839h-114q38 31 38 61q0 19 -26 19q-22 0 -45 -14l-26 75
q46 35 114 35q50 0 77.5 -23t27.5 -63q0 -53 -46 -90zM301 878h172l130 -134h-161l-53 59l-53 -59h-161z" />
    <glyph glyph-name="uni1ED5" unicode="&#x1ed5;" horiz-adv-x="623" 
d="M316 537q127 0 201 -76t74 -198q0 -125 -74 -200.5t-207 -75.5q-134 0 -206 77t-72 197q0 123 73.5 199.5t210.5 76.5zM312 405q-81 0 -81 -143q0 -144 82 -144q79 0 79 142q0 79 -19.5 112t-60.5 33zM568 682h-114q43 33 43 57q0 19 -23 19q-24 0 -43 -12l-24 76
q43 29 107 29q50 0 76 -21.5t26 -60.5q0 -56 -48 -87zM228 711h167l103 -132h-143l-45 59l-44 -59h-143z" />
    <glyph glyph-name="uni1ED6" unicode="&#x1ed6;" horiz-adv-x="777" 
d="M394 702q159 0 251 -99.5t92 -257.5q0 -155 -92 -256.5t-261 -101.5q-166 0 -255 101t-89 256t93.5 256.5t260.5 101.5zM388 556q-140 0 -140 -209q0 -99 35 -156.5t107 -57.5q140 0 140 210q0 213 -142 213zM301 874h-99v13q0 105 100 105q38 0 88 -14t66 -14
q22 0 22 19v8h98v-13q0 -105 -99 -105q-34 0 -87 13t-68 13q-21 0 -21 -20v-5zM292 844h194l112 -105h-164l-47 43l-44 -43h-165z" />
    <glyph glyph-name="uni1ED7" unicode="&#x1ed7;" horiz-adv-x="623" 
d="M316 537q127 0 201 -76t74 -198q0 -125 -74 -200.5t-207 -75.5q-134 0 -206 77t-72 197q0 123 73.5 199.5t210.5 76.5zM312 405q-81 0 -81 -143q0 -144 82 -144q79 0 79 142q0 79 -19.5 112t-60.5 33zM237 723h-100v13q0 105 96 105q36 0 78.5 -14t52.5 -14q22 0 22 19v7
h98v-13q0 -57 -28 -81t-71 -24q-31 0 -73 13.5t-54 13.5q-21 0 -21 -20v-5zM218 687h185l113 -111h-160l-49 47l-44 -47h-157z" />
    <glyph glyph-name="uni1ED8" unicode="&#x1ed8;" horiz-adv-x="777" 
d="M394 702q159 0 251 -99.5t92 -257.5q0 -155 -92 -256.5t-261 -101.5q-166 0 -255 101t-89 256t93.5 256.5t260.5 101.5zM388 556q-140 0 -140 -209q0 -99 35 -156.5t107 -57.5q140 0 140 210q0 213 -142 213zM481 -227h-184v161h184v-161zM296 878h188l118 -137h-160
l-53 63l-52 -63h-163z" />
    <glyph glyph-name="uni1ED9" unicode="&#x1ed9;" horiz-adv-x="623" 
d="M316 537q127 0 201 -76t74 -198q0 -125 -74 -200.5t-207 -75.5q-134 0 -206 77t-72 197q0 123 73.5 199.5t210.5 76.5zM312 405q-81 0 -81 -143q0 -144 82 -144q79 0 79 142q0 79 -19.5 112t-60.5 33zM403 -215h-184v161h184v-161zM231 725h162l116 -147h-155l-44 63
l-41 -63h-157z" />
    <glyph glyph-name="uni1EDA" unicode="&#x1eda;" horiz-adv-x="777" 
d="M394 702q115 0 198 -55q25 13 25 41q0 33 -11 66h153q10 -31 10 -69q0 -44 -21.5 -80t-64.5 -53q54 -88 54 -207q0 -155 -92 -256.5t-261 -101.5q-166 0 -255 101t-89 256t93.5 256.5t260.5 101.5zM388 556q-140 0 -140 -209q0 -99 35 -156.5t107 -57.5q140 0 140 210
q0 213 -142 213zM424 885h223l-192 -136h-165z" />
    <glyph glyph-name="uni1EDB" unicode="&#x1edb;" horiz-adv-x="623" 
d="M316 537q91 0 157 -41q22 13 22 39q0 33 -11 66h153q10 -31 10 -69q0 -99 -86 -133q30 -59 30 -136q0 -125 -74 -200.5t-207 -75.5q-134 0 -206 77t-72 197q0 123 73.5 199.5t210.5 76.5zM312 405q-81 0 -81 -143q0 -144 82 -144q79 0 79 142q0 79 -19.5 112t-60.5 33z
M340 740h208l-176 -150h-152z" />
    <glyph glyph-name="uni1EDC" unicode="&#x1edc;" horiz-adv-x="777" 
d="M394 702q115 0 198 -55q25 13 25 41q0 33 -11 66h153q10 -31 10 -69q0 -44 -21.5 -80t-64.5 -53q54 -88 54 -207q0 -155 -92 -256.5t-261 -101.5q-166 0 -255 101t-89 256t93.5 256.5t260.5 101.5zM388 556q-140 0 -140 -209q0 -99 35 -156.5t107 -57.5q140 0 140 210
q0 213 -142 213zM141 885h225l124 -136h-164z" />
    <glyph glyph-name="uni1EDD" unicode="&#x1edd;" horiz-adv-x="623" 
d="M316 537q91 0 157 -41q22 13 22 39q0 33 -11 66h153q10 -31 10 -69q0 -99 -86 -133q30 -59 30 -136q0 -125 -74 -200.5t-207 -75.5q-134 0 -206 77t-72 197q0 123 73.5 199.5t210.5 76.5zM312 405q-81 0 -81 -143q0 -144 82 -144q79 0 79 142q0 79 -19.5 112t-60.5 33z
M76 740h210l121 -150h-153z" />
    <glyph glyph-name="uni1EDE" unicode="&#x1ede;" horiz-adv-x="777" 
d="M394 702q115 0 198 -55q25 13 25 41q0 33 -11 66h153q10 -31 10 -69q0 -44 -21.5 -80t-64.5 -53q54 -88 54 -207q0 -155 -92 -256.5t-261 -101.5q-166 0 -255 101t-89 256t93.5 256.5t260.5 101.5zM388 556q-140 0 -140 -209q0 -99 35 -156.5t107 -57.5q140 0 140 210
q0 213 -142 213zM456 745h-129q39 40 39 66q0 24 -29 24q-25 0 -49 -12l-32 92q54 32 128 32q60 0 94 -27t34 -71q0 -59 -56 -104z" />
    <glyph glyph-name="uni1EDF" unicode="&#x1edf;" horiz-adv-x="623" 
d="M316 537q91 0 157 -41q22 13 22 39q0 33 -11 66h153q10 -31 10 -69q0 -99 -86 -133q30 -59 30 -136q0 -125 -74 -200.5t-207 -75.5q-134 0 -206 77t-72 197q0 123 73.5 199.5t210.5 76.5zM312 405q-81 0 -81 -143q0 -144 82 -144q79 0 79 142q0 79 -19.5 112t-60.5 33z
M375 581h-129q39 40 39 66q0 24 -29 24q-25 0 -49 -12l-32 92q54 32 128 32q60 0 94 -27t34 -71q0 -59 -56 -104z" />
    <glyph glyph-name="uni1EE0" unicode="&#x1ee0;" horiz-adv-x="777" 
d="M394 702q115 0 198 -55q25 13 25 41q0 33 -11 66h153q10 -31 10 -69q0 -44 -21.5 -80t-64.5 -53q54 -88 54 -207q0 -155 -92 -256.5t-261 -101.5q-166 0 -255 101t-89 256t93.5 256.5t260.5 101.5zM388 556q-140 0 -140 -209q0 -99 35 -156.5t107 -57.5q140 0 140 210
q0 213 -142 213zM308 754h-108v34q0 67 27.5 91.5t75.5 24.5q37 0 86.5 -20t61.5 -20q21 0 21 28v10h106v-23q0 -76 -28.5 -103.5t-79.5 -27.5q-31 0 -81.5 19t-61.5 19q-19 0 -19 -19v-13z" />
    <glyph glyph-name="uni1EE1" unicode="&#x1ee1;" horiz-adv-x="623" 
d="M316 537q91 0 157 -41q22 13 22 39q0 33 -11 66h153q10 -31 10 -69q0 -99 -86 -133q30 -59 30 -136q0 -125 -74 -200.5t-207 -75.5q-134 0 -206 77t-72 197q0 123 73.5 199.5t210.5 76.5zM312 405q-81 0 -81 -143q0 -144 82 -144q79 0 79 142q0 79 -19.5 112t-60.5 33z
M236 585h-108v33q0 67 27 92.5t74 25.5q34 0 80 -18.5t58 -18.5q20 0 20 27v11h106v-25q0 -76 -28.5 -103.5t-75.5 -27.5q-34 0 -78.5 18t-55.5 18q-19 0 -19 -19v-13z" />
    <glyph glyph-name="uni1EE2" unicode="&#x1ee2;" horiz-adv-x="777" 
d="M394 702q115 0 198 -55q25 13 25 41q0 33 -11 66h153q10 -31 10 -69q0 -44 -21.5 -80t-64.5 -53q54 -88 54 -207q0 -155 -92 -256.5t-261 -101.5q-166 0 -255 101t-89 256t93.5 256.5t260.5 101.5zM388 556q-140 0 -140 -209q0 -99 35 -156.5t107 -57.5q140 0 140 210
q0 213 -142 213zM481 -225h-184v161h184v-161z" />
    <glyph glyph-name="uni1EE3" unicode="&#x1ee3;" horiz-adv-x="623" 
d="M316 537q91 0 157 -41q22 13 22 39q0 33 -11 66h153q10 -31 10 -69q0 -99 -86 -133q30 -59 30 -136q0 -125 -74 -200.5t-207 -75.5q-134 0 -206 77t-72 197q0 123 73.5 199.5t210.5 76.5zM312 405q-81 0 -81 -143q0 -144 82 -144q79 0 79 142q0 79 -19.5 112t-60.5 33z
M403 -215h-184v161h184v-161z" />
    <glyph glyph-name="uni1EE4" unicode="&#x1ee4;" horiz-adv-x="744" 
d="M62 689h202v-424q0 -69 30 -100.5t80 -31.5q105 0 105 132v424h202v-403q0 -299 -310 -299q-147 0 -228 69.5t-81 228.5v404zM464 -222h-184v161h184v-161z" />
    <glyph glyph-name="uni1EE5" unicode="&#x1ee5;" horiz-adv-x="620" 
d="M564 524v-357q0 -117 1 -167h-191q0 1 -4 55q-47 -68 -145 -68q-84 0 -128 49.5t-44 143.5v344h195v-312q0 -81 57 -81q35 0 50 23t15 80v290h194zM401 -222h-184v161h184v-161z" />
    <glyph glyph-name="uni1EE6" unicode="&#x1ee6;" horiz-adv-x="744" 
d="M62 689h202v-424q0 -69 30 -100.5t80 -31.5q105 0 105 132v424h202v-403q0 -299 -310 -299q-147 0 -228 69.5t-81 228.5v404zM432 734h-129q39 40 39 66q0 24 -29 24q-25 0 -49 -12l-32 92q54 32 128 32q60 0 94 -27t34 -71q0 -59 -56 -104z" />
    <glyph glyph-name="uni1EE7" unicode="&#x1ee7;" horiz-adv-x="620" 
d="M564 524v-357q0 -117 1 -167h-191q0 1 -4 55q-47 -68 -145 -68q-84 0 -128 49.5t-44 143.5v344h195v-312q0 -81 57 -81q35 0 50 23t15 80v290h194zM373 579h-129q39 40 39 66q0 24 -29 24q-25 0 -49 -12l-32 92q54 32 128 32q60 0 94 -27t34 -71q0 -59 -56 -104z" />
    <glyph glyph-name="uni1EE8" unicode="&#x1ee8;" horiz-adv-x="744" 
d="M62 689h202v-424q0 -69 30 -100.5t80 -31.5q105 0 105 132v424h138q22 13 22 39q0 33 -11 66h153q10 -31 10 -69q0 -51 -27.5 -89t-82.5 -51v-299q0 -299 -310 -299q-147 0 -228 69.5t-81 228.5v404zM413 878h223l-192 -136h-165z" />
    <glyph glyph-name="uni1EE9" unicode="&#x1ee9;" horiz-adv-x="620" 
d="M370 55q-47 -68 -145 -68q-84 0 -128 49.5t-44 143.5v344h195v-312q0 -81 57 -81q35 0 50 23t15 80v290h86q44 6 44 46q0 33 -11 66h153q10 -31 10 -69q0 -99 -88 -134v-266q0 -117 1 -167h-191q0 1 -4 55zM335 736h208l-176 -150h-152z" />
    <glyph glyph-name="uni1EEA" unicode="&#x1eea;" horiz-adv-x="744" 
d="M62 689h202v-424q0 -69 30 -100.5t80 -31.5q105 0 105 132v424h138q22 13 22 39q0 33 -11 66h153q10 -31 10 -69q0 -51 -27.5 -89t-82.5 -51v-299q0 -299 -310 -299q-147 0 -228 69.5t-81 228.5v404zM119 871h225l124 -136h-164z" />
    <glyph glyph-name="uni1EEB" unicode="&#x1eeb;" horiz-adv-x="620" 
d="M370 55q-47 -68 -145 -68q-84 0 -128 49.5t-44 143.5v344h195v-312q0 -81 57 -81q35 0 50 23t15 80v290h86q44 6 44 46q0 33 -11 66h153q10 -31 10 -69q0 -99 -88 -134v-266q0 -117 1 -167h-191q0 1 -4 55zM76 736h210l121 -150h-153z" />
    <glyph glyph-name="uni1EEC" unicode="&#x1eec;" horiz-adv-x="744" 
d="M62 689h202v-424q0 -69 30 -100.5t80 -31.5q105 0 105 132v424h138q22 13 22 39q0 33 -11 66h153q10 -31 10 -69q0 -51 -27.5 -89t-82.5 -51v-299q0 -299 -310 -299q-147 0 -228 69.5t-81 228.5v404zM434 736h-129q39 40 39 66q0 24 -29 24q-25 0 -49 -12l-32 92
q54 32 128 32q60 0 94 -27t34 -71q0 -59 -56 -104z" />
    <glyph glyph-name="uni1EED" unicode="&#x1eed;" horiz-adv-x="620" 
d="M370 55q-47 -68 -145 -68q-84 0 -128 49.5t-44 143.5v344h195v-312q0 -81 57 -81q35 0 50 23t15 80v290h86q44 6 44 46q0 33 -11 66h153q10 -31 10 -69q0 -99 -88 -134v-266q0 -117 1 -167h-191q0 1 -4 55zM373 580h-129q39 40 39 66q0 24 -29 24q-25 0 -49 -12l-32 92
q54 32 128 32q60 0 94 -27t34 -71q0 -59 -56 -104z" />
    <glyph glyph-name="uni1EEE" unicode="&#x1eee;" horiz-adv-x="744" 
d="M62 689h202v-424q0 -69 30 -100.5t80 -31.5q105 0 105 132v424h138q22 13 22 39q0 33 -11 66h153q10 -31 10 -69q0 -51 -27.5 -89t-82.5 -51v-299q0 -299 -310 -299q-147 0 -228 69.5t-81 228.5v404zM291 746h-108v34q0 67 27.5 91.5t75.5 24.5q37 0 86.5 -20t61.5 -20
q21 0 21 28v10h106v-23q0 -76 -28.5 -103.5t-79.5 -27.5q-31 0 -81.5 19t-61.5 19q-19 0 -19 -19v-13z" />
    <glyph glyph-name="uni1EEF" unicode="&#x1eef;" horiz-adv-x="620" 
d="M370 55q-47 -68 -145 -68q-84 0 -128 49.5t-44 143.5v344h195v-312q0 -81 57 -81q35 0 50 23t15 80v290h86q44 6 44 46q0 33 -11 66h153q10 -31 10 -69q0 -99 -88 -134v-266q0 -117 1 -167h-191q0 1 -4 55zM233 585h-108v33q0 67 27 92.5t74 25.5q34 0 80 -18.5t58 -18.5
q20 0 20 27v11h106v-25q0 -76 -28.5 -103.5t-75.5 -27.5q-34 0 -78.5 18t-55.5 18q-19 0 -19 -19v-13z" />
    <glyph glyph-name="uni1EF0" unicode="&#x1ef0;" horiz-adv-x="744" 
d="M62 689h202v-424q0 -69 30 -100.5t80 -31.5q105 0 105 132v424h138q22 13 22 39q0 33 -11 66h153q10 -31 10 -69q0 -51 -27.5 -89t-82.5 -51v-299q0 -299 -310 -299q-147 0 -228 69.5t-81 228.5v404zM464 -219h-184v161h184v-161z" />
    <glyph glyph-name="uni1EF1" unicode="&#x1ef1;" horiz-adv-x="620" 
d="M370 55q-47 -68 -145 -68q-84 0 -128 49.5t-44 143.5v344h195v-312q0 -81 57 -81q35 0 50 23t15 80v290h86q44 6 44 46q0 33 -11 66h153q10 -31 10 -69q0 -99 -88 -134v-266q0 -117 1 -167h-191q0 1 -4 55zM401 -215h-184v161h184v-161z" />
    <glyph glyph-name="Ygrave" unicode="&#x1ef2;" horiz-adv-x="658" 
d="M429 0h-203v239q0 15 -7 26l-235 424h228q78 -172 125 -288q17 45 126 288h211l-239 -423q-6 -12 -6 -26v-240zM77 875h225l124 -136h-164z" />
    <glyph glyph-name="ygrave" unicode="&#x1ef3;" horiz-adv-x="560" 
d="M-3 524h212q68 -266 79 -356h4q22 133 76 356h192l-156 -494q-22 -69 -40 -108t-47.5 -70t-70 -42.5t-102.5 -11.5q-33 0 -81 5v139q3 0 16.5 -1t20.5 -1q35 0 54.5 11.5t29.5 40.5zM47 736h210l121 -150h-153z" />
    <glyph glyph-name="uni1EF4" unicode="&#x1ef4;" horiz-adv-x="658" 
d="M429 0h-203v239q0 15 -7 26l-235 424h228q78 -172 125 -288q17 45 126 288h211l-239 -423q-6 -12 -6 -26v-240zM421 -215h-184v161h184v-161z" />
    <glyph glyph-name="uni1EF5" unicode="&#x1ef5;" horiz-adv-x="560" 
d="M-3 524h212q68 -266 79 -356h4q22 133 76 356h192l-156 -494q-22 -69 -40 -108t-47.5 -70t-70 -42.5t-102.5 -11.5q-33 0 -81 5v139q3 0 16.5 -1t20.5 -1q35 0 54.5 11.5t29.5 40.5zM590 -211h-184v161h184v-161z" />
    <glyph glyph-name="uni1EF6" unicode="&#x1ef6;" horiz-adv-x="658" 
d="M429 0h-203v239q0 15 -7 26l-235 424h228q78 -172 125 -288q17 45 126 288h211l-239 -423q-6 -12 -6 -26v-240zM393 732h-129q39 40 39 66q0 24 -29 24q-25 0 -49 -12l-32 92q54 32 128 32q60 0 94 -27t34 -71q0 -59 -56 -104z" />
    <glyph glyph-name="uni1EF7" unicode="&#x1ef7;" horiz-adv-x="560" 
d="M-3 524h212q68 -266 79 -356h4q22 133 76 356h192l-156 -494q-22 -69 -40 -108t-47.5 -70t-70 -42.5t-102.5 -11.5q-33 0 -81 5v139q3 0 16.5 -1t20.5 -1q35 0 54.5 11.5t29.5 40.5zM344 579h-129q39 40 39 66q0 24 -29 24q-25 0 -49 -12l-32 92q54 32 128 32
q60 0 94 -27t34 -71q0 -59 -56 -104z" />
    <glyph glyph-name="uni1EF8" unicode="&#x1ef8;" horiz-adv-x="658" 
d="M429 0h-203v239q0 15 -7 26l-235 424h228q78 -172 125 -288q17 45 126 288h211l-239 -423q-6 -12 -6 -26v-240zM248 746h-108v34q0 67 27.5 91.5t75.5 24.5q37 0 86.5 -20t61.5 -20q21 0 21 28v10h106v-23q0 -76 -28.5 -103.5t-79.5 -27.5q-31 0 -81.5 19t-61.5 19
q-19 0 -19 -19v-13z" />
    <glyph glyph-name="uni1EF9" unicode="&#x1ef9;" horiz-adv-x="560" 
d="M-3 524h212q68 -266 79 -356h4q22 133 76 356h192l-156 -494q-22 -69 -40 -108t-47.5 -70t-70 -42.5t-102.5 -11.5q-33 0 -81 5v139q3 0 16.5 -1t20.5 -1q35 0 54.5 11.5t29.5 40.5zM208 585h-108v33q0 67 27 92.5t74 25.5q34 0 80 -18.5t58 -18.5q20 0 20 27v11h106v-25
q0 -76 -28.5 -103.5t-75.5 -27.5q-34 0 -78.5 18t-55.5 18q-19 0 -19 -19v-13z" />
    <glyph glyph-name="uni2007" unicode="&#x2007;" horiz-adv-x="606" 
 />
    <glyph glyph-name="uni2010" unicode="&#x2010;" horiz-adv-x="385" 
d="M45 336h295v-152h-295v152z" />
    <glyph glyph-name="figuredash" unicode="&#x2012;" horiz-adv-x="606" 
d="M93 395h420v-147h-420v147z" />
    <glyph glyph-name="endash" unicode="&#x2013;" horiz-adv-x="477" 
d="M45 334h386v-148h-386v148z" />
    <glyph glyph-name="emdash" unicode="&#x2014;" horiz-adv-x="831" 
d="M45 334h741v-148h-741v148z" />
    <glyph glyph-name="uni2015" unicode="&#x2015;" horiz-adv-x="831" 
d="M45 334h741v-148h-741v148z" />
    <glyph glyph-name="quoteleft" unicode="&#x2018;" horiz-adv-x="299" 
d="M123 724h137q-41 -157 -42 -307h-180q5 76 28 161t57 146z" />
    <glyph glyph-name="quoteright" unicode="&#x2019;" horiz-adv-x="299" 
d="M176 417h-137q41 159 42 307h180q-6 -78 -28.5 -161.5t-56.5 -145.5z" />
    <glyph glyph-name="quotesinglbase" unicode="&#x201a;" horiz-adv-x="302" 
d="M172 -122h-133q41 159 42 307h180q-13 -178 -89 -307z" />
    <glyph glyph-name="quotedblleft" unicode="&#x201c;" horiz-adv-x="511" 
d="M347 724h126q-40 -145 -41 -307h-169q4 79 28 162.5t56 144.5zM120 724h126q-38 -158 -41 -307h-168q4 72 27 157.5t56 149.5z" />
    <glyph glyph-name="quotedblright" unicode="&#x201d;" horiz-adv-x="511" 
d="M164 417h-125q38 148 41 307h169q-4 -78 -28.5 -161.5t-56.5 -145.5zM391 417h-126q40 166 41 307h169q-4 -71 -27.5 -157t-56.5 -150z" />
    <glyph glyph-name="quotedblbase" unicode="&#x201e;" horiz-adv-x="511" 
d="M161 -121h-122q38 148 41 308h169q-4 -80 -29 -164t-59 -144zM388 -121h-123q40 166 41 308h169q-4 -73 -28 -159t-59 -149z" />
    <glyph glyph-name="dagger" unicode="&#x2020;" horiz-adv-x="518" 
d="M172 646h149l-8 -194l155 8v-134l-155 9l8 -443h-149l10 443l-156 -9v134l156 -8z" />
    <glyph glyph-name="daggerdbl" unicode="&#x2021;" horiz-adv-x="518" 
d="M182 193v163l-156 -9v136l156 -10l-10 173h149l-8 -173l155 10v-136l-155 9v-163l155 8v-133l-155 7l8 -183h-149l10 183l-156 -7v133z" />
    <glyph glyph-name="bullet" unicode="&#x2022;" horiz-adv-x="423" 
d="M74 396h275v-277h-275v277z" />
    <glyph glyph-name="ellipsis" unicode="&#x2026;" horiz-adv-x="951" 
d="M243 0h-195v209h195v-209zM563 0h-195v209h195v-209zM884 0h-195v209h195v-209z" />
    <glyph glyph-name="perthousand" unicode="&#x2030;" horiz-adv-x="1361" 
d="M1142 373q87 0 136.5 -50.5t49.5 -141.5q0 -87 -49.5 -140t-137.5 -53q-90 0 -140 50t-50 143q0 84 49.5 138t141.5 54zM1142 273q-54 0 -54 -92q0 -94 53 -94q54 0 54 94q0 92 -53 92zM224 672q87 0 136.5 -50.5t49.5 -141.5q0 -87 -49.5 -139.5t-137.5 -52.5
q-91 0 -140.5 50t-49.5 142q0 84 49.5 138t141.5 54zM224 573q-54 0 -54 -93q0 -94 53 -94q54 0 54 94q0 93 -53 93zM312 0h-104l424 660h105zM726 373q88 0 137.5 -50.5t49.5 -141.5q0 -87 -50 -140t-138 -53q-90 0 -140 50.5t-50 142.5q0 84 49.5 138t141.5 54zM726 273
q-53 0 -53 -92q0 -94 53 -94t53 94q0 92 -53 92z" />
    <glyph glyph-name="uni2032" unicode="&#x2032;" horiz-adv-x="314" 
d="M192 404h-142l41 320h173z" />
    <glyph glyph-name="uni2033" unicode="&#x2033;" horiz-adv-x="518" 
d="M174 404h-124l39 322h158zM393 404h-123l40 322h158z" />
    <glyph glyph-name="guilsinglleft" unicode="&#x2039;" horiz-adv-x="391" 
d="M349 462l-159 -200l159 -199h-144l-163 199l163 200h144z" />
    <glyph glyph-name="guilsinglright" unicode="&#x203a;" horiz-adv-x="391" 
d="M42 63l159 200l-159 199h144l163 -199l-163 -200h-144z" />
    <glyph glyph-name="fraction" unicode="&#x2044;" horiz-adv-x="190" 
d="M-54 0h-109l409 659h108z" />
    <glyph glyph-name="zero.sups" unicode="&#x2070;" horiz-adv-x="435" 
d="M218 832q97 0 145.5 -57.5t48.5 -143.5q0 -100 -52 -153.5t-144 -53.5q-90 -1 -141 55.5t-51 146.5q0 89 50.5 147.5t143.5 58.5zM217 731q-46 0 -46 -102q0 -104 47 -104t47 103q0 58 -11 80.5t-37 22.5z" />
    <glyph glyph-name="four.sups" unicode="&#x2074;" horiz-adv-x="419" 
d="M348 429h-132v85h-190v100l145 212h177v-215h57l-10 -97h-47v-85zM144 611h72v31q0 49 3 88q-17 -30 -75 -119z" />
    <glyph glyph-name="five.sups" unicode="&#x2075;" horiz-adv-x="416" 
d="M372 826l-17 -99h-181q-2 -18 -8 -48q28 16 81 16q64 0 104 -33.5t40 -93.5q0 -63 -49 -103.5t-131 -40.5q-90 0 -135.5 38.5t-49.5 87.5h135q8 -30 42 -30q40 0 40 44q0 45 -44 45q-32 0 -44 -22l-126 13q26 121 39 226h304z" />
    <glyph glyph-name="six.sups" unicode="&#x2076;" horiz-adv-x="425" 
d="M390 713h-131q-9 28 -42 28q-49 0 -51 -70q33 26 92 26q64 0 105.5 -34.5t40.5 -94.5q-1 -64 -50 -104t-134 -40q-95 0 -145.5 54t-50.5 146q0 39 10 74.5t31.5 66.5t61 49t91.5 18q82 0 124 -36.5t48 -82.5zM215 516q20 0 34 12t14 38q-2 51 -49 51t-47 -47
q0 -22 12 -38t36 -16z" />
    <glyph glyph-name="seven.sups" unicode="&#x2077;" horiz-adv-x="383" 
d="M27 826h331v-98q-92 -115 -140 -299h-157q16 74 59 154.5t88 134.5h-181v108z" />
    <glyph glyph-name="eight.sups" unicode="&#x2078;" horiz-adv-x="417" 
d="M207 424q-90 0 -138 34t-48 89q0 61 66 87q-48 31 -48 83q0 50 42.5 82.5t130.5 32.5q84 0 125.5 -34t41.5 -79q0 -54 -54 -79q71 -27 71 -91q0 -60 -51 -92.5t-138 -32.5zM211 508q22 0 34.5 11.5t12.5 28.5q0 44 -49 44q-46 0 -46 -41q0 -20 13.5 -31.5t34.5 -11.5z
M209 747q-40 0 -40 -36q0 -39 41 -39q37 0 37 38q0 37 -38 37z" />
    <glyph glyph-name="nine.sups" unicode="&#x2079;" horiz-adv-x="424" 
d="M28 543h138q12 -27 41 -27q23 0 36.5 19t13.5 54q-26 -22 -87 -22q-65 0 -107 31.5t-42 92.5q0 60 48.5 100.5t136.5 40.5q91 0 142.5 -52.5t51.5 -143.5q0 -97 -47.5 -154.5t-145.5 -57.5q-82 0 -126.5 34.5t-52.5 84.5zM207 738q-19 0 -32.5 -11t-13.5 -34
q0 -45 50 -45q19 0 32 10.5t13 32.5q0 47 -49 47z" />
    <glyph glyph-name="parenleft.sups" unicode="&#x207d;" horiz-adv-x="262" 
d="M117 870h115q-23 -39 -36.5 -66t-26.5 -78t-13 -106q0 -130 76 -249h-115q-31 34 -55.5 100t-24.5 149q0 144 80 250z" />
    <glyph glyph-name="parenright.sups" unicode="&#x207e;" horiz-adv-x="262" 
d="M145 377h-116q24 39 37.5 66.5t26.5 78.5t13 106q0 79 -20.5 136t-56.5 113h116q31 -34 55.5 -100t24.5 -149q0 -143 -80 -251z" />
    <glyph glyph-name="n.sups" unicode="&#x207f;" horiz-adv-x="426" 
d="M36 262v227q0 75 -2 107h133q3 -19 4 -38q41 44 100 44q52 0 86 -32.5t34 -100.5v-207h-136v191q0 48 -38 48q-45 0 -45 -58v-181h-136z" />
    <glyph glyph-name="zero.subs" unicode="&#x2080;" horiz-adv-x="435" 
d="M218 231q97 0 145.5 -57.5t48.5 -143.5q0 -100 -52 -153.5t-144 -53.5q-90 -1 -141 55.5t-51 146.5q0 89 50.5 147.5t143.5 58.5zM217 130q-46 0 -46 -102q0 -104 47 -104t47 103q0 58 -11 80.5t-37 22.5z" />
    <glyph glyph-name="one.subs" unicode="&#x2081;" horiz-adv-x="286" 
d="M234 -172h-147v253q-25 -3 -63 1v97q71 5 114 50h96v-401z" />
    <glyph glyph-name="two.subs" unicode="&#x2082;" horiz-adv-x="401" 
d="M370 -172h-337v11q0 63 27 108.5t92 83.5q6 4 15.5 9.5t14.5 8t12 6.5t10 6.5t7.5 5.5t6.5 5.5t5 5.5t4 6t1.5 6.5t0.5 7.5q0 35 -35 35q-33 0 -40 -45h-128q4 61 48.5 102t127.5 41q91 0 131.5 -39t40.5 -89q0 -45 -21 -71.5t-81 -55.5q-51 -24 -64 -46h180z" />
    <glyph glyph-name="three.subs" unicode="&#x2083;" horiz-adv-x="409" 
d="M156 -12v93h31q45 0 45 25q0 30 -39 30q-37 0 -44 -34h-123q2 21 10 40.5t26 41t54 34.5t86 13q81 0 124.5 -32t43.5 -84q0 -53 -56 -75q25 -6 49 -28.5t24 -64.5q0 -22 -8 -42t-27 -39t-57 -30.5t-91 -11.5q-55 0 -94.5 14.5t-57.5 37.5t-25.5 42.5t-8.5 39.5h132
q8 -40 50 -40q19 0 30 9.5t11 25.5q0 35 -50 35h-35z" />
    <glyph glyph-name="four.subs" unicode="&#x2084;" horiz-adv-x="419" 
d="M348 -172h-132v85h-190v100l145 212h177v-215h57l-10 -97h-47v-85zM144 10h72v31q0 49 3 88q-17 -30 -75 -119z" />
    <glyph glyph-name="five.subs" unicode="&#x2085;" horiz-adv-x="416" 
d="M372 225l-17 -99h-181q-2 -18 -8 -48q28 16 81 16q64 0 104 -33.5t40 -93.5q0 -63 -49 -103.5t-131 -40.5q-90 0 -135.5 38.5t-49.5 87.5h135q8 -30 42 -30q40 0 40 44q0 45 -44 45q-32 0 -44 -22l-126 13q26 121 39 226h304z" />
    <glyph glyph-name="six.subs" unicode="&#x2086;" horiz-adv-x="425" 
d="M390 112h-131q-9 28 -42 28q-49 0 -51 -70q33 26 92 26q64 0 105.5 -34.5t40.5 -94.5q-1 -64 -50 -104t-134 -40q-95 0 -145.5 54t-50.5 146q0 39 10 74.5t31.5 66.5t61 49t91.5 18q82 0 124 -36.5t48 -82.5zM215 -85q20 0 34 12t14 38q-2 51 -49 51t-47 -47
q0 -22 12 -38t36 -16z" />
    <glyph glyph-name="seven.subs" unicode="&#x2087;" horiz-adv-x="383" 
d="M27 225h331v-98q-92 -115 -140 -299h-157q16 74 59 154.5t88 134.5h-181v108z" />
    <glyph glyph-name="eight.subs" unicode="&#x2088;" horiz-adv-x="417" 
d="M207 -177q-90 0 -138 34t-48 89q0 61 66 87q-48 31 -48 83q0 50 42.5 82.5t130.5 32.5q84 0 125.5 -34t41.5 -79q0 -54 -54 -79q71 -27 71 -91q0 -60 -51 -92.5t-138 -32.5zM211 -93q22 0 34.5 11.5t12.5 28.5q0 44 -49 44q-46 0 -46 -41q0 -20 13.5 -31.5t34.5 -11.5z
M209 146q-40 0 -40 -36q0 -39 41 -39q37 0 37 38q0 37 -38 37z" />
    <glyph glyph-name="nine.subs" unicode="&#x2089;" horiz-adv-x="424" 
d="M28 -58h138q12 -27 41 -27q23 0 36.5 19t13.5 54q-26 -22 -87 -22q-65 0 -107 31.5t-42 92.5q0 60 48.5 100.5t136.5 40.5q91 0 142.5 -52.5t51.5 -143.5q0 -97 -47.5 -154.5t-145.5 -57.5q-82 0 -126.5 34.5t-52.5 84.5zM207 137q-19 0 -32.5 -11t-13.5 -34
q0 -45 50 -45q19 0 32 10.5t13 32.5q0 47 -49 47z" />
    <glyph glyph-name="parenleft.subs" unicode="&#x208d;" horiz-adv-x="262" 
d="M117 269h115q-23 -39 -36.5 -66t-26.5 -78t-13 -106q0 -130 76 -249h-115q-31 34 -55.5 100t-24.5 149q0 144 80 250z" />
    <glyph glyph-name="parenright.subs" unicode="&#x208e;" horiz-adv-x="262" 
d="M145 -224h-116q24 39 37.5 66.5t26.5 78.5t13 106q0 79 -20.5 136t-56.5 113h116q31 -34 55.5 -100t24.5 -149q0 -143 -80 -251z" />
    <glyph glyph-name="colonmonetary" unicode="&#x20a1;" horiz-adv-x="601" 
d="M222 328q0 -204 87 -204q34 0 52 16.5t26 57.5h182q-21 -145 -149 -189v-100h-88v84q-7 -1 -23 -1h-13v-83h-88v99q-86 29 -133 109.5t-47 204.5q0 126 46 209.5t134 115.5v76h88v-59q8 1 25 1h11v58h88v-72q70 -22 107 -74t41 -114h-179q-12 71 -75 71q-48 0 -70 -49.5
t-22 -156.5z" />
    <glyph glyph-name="franc" unicode="&#x20a3;" horiz-adv-x="570" 
d="M83 0v100h-70v106h70v453h450v-145h-258v-100h241v-141h-241v-67h101v-106h-101v-100h-192z" />
    <glyph glyph-name="lira" unicode="&#x20a4;" horiz-adv-x="575" 
d="M544 0h-511v131q30 12 44.5 32t19.5 56h-71v84h73q0 8 -1.5 24.5t-1.5 18.5h-70v84h64v17q0 103 58.5 164t171.5 61q62 0 108 -18.5t70 -49t36 -60t14 -59.5h-169q-8 53 -52 53q-49 0 -49 -68q0 -27 1 -40h133v-84h-128q1 -9 1 -29v-14h127v-84h-134q-8 -47 -32 -73h319z
" />
    <glyph glyph-name="uni20A6" unicode="&#x20a6;" horiz-adv-x="616" 
d="M206 515q2 -20 4 -63h19l-12 63h-11zM388 165h12q-2 21 -4 70h-21zM213 0h-139v235h-50v83h50v50h-50v84h50v207h220l39 -207h57v46v161h137v-207h52v-84h-52v-50h52v-83h-52v-235h-211l-45 235h-58v-75v-160zM393 318q-1 8 -1 24.5t-1 25.5h-42l10 -50h34zM255 318
l-10 50h-33q0 -33 1 -50h42z" />
    <glyph glyph-name="peseta" unicode="&#x20a7;" horiz-adv-x="597" 
d="M66 0v383h-64v90h64v186h229q105 0 174 -47.5t82 -138.5h47v-90h-48q-14 -91 -82 -139t-176 -48h-46v-196h-180zM246 542v-69h128q-6 36 -26 52.5t-59 16.5h-43zM246 317h36q77 0 91 66h-127v-66z" />
    <glyph glyph-name="dong" unicode="&#x20ab;" horiz-adv-x="612" 
d="M56 -63h483v-105h-483v105zM354 664h181v-54h53v-104h-53v-360q0 -120 1 -146h-172q-6 19 -8 44q-42 -51 -128 -51q-88 0 -143.5 63.5t-55.5 163.5q0 106 62 168t155 62q78 0 108 -30v86h-189v104h189v54zM215 224q0 -102 72 -102t72 102q0 100 -71 100q-35 0 -54 -26
t-19 -74z" />
    <glyph glyph-name="Euro" unicode="&#x20ac;" horiz-adv-x="612" 
d="M411 180h174q-18 -88 -77.5 -140t-164.5 -52q-108 0 -173 61t-84 181h-55v84h48v18v25h-48v85h58q22 110 88.5 169.5t169.5 59.5q60 0 106.5 -18t72.5 -47.5t40 -60t16 -61.5h-172q-14 57 -64 57q-59 0 -73 -99h145v-85h-151v-24v-19h151v-84h-146q8 -56 26 -82t50 -26
q29 0 42 15.5t21 42.5z" />
    <glyph glyph-name="uni20B1" unicode="&#x20b1;" horiz-adv-x="641" 
d="M83 0v337h-55v69h55v30h-55v70h55v153h223q208 0 254 -153h49v-70h-38v-13v-17h38v-69h-50q-23 -76 -89 -117t-166 -41h-45v-179h-176zM259 546v-40h128q-19 40 -79 40h-49zM401 419v17h-142v-30h142v13zM259 295h43q63 0 84 42h-127v-42z" />
    <glyph glyph-name="uni20B2" unicode="&#x20b2;" horiz-adv-x="616" 
d="M581 472h-176q-14 67 -79 67q-93 0 -93 -200q0 -50 3.5 -84.5t14 -66t32.5 -47t55 -15.5q32 0 48 8v211h188v-311q-117 -38 -183 -43v-69h-132v72q-108 21 -164 107t-56 229t58.5 227t161.5 105v59h132v-58q84 -14 134.5 -64.5t55.5 -126.5z" />
    <glyph glyph-name="uni20B4" unicode="&#x20b4;" horiz-adv-x="601" 
d="M238 491h-178q4 72 64 126.5t175 54.5q114 0 175.5 -52.5t61.5 -130.5q0 -34 -10 -61h38v-76h-97q-21 -18 -51 -36h138v-76h-264q-44 -34 -44 -69q0 -24 15.5 -39t42.5 -15q59 0 69 56h179q-26 -186 -263 -186q-99 0 -168 50.5t-69 134.5q0 38 13 68h-33v76h97
q15 12 52 36h-138v76h264q41 30 41 65q0 22 -14 37t-41 15q-50 0 -55 -54z" />
    <glyph glyph-name="uni20B5" unicode="&#x20b5;" horiz-adv-x="618" 
d="M222 328q0 -199 89 -199q34 0 50.5 17t25.5 51h182q-12 -79 -60 -131t-130 -68v-76h-133v76q-103 20 -160.5 103.5t-57.5 220.5q0 143 56 229t163 107v63h132v-61q90 -15 137.5 -73t51.5 -128h-179q-12 68 -75 68q-48 0 -70 -48t-22 -151z" />
    <glyph glyph-name="uni20B9" unicode="&#x20b9;" horiz-adv-x="581" 
d="M544 423h-94q-14 -108 -128 -156l197 -267h-208l-170 235h-96v124h99q92 0 112 64h-211v95h197q-29 37 -92 37h-105v104h499v-97h-122q13 -21 20 -44h102v-95z" />
    <glyph glyph-name="uni20BA" unicode="&#x20ba;" horiz-adv-x="613" 
d="M271 0h-177v228l-69 -28v97l69 28v54l-69 -28v98l69 28v182h193v-103l99 40v-98l-99 -40v-54l99 40v-97l-99 -40v-163q114 0 128 136h158q-1 -32 -8 -64.5t-27.5 -73t-51.5 -70.5t-87 -51t-128 -21z" />
    <glyph glyph-name="uni20BD" unicode="&#x20bd;" horiz-adv-x="638" 
d="M80 0v105h-59v101h59v63h-59v122h59v268h276q115 0 181.5 -51t66.5 -140q0 -199 -250 -199h-83v-63h137v-101h-137v-105h-191zM271 535v-144h59q82 0 82 72t-81 72h-60z" />
    <glyph glyph-name="uni2113" unicode="&#x2113;" horiz-adv-x="517" 
d="M342 200h165q-8 -102 -62 -155.5t-166 -53.5q-178 0 -197 161v7q-1 7 -1 8q-19 -10 -53 -25l-21 126q40 19 68 36v189q0 121 59.5 180t154.5 59q88 0 139 -48.5t51 -136.5q0 -92 -49.5 -163.5t-160.5 -137.5v-45q0 -37 6.5 -55.5t25.5 -18.5q21 0 29.5 16.5t11.5 56.5z
M269 538v-126q57 50 57 140q0 53 -28 53q-15 0 -22 -13.5t-7 -53.5z" />
    <glyph glyph-name="uni2116" unicode="&#x2116;" horiz-adv-x="1109" 
d="M240 0h-171v669h240q117 -281 154 -449h4q-9 107 -9 311v138h172v-669h-231q-34 85 -62 160t-45.5 128.5t-28.5 89t-19.5 67.5t-10.5 37h-3q10 -119 10 -339v-143zM825 435q0 -89 54 -89t54 89q0 88 -55 88q-53 0 -53 -88zM710 189h336v-99h-336v99zM879 632
q85 0 140 -53t55 -144q0 -90 -52 -144t-144 -54q-88 0 -143 53t-55 145q0 89 56 143t143 54z" />
    <glyph glyph-name="uni2117" unicode="&#x2117;" horiz-adv-x="784" 
d="M246 171v357h178q57 0 99 -32.5t42 -89.5q0 -61 -40 -94t-104 -33h-60v-108h-115zM362 442v-80h37q49 0 49 41q0 40 -48 40zM390 700q147 0 246.5 -99.5t99.5 -256.5t-99 -256.5t-247 -99.5q-151 0 -250 97.5t-99 258.5q0 154 100 255t249 101zM389 629
q-119 0 -194.5 -77t-75.5 -208q0 -124 75.5 -203.5t194.5 -79.5q118 0 193.5 74t75.5 208q0 128 -76.5 207t-192.5 79z" />
    <glyph glyph-name="uni2120" unicode="&#x2120;" horiz-adv-x="507" 
d="M521 458h-76v56q0 14 6 123h-2q-38 -162 -42 -178h-69q-2 8 -35 178h-3q3 -64 4 -121v-58h-74v231h125q6 -20 23 -118q0 1 11.5 51.5t16.5 66.5h115v-231zM-8 532h79q5 -26 32 -26q25 0 25 16q0 6 -4.5 9.5t-12 6t-25.5 7.5q-48 11 -68.5 29.5t-20.5 47.5q0 35 26.5 54.5
t73.5 19.5q51 0 75 -22t28 -54h-75q-3 23 -29 23q-22 0 -22 -15q0 -11 31 -18q59 -13 80.5 -32t21.5 -49q0 -77 -109 -77q-46 0 -75 22.5t-31 57.5z" />
    <glyph glyph-name="trademark" unicode="&#x2122;" horiz-adv-x="508" 
d="M527 457h-76v51q0 44 7 128h-3l-41 -177h-70l-34 177h-4q4 -76 4 -127v-52h-73v232h124l23 -118h1l28 118h114v-232zM-4 689h217v-68h-68v-164h-82v164h-67v68z" />
    <glyph glyph-name="uni2126" unicode="&#x2126;" horiz-adv-x="783" 
d="M392 700q161 0 255.5 -88.5t94.5 -213.5q0 -42 -9.5 -79t-21.5 -60.5t-34 -47t-36 -34.5t-38 -29h148v-148h-328v175q109 52 109 208q0 73 -34.5 123t-107.5 50q-72 0 -106 -50t-34 -123q0 -153 108 -208v-175h-326v148h140q-130 92 -130 246q0 129 94.5 217.5
t255.5 88.5z" />
    <glyph glyph-name="estimated" unicode="&#x212e;" horiz-adv-x="844" 
d="M805 301h-566q-4 0 -4 -4v-116q0 -10 8 -22q60 -86 177 -86q70 0 114.5 21.5t81.5 72.5h143q-51 -88 -141.5 -133.5t-197.5 -45.5q-168 0 -275 98.5t-107 242.5q0 142 112.5 242t273.5 100t271 -101t110 -244v-25zM608 390v102q0 12 -9 22q-57 78 -176 78
q-115 0 -179 -79q-9 -9 -9 -22v-101q0 -5 4 -5h365q4 0 4 5z" />
    <glyph glyph-name="onethird" unicode="&#x2153;" horiz-adv-x="909" 
d="M255 0h-109l409 659h108zM245 262h-147v253q-25 -3 -63 1v97q71 5 114 50h96v-401zM646 158v93h31q45 0 45 25q0 30 -39 30q-37 0 -44 -34h-123q2 21 10 40.5t26 41t54 34.5t86 13q81 0 124.5 -32t43.5 -84q0 -53 -56 -75q25 -6 49 -28.5t24 -64.5q0 -22 -8 -42t-27 -39
t-57 -30.5t-91 -11.5q-55 0 -94.5 14.5t-57.5 37.5t-25.5 42.5t-8.5 39.5h132q8 -40 50 -40q19 0 30 9.5t11 25.5q0 35 -50 35h-35z" />
    <glyph glyph-name="twothirds" unicode="&#x2154;" horiz-adv-x="1012" 
d="M372 0h-109l409 659h108zM376 262h-337v11q0 63 27 108.5t92 83.5q6 4 15.5 9.5t14.5 8t12 6.5t10 6.5t7.5 5.5t6.5 5.5t5 5.5t4 6t1.5 6.5t0.5 7.5q0 35 -35 35q-33 0 -40 -45h-128q4 61 48.5 102t127.5 41q91 0 131.5 -39t40.5 -89q0 -45 -21 -71.5t-81 -55.5
q-51 -24 -64 -46h180zM755 158v93h31q45 0 45 25q0 30 -39 30q-37 0 -44 -34h-123q2 21 10 40.5t26 41t54 34.5t86 13q81 0 124.5 -32t43.5 -84q0 -53 -56 -75q25 -6 49 -28.5t24 -64.5q0 -22 -8 -42t-27 -39t-57 -30.5t-91 -11.5q-55 0 -94.5 14.5t-57.5 37.5t-25.5 42.5
t-8.5 39.5h132q8 -40 50 -40q19 0 30 9.5t11 25.5q0 35 -50 35h-35z" />
    <glyph glyph-name="oneeighth" unicode="&#x215b;" horiz-adv-x="905" 
d="M247 0h-109l409 659h108zM245 262h-147v253q-25 -3 -63 1v97q71 5 114 50h96v-401zM685 -14q-90 0 -138 34t-48 89q0 61 66 87q-48 31 -48 83q0 50 42.5 82.5t130.5 32.5q84 0 125.5 -34t41.5 -79q0 -54 -54 -79q71 -27 71 -91q0 -60 -51 -92.5t-138 -32.5zM689 70
q22 0 34.5 11.5t12.5 28.5q0 44 -49 44q-46 0 -46 -41q0 -20 13.5 -31.5t34.5 -11.5zM687 309q-40 0 -40 -36q0 -39 41 -39q37 0 37 38q0 37 -38 37z" />
    <glyph glyph-name="threeeighths" unicode="&#x215c;" horiz-adv-x="997" 
d="M347 0h-109l409 659h108zM777 -6q-90 0 -138 34t-48 89q0 61 66 87q-48 31 -48 83q0 50 42.5 82.5t130.5 32.5q84 0 125.5 -34t41.5 -79q0 -54 -54 -79q71 -27 71 -91q0 -60 -51 -92.5t-138 -32.5zM781 78q22 0 34.5 11.5t12.5 28.5q0 44 -49 44q-46 0 -46 -41
q0 -20 13.5 -31.5t34.5 -11.5zM779 317q-40 0 -40 -36q0 -39 41 -39q37 0 37 38q0 37 -38 37zM162 422v93h31q45 0 45 25q0 30 -39 30q-37 0 -44 -34h-123q2 21 10 40.5t26 41t54 34.5t86 13q81 0 124.5 -32t43.5 -84q0 -53 -56 -75q25 -6 49 -28.5t24 -64.5q0 -22 -8 -42
t-27 -39t-57 -30.5t-91 -11.5q-55 0 -94.5 14.5t-57.5 37.5t-25.5 42.5t-8.5 39.5h132q8 -40 50 -40q19 0 30 9.5t11 25.5q0 35 -50 35h-35z" />
    <glyph glyph-name="fiveeighths" unicode="&#x215d;" horiz-adv-x="1012" 
d="M355 0h-109l409 659h108zM389 659l-17 -99h-181q-2 -18 -8 -48q28 16 81 16q64 0 104 -33.5t40 -93.5q0 -63 -49 -103.5t-131 -40.5q-90 0 -135.5 38.5t-49.5 87.5h135q8 -30 42 -30q40 0 40 44q0 45 -44 45q-32 0 -44 -22l-126 13q26 121 39 226h304zM786 -10
q-90 0 -138 34t-48 89q0 61 66 87q-48 31 -48 83q0 50 42.5 82.5t130.5 32.5q84 0 125.5 -34t41.5 -79q0 -54 -54 -79q71 -27 71 -91q0 -60 -51 -92.5t-138 -32.5zM790 74q22 0 34.5 11.5t12.5 28.5q0 44 -49 44q-46 0 -46 -41q0 -20 13.5 -31.5t34.5 -11.5zM788 313
q-40 0 -40 -36q0 -39 41 -39q37 0 37 38q0 37 -38 37z" />
    <glyph glyph-name="seveneighths" unicode="&#x215e;" horiz-adv-x="925" 
d="M264 0h-109l409 659h108zM701 -14q-90 0 -138 34t-48 89q0 61 66 87q-48 31 -48 83q0 50 42.5 82.5t130.5 32.5q84 0 125.5 -34t41.5 -79q0 -54 -54 -79q71 -27 71 -91q0 -60 -51 -92.5t-138 -32.5zM705 70q22 0 34.5 11.5t12.5 28.5q0 44 -49 44q-46 0 -46 -41
q0 -20 13.5 -31.5t34.5 -11.5zM703 309q-40 0 -40 -36q0 -39 41 -39q37 0 37 38q0 37 -38 37zM40 659h331v-98q-92 -115 -140 -299h-157q16 74 59 154.5t88 134.5h-181v108z" />
    <glyph glyph-name="uni2190" unicode="&#x2190;" horiz-adv-x="856" 
d="M817 274h-528q28 -25 131 -130.5t119 -120.5l-100 -94l-400 415v2l400 414l100 -98q-28 -26 -128.5 -127t-121.5 -121h528v-140z" />
    <glyph glyph-name="arrowup" unicode="&#x2191;" horiz-adv-x="880" 
d="M365 -49v567q-60 -64 -235 -239l-93 101l402 400h2l401 -400l-97 -101q-12 13 -108.5 112.5t-122.5 126.5v-567h-149z" />
    <glyph glyph-name="uni2192" unicode="&#x2192;" horiz-adv-x="856" 
d="M39 415h528q-28 25 -131 130.5t-119 120.5l100 94l400 -415v-2l-400 -414l-100 98q28 26 128.5 127t121.5 121h-528v140z" />
    <glyph glyph-name="arrowdown" unicode="&#x2193;" horiz-adv-x="880" 
d="M515 761v-567q60 64 235 239l93 -101l-402 -400h-2l-401 400l97 101q12 -13 108.5 -112.5t122.5 -126.5v567h149z" />
    <glyph glyph-name="partialdiff" unicode="&#x2202;" horiz-adv-x="608" 
d="M95 559v136q47 7 92 7q178 0 281 -102t103 -290q0 -150 -70.5 -234.5t-214.5 -84.5q-63 0 -112.5 20t-78.5 53t-44 71.5t-15 79.5q0 97 66.5 156.5t173.5 59.5q65 0 102 -24l-1 8q-5 61 -59.5 104t-155.5 43q-46 0 -67 -3zM302 115q36 0 54 28t18 75q0 93 -74 93
q-38 0 -57.5 -27.5t-19.5 -69.5q0 -45 21 -72t58 -27z" />
    <glyph glyph-name="uni2206" unicode="&#x2206;" horiz-adv-x="697" 
d="M672 0h-648v114l193 575h258l197 -577v-112zM222 153h234l-59 182q-39 123 -59 213h-4q-13 -70 -55 -214z" />
    <glyph glyph-name="product" unicode="&#x220f;" horiz-adv-x="747" 
d="M69 689h609v-782h-200v626h-208v-626h-201v782z" />
    <glyph glyph-name="summation" unicode="&#x2211;" horiz-adv-x="573" 
d="M556 -93h-540v115l206 275l-198 271v121h520v-151h-277l167 -226l-183 -254h326z" />
    <glyph glyph-name="minus" unicode="&#x2212;" horiz-adv-x="679" 
d="M613 207h-547v140h547v-140z" />
    <glyph glyph-name="uni2215" unicode="&#x2215;" horiz-adv-x="190" 
d="M-54 0h-109l409 659h108z" />
    <glyph glyph-name="uni2219" unicode="&#x2219;" horiz-adv-x="277" 
d="M236 200h-195v209h195v-209z" />
    <glyph glyph-name="radical" unicode="&#x221a;" horiz-adv-x="661" 
d="M668 852l-256 -1029h-108l-155 385l-90 -42l-39 99l224 111q90 -241 106 -312q1 11 24 106t72 295t92 387h130z" />
    <glyph glyph-name="infinity" unicode="&#x221e;" horiz-adv-x="823" 
d="M214 94q-79 0 -129 54t-50 136q0 79 51 134t135 55q60 0 102 -26.5t90 -79.5q50 54 92 80t105 26q77 0 127 -53.5t50 -135.5q0 -78 -52 -134t-134 -56q-97 0 -188 101q-48 -50 -92 -75.5t-107 -25.5zM226 211q54 0 112 68q-42 50 -62 64q-23 15 -48 15q-32 0 -52.5 -21
t-20.5 -53q0 -33 20.5 -53t50.5 -20zM592 211q33 0 54 20.5t21 52.5q0 33 -20 53.5t-53 20.5q-29 0 -54 -18.5t-58 -54.5q26 -28 36 -38t32 -23t42 -13z" />
    <glyph glyph-name="integral" unicode="&#x222b;" horiz-adv-x="387" 
d="M393 819l-15 -139q-35 5 -52 5q-38 0 -50 -31t-11 -123q0 -62 8.5 -226.5t8.5 -230.5q0 -38 -2 -65.5t-7.5 -62t-18 -58.5t-32 -45.5t-50.5 -32.5t-72 -11q-71 0 -109 18l21 143q34 -8 60 -8q34 0 43 30.5t9 99.5q0 66 -8.5 238.5t-9.5 231.5q-2 280 201 280q57 0 86 -13
z" />
    <glyph glyph-name="approxequal" unicode="&#x2248;" horiz-adv-x="685" 
d="M189 66h-123v35q0 153 142 153q52 0 136 -30.5t116 -30.5q37 0 37 41v13h124v-30q0 -91 -37.5 -125.5t-101.5 -34.5q-61 0 -144.5 30.5t-112.5 30.5q-36 0 -36 -42v-10zM189 311h-123v34q0 88 39.5 121.5t102.5 33.5q51 0 135.5 -30.5t116.5 -30.5q19 0 28 9t9 35v11h124
v-30q0 -92 -38 -127t-104 -35q-57 0 -140.5 31t-113.5 31q-36 0 -36 -41v-12z" />
    <glyph glyph-name="notequal" unicode="&#x2260;" horiz-adv-x="679" 
d="M538 569l-43 -93h118v-141h-182l-53 -114h235v-140h-299l-39 -85h-122l39 85h-126v140h189l52 114h-241v141h305l42 93h125z" />
    <glyph glyph-name="lessequal" unicode="&#x2264;" horiz-adv-x="638" 
d="M66 379v143l504 195v-148l-334 -119l334 -117v-149zM572 0h-506v141h506v-141z" />
    <glyph glyph-name="greaterequal" unicode="&#x2265;" horiz-adv-x="638" 
d="M570 523v-144l-504 -195v148l335 119l-335 117v149zM572 0h-506v141h506v-141z" />
    <glyph glyph-name="uni25A0" unicode="&#x25a0;" horiz-adv-x="441" 
d="M74 113v292h293v-292h-293z" />
    <glyph glyph-name="triagup" unicode="&#x25b2;" horiz-adv-x="694" 
d="M661 0h-628l307 606h4z" />
    <glyph glyph-name="uni25B3" unicode="&#x25b3;" horiz-adv-x="694" 
d="M661 0h-628l307 606h4zM223 116h234l-119 244z" />
    <glyph glyph-name="uni25B6" unicode="&#x25b6;" horiz-adv-x="691" 
d="M55 -16v627l606 -306v-4z" />
    <glyph glyph-name="uni25B7" unicode="&#x25b7;" horiz-adv-x="691" 
d="M55 -16v627l606 -306v-4zM418 302l-243 114v-234z" />
    <glyph glyph-name="triagdn" unicode="&#x25bc;" horiz-adv-x="694" 
d="M33 596h628l-307 -606h-3z" />
    <glyph glyph-name="uni25BD" unicode="&#x25bd;" horiz-adv-x="694" 
d="M33 596h628l-307 -606h-3zM471 480h-234l119 -244z" />
    <glyph glyph-name="uni25C0" unicode="&#x25c0;" horiz-adv-x="691" 
d="M636 611v-627l-606 306v4z" />
    <glyph glyph-name="uni25C1" unicode="&#x25c1;" horiz-adv-x="691" 
d="M636 611v-627l-606 306v4zM516 411l-242 -120l242 -114v234z" />
    <glyph glyph-name="uni25C6" unicode="&#x25c6;" horiz-adv-x="516" 
d="M36 269l222 222l222 -229l-218 -224z" />
    <glyph glyph-name="uni25C9" unicode="&#x25c9;" horiz-adv-x="571" 
d="M287 358q39 0 64.5 -28t25.5 -65q0 -42 -25 -71.5t-64 -29.5q-41 0 -66 28.5t-25 72.5q0 38 25 65.5t65 27.5zM528 265q-1 -106 -69.5 -179t-170.5 -73t-173 73t-71 179q0 103 71.5 176.5t173.5 73.5q100 0 169.5 -74t69.5 -176zM288 424q-65 0 -106.5 -46.5
t-41.5 -112.5q0 -70 42 -117t106 -47q65 0 106 47t41 117q0 65 -43 112t-104 47z" />
    <glyph glyph-name="lozenge" unicode="&#x25ca;" horiz-adv-x="633" 
d="M448 330l-100 174q-4 8 -16.5 30.5t-13.5 23.5h-4q-9 -22 -29 -55l-100 -173l98 -174q28 -50 32 -59h2q2 4 7.5 14.5t13 24t10.5 19.5zM601 332l-227 -375h-122l-219 371l225 372h120z" />
    <glyph glyph-name="uni2610" unicode="&#x2610;" horiz-adv-x="991" 
d="M156 765h739v-756l-70 -69h-729v760zM164 680v-669h642v669h-642z" />
    <glyph glyph-name="uni2611" unicode="&#x2611;" horiz-adv-x="991" 
d="M156 765h739v-756l-70 -69h-729v760zM164 680v-669h642v669h-642zM624 618h131q-165 -199 -333 -553h-36q-94 117 -152 259l100 61q29 -104 66 -173q45 108 107 221t117 185z" />
    <glyph glyph-name="uni2713" unicode="&#x2713;" horiz-adv-x="744" 
d="M576 748h176q-245 -307 -479 -820h-55q-110 151 -202 370l142 84q43 -163 84 -246q70 169 160 335.5t174 276.5z" />
    <glyph glyph-name="uni2752" unicode="&#x2752;" horiz-adv-x="541" 
d="M69 384l91 90h311v-328l-83 -91h-319v329zM146 352v-217h205v217h-205z" />
    <glyph glyph-name="fi" unicode="&#xfb01;" horiz-adv-x="668" 
d="M270 0h-195v393h-69v131h69v31q0 179 185 179q58 0 80 -6v-128q-14 2 -25 2q-25 0 -35 -11t-10 -39v-28h81v-131h-81v-393zM418 0v524h195v-524h-195zM613 589h-195v135h195v-135z" />
    <glyph glyph-name="fl" unicode="&#xfb02;" horiz-adv-x="668" 
d="M270 0h-195v393h-69v131h69v31q0 179 185 179q58 0 80 -6v-128q-14 2 -25 2q-25 0 -35 -11t-10 -39v-28h81v-131h-81v-393zM613 0h-195v724h195v-724z" />
    <glyph glyph-name="uni00470303" horiz-adv-x="767" 
d="M707 395v-395h-135q-8 27 -13 63q-58 -77 -201 -77q-152 0 -235 99.5t-83 250.5q0 164 92.5 265t260.5 101q144 0 224.5 -67t91.5 -158h-200q-23 82 -117 82q-144 0 -144 -216q0 -59 12 -104.5t46 -77.5t87 -32q47 0 75.5 22t36 46t7.5 52v5h-126v141h321zM302 751h-108
v34q0 67 27.5 91.5t75.5 24.5q37 0 86.5 -20t61.5 -20q21 0 21 28v10h106v-23q0 -76 -28.5 -103.5t-79.5 -27.5q-31 0 -81.5 19t-61.5 19q-19 0 -19 -19v-13z" />
    <glyph glyph-name="uni00670303" horiz-adv-x="632" 
d="M578 374v-296q0 -138 -62 -209t-219 -71q-60 0 -106.5 12.5t-72.5 30.5t-43 43t-23 45t-8 41h192q12 -47 68 -47q49 0 65.5 29t16.5 97v28q-45 -66 -141 -66q-100 0 -156.5 71t-56.5 180q0 122 63 198.5t162 76.5q57 0 89 -19t40 -42q1 10 5 48h189q-2 -80 -2 -150z
M232 271q0 -59 21 -92t58 -33q47 0 64 31.5t17 95.5q0 69 -15 99.5t-63 30.5q-37 0 -59.5 -32t-22.5 -100zM248 585h-108v33q0 67 27 92.5t74 25.5q34 0 80 -18.5t58 -18.5q20 0 20 27v11h106v-25q0 -76 -28.5 -103.5t-75.5 -27.5q-34 0 -78.5 18t-55.5 18q-19 0 -19 -19
v-13z" />
    <glyph glyph-name="zero.slash" horiz-adv-x="628" 
d="M316 672q136 0 204 -92.5t68 -246.5q0 -72 -15.5 -133t-47 -109.5t-85.5 -76t-127 -27.5q-136 0 -204.5 94t-68.5 248q0 152 68.5 247.5t207.5 95.5zM316 544q-49 0 -71 -49.5t-22 -162.5q0 -41 1 -59l149 243q-19 28 -57 28zM315 115q50 0 69 54t19 163q0 47 -3 83
l-154 -254q21 -46 69 -46z" />
    <glyph glyph-name="zero.slashtab" horiz-adv-x="606" 
d="M305 672q136 0 204 -92.5t68 -246.5q0 -72 -15.5 -133t-47 -109.5t-85.5 -76t-127 -27.5q-136 0 -204.5 94t-68.5 248q0 152 68.5 247.5t207.5 95.5zM305 544q-49 0 -71 -49.5t-22 -162.5q0 -41 1 -59l149 243q-19 28 -57 28zM304 115q50 0 69 54t19 163q0 47 -3 83
l-154 -254q21 -46 69 -46z" />
    <glyph glyph-name="zero.tab" horiz-adv-x="606" 
d="M305 672q140 0 207 -92.5t67 -246.5q0 -74 -14.5 -133.5t-45.5 -109t-86 -76.5t-131 -27q-74 0 -129 27t-86 75t-45.5 107.5t-14.5 132.5q0 71 15 130.5t46.5 108.5t86.5 76.5t130 27.5zM305 537q-45 0 -62 -45.5t-17 -159.5q0 -113 15.5 -161t62.5 -48q46 0 60.5 47.5
t14.5 161.5t-14.5 159.5t-59.5 45.5z" />
    <glyph glyph-name="one.tab" horiz-adv-x="606" 
d="M541 0h-456v149h134v315q-52 -7 -111 -1v123q113 12 174 76h130v-513h129v-149z" />
    <glyph glyph-name="two.tab" horiz-adv-x="606" 
d="M549 0h-500v17q0 99 45 171.5t142 141.5q75 54 97.5 78.5t22.5 59.5q0 71 -62 71q-36 0 -52 -22t-20 -66h-179q2 42 16.5 78.5t43 70t79.5 53t120 19.5q130 0 190 -59t60 -148q0 -67 -33 -113t-125 -106q-92 -62 -112 -101h290z" />
    <glyph glyph-name="three.tab" horiz-adv-x="606" 
d="M221 480h-175q4 35 17.5 66t40.5 61t77.5 47.5t118.5 17.5q117 0 179 -52t62 -131q0 -97 -87 -132v-4q111 -40 111 -155q0 -89 -65 -150t-202 -61q-60 0 -107 13.5t-75 34t-46.5 48.5t-26 53t-9.5 51h181q11 -70 80 -70q36 0 54.5 22t18.5 61q0 42 -21 63t-71 21h-58v130
h55q45 0 62 15t17 50q0 63 -62 63q-60 0 -69 -62z" />
    <glyph glyph-name="four.tab" horiz-adv-x="606" 
d="M504 0h-181v139h-294v140l250 380h225v-380h77l-16 -140h-61v-139zM323 279v82q0 89 4 146q-26 -59 -133 -228h129z" />
    <glyph glyph-name="five.tab" horiz-adv-x="606" 
d="M551 659l-25 -146h-269q-3 -29 -14 -92q43 29 115 29q100 0 156 -61t56 -156q0 -109 -68 -177.5t-201 -68.5q-118 0 -187 53.5t-79 143.5h187q15 -65 76 -65q38 0 56.5 27.5t18.5 73.5q0 98 -77 98q-59 0 -77 -52l-170 16q34 170 56 377h446z" />
    <glyph glyph-name="six.tab" horiz-adv-x="606" 
d="M559 493h-177q-12 54 -65 54q-46 0 -66 -37t-22 -106q50 48 140 48q91 0 149.5 -59.5t58.5 -158.5q0 -112 -71.5 -179.5t-193.5 -67.5q-143 0 -209.5 89.5t-66.5 244.5q0 55 8.5 104t29 95t52.5 79t81.5 53t112.5 20q117 0 175.5 -55t63.5 -124zM308 117q37 0 56 27.5
t19 74.5q0 103 -76 103q-73 0 -73 -97q0 -108 74 -108z" />
    <glyph glyph-name="seven.tab" horiz-adv-x="606" 
d="M56 659h493v-129q-81 -115 -142 -255t-79 -275h-205q18 132 87 278t144 235h-298v146z" />
    <glyph glyph-name="eight.tab" horiz-adv-x="606" 
d="M294 -13q-120 0 -193.5 55.5t-73.5 149.5q0 54 30 93t75 60q-80 51 -80 138q0 84 63.5 136.5t188.5 52.5q116 0 183 -50.5t67 -137.5q0 -94 -83 -133q42 -17 74.5 -56.5t32.5 -98.5q0 -97 -74 -153t-210 -56zM304 116q38 0 59 21.5t21 60.5q0 40 -21.5 60.5t-59.5 20.5
q-39 0 -60 -21.5t-21 -58.5q0 -39 22.5 -61t59.5 -22zM302 544q-69 0 -69 -69q0 -30 18 -47.5t52 -17.5q70 0 70 65q0 69 -71 69z" />
    <glyph glyph-name="nine.tab" horiz-adv-x="606" 
d="M41 172h190q13 -53 67 -53q20 0 34.5 10t23 24t13.5 36t7 40.5t3 43.5q-43 -46 -130 -46q-99 0 -158 58.5t-59 152.5q0 104 70.5 169t194.5 65q73 0 127.5 -25t86 -69.5t46.5 -99.5t15 -122q0 -369 -278 -369q-63 0 -112.5 17t-77.5 46t-43 59t-20 63zM301 541
q-36 0 -54.5 -24.5t-18.5 -67.5q0 -42 19.5 -67t55.5 -25q71 0 71 91q0 93 -73 93z" />
    <glyph glyph-name="zero.slashcap" horiz-adv-x="655" 
d="M330 700q74 0 130.5 -28.5t89.5 -78t49.5 -111t16.5 -134.5t-15 -134.5t-47 -114t-90 -82t-137 -29.5q-76 0 -132.5 28.5t-89.5 78.5t-49 112.5t-16 136.5q0 70 16 131.5t49 113t91 81.5t134 30zM330 571q-51 0 -75.5 -54.5t-24.5 -169.5q0 -51 4 -84l159 271
q-22 37 -63 37zM328 118q97 0 97 228q0 51 -4 83l-160 -270q24 -41 67 -41z" />
    <glyph glyph-name="zero.cap" horiz-adv-x="655" 
d="M330 700q74 0 130.5 -28.5t89.5 -78t49.5 -111t16.5 -134.5t-15 -134.5t-47 -114t-90 -82t-137 -29.5q-76 0 -132.5 28.5t-89.5 78.5t-49 112.5t-16 136.5q0 70 16 131.5t49 113t91 81.5t134 30zM330 563q-48 0 -68.5 -50t-20.5 -166t19 -168.5t68 -52.5q48 0 67 53.5
t19 166.5q0 115 -18 166t-66 51z" />
    <glyph glyph-name="one.cap" horiz-adv-x="417" 
d="M340 0h-202v484q-50 -12 -107 -7v127q49 7 95.5 30.5t75.5 54.5h138v-689z" />
    <glyph glyph-name="two.cap" horiz-adv-x="608" 
d="M561 0h-521v16q0 103 45.5 182t163.5 161q71 49 91.5 72t20.5 59q0 73 -65 73q-37 0 -53.5 -22t-22.5 -67h-187q3 41 17.5 77t43 71.5t83 56.5t127.5 21q131 0 195 -61t64 -152q0 -73 -34.5 -119.5t-133.5 -110.5q-98 -61 -122 -110h312z" />
    <glyph glyph-name="three.cap" horiz-adv-x="613" 
d="M214 499h-177q5 38 21 72t45.5 64t80.5 47.5t117 17.5q122 0 188 -53.5t66 -134.5q0 -97 -91 -137v-3q19 -7 36 -17.5t36.5 -29.5t31 -49t11.5 -68q0 -96 -69 -159t-211 -62q-67 1 -120 19t-84.5 48.5t-48.5 66.5t-20 76h183q17 -77 88 -77q83 0 83 88q0 47 -22.5 70
t-82.5 23h-51v131h51q49 0 69 13.5t20 52.5q0 71 -71 71q-66 0 -79 -70z" />
    <glyph glyph-name="four.cap" horiz-adv-x="620" 
d="M526 0h-189v154h-308v137l262 398h235v-397h80l-17 -138h-63v-154zM337 292v88q0 109 3 153q-13 -32 -70.5 -121.5t-73.5 -119.5h141z" />
    <glyph glyph-name="five.cap" horiz-adv-x="635" 
d="M577 689l-24 -147h-287q-6 -60 -14 -104q42 32 126 32q100 0 160.5 -63.5t60.5 -164.5q0 -117 -73.5 -186t-206.5 -69q-118 0 -192 55.5t-86 151.5h187q15 -71 86 -71q87 0 87 106q0 108 -88 108q-63 0 -87 -58l-171 18q13 61 31 191t24 201h467z" />
    <glyph glyph-name="six.cap" horiz-adv-x="639" 
d="M588 515h-179q-14 58 -75 58q-91 0 -97 -160q55 55 149 55q99 0 159.5 -61t60.5 -164q0 -115 -72 -185.5t-205 -70.5q-78 0 -134.5 26t-89.5 74t-48.5 109t-15.5 138q0 54 8 103.5t29 98.5t53.5 84.5t84.5 57.5t119 22q64 0 113 -16.5t77.5 -45t43.5 -59t19 -64.5z
M326 120q40 0 62 28t22 80q0 108 -85 108q-82 0 -82 -102q0 -52 21 -83t62 -31z" />
    <glyph glyph-name="seven.cap" horiz-adv-x="553" 
d="M20 689h515v-130q-182 -245 -234 -559h-216q22 151 92.5 298.5t151.5 242.5h-309v148z" />
    <glyph glyph-name="eight.cap" horiz-adv-x="645" 
d="M313 -13q-126 0 -202 58t-76 156q0 109 108 160q-82 47 -82 143q0 83 67 139.5t195 56.5q119 0 190.5 -53.5t71.5 -140.5q0 -94 -84 -139q45 -18 77 -57.5t32 -102.5q0 -104 -76.5 -162t-220.5 -58zM324 116q43 0 66.5 24.5t23.5 65.5q0 88 -92 88q-90 0 -90 -86
q0 -43 24.5 -67.5t67.5 -24.5zM322 573q-78 0 -78 -75q0 -32 20 -52t59 -20t58.5 19.5t19.5 51.5q0 35 -20 55.5t-59 20.5z" />
    <glyph glyph-name="nine.cap" horiz-adv-x="638" 
d="M44 174h191q16 -56 72 -56q87 0 93 170q-46 -47 -140 -47q-101 0 -164 58.5t-63 159.5q0 108 76 174.5t197 66.5q150 0 220.5 -89t70.5 -238q0 -386 -296 -386q-121 0 -183.5 53.5t-73.5 133.5zM314 572q-39 0 -61 -27t-22 -76q0 -47 22 -73t61 -26q41 0 60 23t19 74
q0 105 -79 105z" />
    <glyph glyph-name="period.sups" horiz-adv-x="210" 
d="M176 429h-142v147h142v-147z" />
    <glyph glyph-name="comma.sups" horiz-adv-x="204" 
d="M118 343h-109q37 101 39 231h135q-9 -145 -65 -231z" />
    <glyph glyph-name="dollar.sups" horiz-adv-x="445" 
d="M275 372h-108v56q-65 10 -103.5 42t-43.5 80h145q9 -36 62 -36q42 0 42 25q0 12 -13.5 20t-53.5 14q-94 17 -134 47t-40 82q0 50 35 83.5t104 42.5v45h108v-46q65 -10 97 -43t35 -75h-134q-8 33 -55 33q-46 0 -46 -25q0 -12 12.5 -17t55.5 -13q102 -18 140.5 -49.5
t38.5 -84.5q0 -106 -144 -125v-56z" />
    <glyph glyph-name="cent.sups" horiz-adv-x="424" 
d="M275 592h128q-16 -100 -124 -122v-53h-107v52q-69 12 -106 55.5t-37 103.5q0 64 38 106.5t105 54.5v47h107v-47q63 -13 92 -49.5t31 -72.5h-129q-8 36 -49 36q-25 0 -40 -18.5t-15 -53.5q0 -31 14.5 -53.5t41.5 -22.5q38 0 50 37z" />
    <glyph glyph-name="hyphen.sups" horiz-adv-x="249" 
d="M30 681h189v-116h-189v116z" />
    <glyph glyph-name="period.subs" horiz-adv-x="210" 
d="M176 -172h-142v147h142v-147z" />
    <glyph glyph-name="comma.subs" horiz-adv-x="204" 
d="M118 -258h-109q37 101 39 231h135q-9 -145 -65 -231z" />
    <glyph glyph-name="dollar.subs" horiz-adv-x="445" 
d="M275 -229h-108v56q-65 10 -103.5 42t-43.5 80h145q9 -36 62 -36q42 0 42 25q0 12 -13.5 20t-53.5 14q-94 17 -134 47t-40 82q0 50 35 83.5t104 42.5v45h108v-46q65 -10 97 -43t35 -75h-134q-8 33 -55 33q-46 0 -46 -25q0 -12 12.5 -17t55.5 -13q102 -18 140.5 -49.5
t38.5 -84.5q0 -106 -144 -125v-56z" />
    <glyph glyph-name="cent.subs" horiz-adv-x="424" 
d="M275 -9h128q-16 -100 -124 -122v-53h-107v52q-69 12 -106 55.5t-37 103.5q0 64 38 106.5t105 54.5v47h107v-47q63 -13 92 -49.5t31 -72.5h-129q-8 36 -49 36q-25 0 -40 -18.5t-15 -53.5q0 -31 14.5 -53.5t41.5 -22.5q38 0 50 37z" />
    <glyph glyph-name="hyphen.subs" horiz-adv-x="249" 
d="M30 80h189v-116h-189v116z" />
    <glyph glyph-name="zero.numr" horiz-adv-x="435" 
d="M218 665q97 0 145.5 -57.5t48.5 -143.5q0 -100 -52 -153.5t-144 -53.5q-90 -1 -141 55.5t-51 146.5q0 89 50.5 147.5t143.5 58.5zM217 564q-46 0 -46 -102q0 -104 47 -104t47 103q0 58 -11 80.5t-37 22.5z" />
    <glyph glyph-name="one.numr" horiz-adv-x="286" 
d="M234 262h-147v253q-25 -3 -63 1v97q71 5 114 50h96v-401z" />
    <glyph glyph-name="two.numr" horiz-adv-x="401" 
d="M370 262h-337v11q0 63 27 108.5t92 83.5q6 4 15.5 9.5t14.5 8t12 6.5t10 6.5t7.5 5.5t6.5 5.5t5 5.5t4 6t1.5 6.5t0.5 7.5q0 35 -35 35q-33 0 -40 -45h-128q4 61 48.5 102t127.5 41q91 0 131.5 -39t40.5 -89q0 -45 -21 -71.5t-81 -55.5q-51 -24 -64 -46h180z" />
    <glyph glyph-name="three.numr" horiz-adv-x="409" 
d="M156 422v93h31q45 0 45 25q0 30 -39 30q-37 0 -44 -34h-123q2 21 10 40.5t26 41t54 34.5t86 13q81 0 124.5 -32t43.5 -84q0 -53 -56 -75q25 -6 49 -28.5t24 -64.5q0 -22 -8 -42t-27 -39t-57 -30.5t-91 -11.5q-55 0 -94.5 14.5t-57.5 37.5t-25.5 42.5t-8.5 39.5h132
q8 -40 50 -40q19 0 30 9.5t11 25.5q0 35 -50 35h-35z" />
    <glyph glyph-name="four.numr" horiz-adv-x="419" 
d="M348 262h-132v85h-190v100l145 212h177v-215h57l-10 -97h-47v-85zM144 444h72v31q0 49 3 88q-17 -30 -75 -119z" />
    <glyph glyph-name="five.numr" horiz-adv-x="416" 
d="M372 659l-17 -99h-181q-2 -18 -8 -48q28 16 81 16q64 0 104 -33.5t40 -93.5q0 -63 -49 -103.5t-131 -40.5q-90 0 -135.5 38.5t-49.5 87.5h135q8 -30 42 -30q40 0 40 44q0 45 -44 45q-32 0 -44 -22l-126 13q26 121 39 226h304z" />
    <glyph glyph-name="six.numr" horiz-adv-x="425" 
d="M390 546h-131q-9 28 -42 28q-49 0 -51 -70q33 26 92 26q64 0 105.5 -34.5t40.5 -94.5q-1 -64 -50 -104t-134 -40q-95 0 -145.5 54t-50.5 146q0 39 10 74.5t31.5 66.5t61 49t91.5 18q82 0 124 -36.5t48 -82.5zM215 349q20 0 34 12t14 38q-2 51 -49 51t-47 -47
q0 -22 12 -38t36 -16z" />
    <glyph glyph-name="seven.numr" horiz-adv-x="383" 
d="M27 659h331v-98q-92 -115 -140 -299h-157q16 74 59 154.5t88 134.5h-181v108z" />
    <glyph glyph-name="eight.numr" horiz-adv-x="417" 
d="M207 257q-90 0 -138 34t-48 89q0 61 66 87q-48 31 -48 83q0 50 42.5 82.5t130.5 32.5q84 0 125.5 -34t41.5 -79q0 -54 -54 -79q71 -27 71 -91q0 -60 -51 -92.5t-138 -32.5zM211 341q22 0 34.5 11.5t12.5 28.5q0 44 -49 44q-46 0 -46 -41q0 -20 13.5 -31.5t34.5 -11.5z
M209 580q-40 0 -40 -36q0 -39 41 -39q37 0 37 38q0 37 -38 37z" />
    <glyph glyph-name="nine.numr" horiz-adv-x="424" 
d="M28 376h138q12 -27 41 -27q23 0 36.5 19t13.5 54q-26 -22 -87 -22q-65 0 -107 31.5t-42 92.5q0 60 48.5 100.5t136.5 40.5q91 0 142.5 -52.5t51.5 -143.5q0 -97 -47.5 -154.5t-145.5 -57.5q-82 0 -126.5 34.5t-52.5 84.5zM207 571q-19 0 -32.5 -11t-13.5 -34
q0 -45 50 -45q19 0 32 10.5t13 32.5q0 47 -49 47z" />
    <glyph glyph-name="parenleft.numr" horiz-adv-x="262" 
d="M117 703h115q-23 -39 -36.5 -66t-26.5 -78t-13 -106q0 -130 76 -249h-115q-31 34 -55.5 100t-24.5 149q0 144 80 250z" />
    <glyph glyph-name="parenright.numr" horiz-adv-x="262" 
d="M145 210h-116q24 39 37.5 66.5t26.5 78.5t13 106q0 79 -20.5 136t-56.5 113h116q31 -34 55.5 -100t24.5 -149q0 -143 -80 -251z" />
    <glyph glyph-name="period.numr" horiz-adv-x="210" 
d="M176 262h-142v147h142v-147z" />
    <glyph glyph-name="comma.numr" horiz-adv-x="204" 
d="M118 176h-109q37 101 39 231h135q-9 -145 -65 -231z" />
    <glyph glyph-name="dollar.numr" horiz-adv-x="445" 
d="M275 205h-108v56q-65 10 -103.5 42t-43.5 80h145q9 -36 62 -36q42 0 42 25q0 12 -13.5 20t-53.5 14q-94 17 -134 47t-40 82q0 50 35 83.5t104 42.5v45h108v-46q65 -10 97 -43t35 -75h-134q-8 33 -55 33q-46 0 -46 -25q0 -12 12.5 -17t55.5 -13q102 -18 140.5 -49.5
t38.5 -84.5q0 -106 -144 -125v-56z" />
    <glyph glyph-name="cent.numr" horiz-adv-x="424" 
d="M275 425h128q-16 -100 -124 -122v-53h-107v52q-69 12 -106 55.5t-37 103.5q0 64 38 106.5t105 54.5v47h107v-47q63 -13 92 -49.5t31 -72.5h-129q-8 36 -49 36q-25 0 -40 -18.5t-15 -53.5q0 -31 14.5 -53.5t41.5 -22.5q38 0 50 37z" />
    <glyph glyph-name="hyphen.numr" horiz-adv-x="249" 
d="M30 514h189v-116h-189v116z" />
    <glyph glyph-name="zero.dnom" horiz-adv-x="435" 
d="M218 402q97 0 145.5 -57.5t48.5 -143.5q0 -100 -52 -153.5t-144 -53.5q-90 -1 -141 55.5t-51 146.5q0 89 50.5 147.5t143.5 58.5zM217 301q-46 0 -46 -102q0 -104 47 -104t47 103q0 58 -11 80.5t-37 22.5z" />
    <glyph glyph-name="one.dnom" horiz-adv-x="286" 
d="M234 -1h-147v253q-25 -3 -63 1v97q71 5 114 50h96v-401z" />
    <glyph glyph-name="two.dnom" horiz-adv-x="401" 
d="M370 -1h-337v11q0 63 27 108.5t92 83.5q6 4 15.5 9.5t14.5 8t12 6.5t10 6.5t7.5 5.5t6.5 5.5t5 5.5t4 6t1.5 6.5t0.5 7.5q0 35 -35 35q-33 0 -40 -45h-128q4 61 48.5 102t127.5 41q91 0 131.5 -39t40.5 -89q0 -45 -21 -71.5t-81 -55.5q-51 -24 -64 -46h180z" />
    <glyph glyph-name="three.dnom" horiz-adv-x="409" 
d="M156 159v93h31q45 0 45 25q0 30 -39 30q-37 0 -44 -34h-123q2 21 10 40.5t26 41t54 34.5t86 13q81 0 124.5 -32t43.5 -84q0 -53 -56 -75q25 -6 49 -28.5t24 -64.5q0 -22 -8 -42t-27 -39t-57 -30.5t-91 -11.5q-55 0 -94.5 14.5t-57.5 37.5t-25.5 42.5t-8.5 39.5h132
q8 -40 50 -40q19 0 30 9.5t11 25.5q0 35 -50 35h-35z" />
    <glyph glyph-name="four.dnom" horiz-adv-x="419" 
d="M348 -1h-132v85h-190v100l145 212h177v-215h57l-10 -97h-47v-85zM144 181h72v31q0 49 3 88q-17 -30 -75 -119z" />
    <glyph glyph-name="five.dnom" horiz-adv-x="416" 
d="M372 396l-17 -99h-181q-2 -18 -8 -48q28 16 81 16q64 0 104 -33.5t40 -93.5q0 -63 -49 -103.5t-131 -40.5q-90 0 -135.5 38.5t-49.5 87.5h135q8 -30 42 -30q40 0 40 44q0 45 -44 45q-32 0 -44 -22l-126 13q26 121 39 226h304z" />
    <glyph glyph-name="six.dnom" horiz-adv-x="425" 
d="M390 283h-131q-9 28 -42 28q-49 0 -51 -70q33 26 92 26q64 0 105.5 -34.5t40.5 -94.5q-1 -64 -50 -104t-134 -40q-95 0 -145.5 54t-50.5 146q0 39 10 74.5t31.5 66.5t61 49t91.5 18q82 0 124 -36.5t48 -82.5zM215 86q20 0 34 12t14 38q-2 51 -49 51t-47 -47q0 -22 12 -38
t36 -16z" />
    <glyph glyph-name="seven.dnom" horiz-adv-x="383" 
d="M27 396h331v-98q-92 -115 -140 -299h-157q16 74 59 154.5t88 134.5h-181v108z" />
    <glyph glyph-name="eight.dnom" horiz-adv-x="417" 
d="M207 -6q-90 0 -138 34t-48 89q0 61 66 87q-48 31 -48 83q0 50 42.5 82.5t130.5 32.5q84 0 125.5 -34t41.5 -79q0 -54 -54 -79q71 -27 71 -91q0 -60 -51 -92.5t-138 -32.5zM211 78q22 0 34.5 11.5t12.5 28.5q0 44 -49 44q-46 0 -46 -41q0 -20 13.5 -31.5t34.5 -11.5z
M209 317q-40 0 -40 -36q0 -39 41 -39q37 0 37 38q0 37 -38 37z" />
    <glyph glyph-name="nine.dnom" horiz-adv-x="424" 
d="M28 113h138q12 -27 41 -27q23 0 36.5 19t13.5 54q-26 -22 -87 -22q-65 0 -107 31.5t-42 92.5q0 60 48.5 100.5t136.5 40.5q91 0 142.5 -52.5t51.5 -143.5q0 -97 -47.5 -154.5t-145.5 -57.5q-82 0 -126.5 34.5t-52.5 84.5zM207 308q-19 0 -32.5 -11t-13.5 -34
q0 -45 50 -45q19 0 32 10.5t13 32.5q0 47 -49 47z" />
    <glyph glyph-name="parenleft.dnom" horiz-adv-x="262" 
d="M117 440h115q-23 -39 -36.5 -66t-26.5 -78t-13 -106q0 -130 76 -249h-115q-31 34 -55.5 100t-24.5 149q0 144 80 250z" />
    <glyph glyph-name="parenright.dnom" horiz-adv-x="262" 
d="M145 -53h-116q24 39 37.5 66.5t26.5 78.5t13 106q0 79 -20.5 136t-56.5 113h116q31 -34 55.5 -100t24.5 -149q0 -143 -80 -251z" />
    <glyph glyph-name="period.dnom" horiz-adv-x="210" 
d="M176 -1h-142v147h142v-147z" />
    <glyph glyph-name="comma.dnom" horiz-adv-x="204" 
d="M118 -87h-109q37 101 39 231h135q-9 -145 -65 -231z" />
    <glyph glyph-name="dollar.dnom" horiz-adv-x="445" 
d="M275 -58h-108v56q-65 10 -103.5 42t-43.5 80h145q9 -36 62 -36q42 0 42 25q0 12 -13.5 20t-53.5 14q-94 17 -134 47t-40 82q0 50 35 83.5t104 42.5v45h108v-46q65 -10 97 -43t35 -75h-134q-8 33 -55 33q-46 0 -46 -25q0 -12 12.5 -17t55.5 -13q102 -18 140.5 -49.5
t38.5 -84.5q0 -106 -144 -125v-56z" />
    <glyph glyph-name="cent.dnom" horiz-adv-x="424" 
d="M275 162h128q-16 -100 -124 -122v-53h-107v52q-69 12 -106 55.5t-37 103.5q0 64 38 106.5t105 54.5v47h107v-47q63 -13 92 -49.5t31 -72.5h-129q-8 36 -49 36q-25 0 -40 -18.5t-15 -53.5q0 -31 14.5 -53.5t41.5 -22.5q38 0 50 37z" />
    <glyph glyph-name="hyphen.dnom" horiz-adv-x="249" 
d="M30 251h189v-116h-189v116z" />
    <glyph glyph-name="a.sups" horiz-adv-x="405" 
d="M366 480v-114q0 -73 2 -104l-130 -1q-1 6 -4 35q-32 -41 -98 -41q-52 0 -84.5 29t-32.5 78q0 112 166 112h44v13q0 37 -35 37q-33 0 -37 -34h-124q12 112 166 112q167 0 167 -122zM232 397v11h-27q-49 0 -49 -32q0 -13 8.5 -21.5t23.5 -8.5q44 0 44 51z" />
    <glyph glyph-name="b.sups" horiz-adv-x="430" 
d="M36 262v465h137v-163q33 38 95 38q55 0 96.5 -42.5t41.5 -122.5q0 -86 -44 -132.5t-107 -46.5q-56 0 -83 33q0 -3 -0.5 -14t-0.5 -15h-135zM265 431q0 75 -48 75q-26 0 -37 -18t-11 -58q0 -78 47 -78q23 0 36 21.5t13 57.5z" />
    <glyph glyph-name="c.sups" horiz-adv-x="395" 
d="M254 384h124q-21 -127 -174 -127q-86 0 -133 49.5t-47 121.5q0 75 48 124.5t135 49.5q84 0 126 -41.5t44 -89.5h-127q-5 42 -40 42q-45 0 -45 -82q0 -87 47 -87q32 0 42 40z" />
    <glyph glyph-name="d.sups" horiz-adv-x="433" 
d="M259 727h136v-366q0 -80 1 -99h-130q-3 27 -3 38q-26 -43 -94 -43q-64 0 -104 46.5t-40 124.5q0 81 45.5 127.5t110.5 46.5q59 0 78 -24v149zM165 428q0 -34 12.5 -54t35.5 -20q48 0 48 77q0 44 -11.5 59.5t-35.5 15.5q-49 0 -49 -78z" />
    <glyph glyph-name="e.sups" horiz-adv-x="403" 
d="M380 403h-220q2 -58 51 -58q33 0 45 25h124q-33 -113 -175 -113q-88 1 -134.5 50t-46.5 120t46 124t135 53q90 0 133.5 -48.5t43.5 -116.5q0 -26 -2 -36zM161 470h92q0 52 -45 52q-23 0 -35 -14.5t-12 -37.5z" />
    <glyph glyph-name="f.sups" horiz-adv-x="228" 
d="M179 262h-134v240h-43v94h43v13q0 123 132 123q29 0 51 -4v-89q-7 2 -21 2q-28 0 -28 -32v-13h50v-94h-50v-240z" />
    <glyph glyph-name="g.sups" horiz-adv-x="433" 
d="M393 492v-190q0 -88 -44.5 -132.5t-144.5 -44.5q-48 0 -83 12t-53.5 31t-27 37t-11.5 37h134q11 -28 44 -28q51 0 51 64v24q-27 -34 -88 -34q-63 0 -104 44t-41 116q0 77 43 124.5t105 49.5q70 0 92 -35q0 16 2 28h128q-2 -48 -2 -103zM164 434q0 -29 11.5 -50.5
t36.5 -21.5q28 0 38.5 19t10.5 56q0 38 -11 54.5t-37 16.5q-49 0 -49 -74z" />
    <glyph glyph-name="h.sups" horiz-adv-x="427" 
d="M36 262v465h136v-162q39 37 98 37q55 0 88 -34t33 -99v-207h-136v186q0 51 -38 51q-45 0 -45 -64v-173h-136z" />
    <glyph glyph-name="i.sups" horiz-adv-x="208" 
d="M172 262h-136v334h136v-334zM172 638h-136v89h136v-89z" />
    <glyph glyph-name="j.sups" horiz-adv-x="209" 
d="M-1 126v108h5q35 0 35 41v321h135v-303q0 -86 -33.5 -127t-118.5 -41l-10 1h-13zM174 638h-136v89h136v-89z" />
    <glyph glyph-name="k.sups" horiz-adv-x="405" 
d="M169 727v-254q14 20 46 65t42 58h151q-21 -24 -59 -66.5t-53 -59.5q3 -6 58.5 -99.5t63.5 -108.5h-153q-2 5 -31.5 65t-31.5 65q-22 -26 -33 -37v-93h-133v465h133z" />
    <glyph glyph-name="l.sups" horiz-adv-x="207" 
d="M172 262h-136v465h136v-465z" />
    <glyph glyph-name="m.sups" horiz-adv-x="628" 
d="M593 262h-130v191q0 48 -39 48q-42 0 -42 -56v-183h-135v194q0 45 -36 45q-41 0 -41 -62v-177h-134v229q0 82 -1 105h133q2 -14 2 -37q37 43 99 43q67 0 93 -49q44 49 108 49q57 0 90 -33.5t33 -102.5v-204z" />
    <glyph glyph-name="o.sups" horiz-adv-x="427" 
d="M215 602q89 0 138.5 -48t48.5 -125q-1 -82 -52 -127t-139 -45q-85 0 -136 47t-51 123q0 79 50.5 127t140.5 48zM213 511q-48 0 -48 -82q0 -83 49 -83t49 83q0 82 -50 82z" />
    <glyph glyph-name="p.sups" horiz-adv-x="430" 
d="M172 139h-136v362q0 75 -1 95h132q0 -4 2 -18t2 -20q34 44 100 44q55 0 95 -44t40 -123q0 -84 -46.5 -130.5t-107.5 -46.5q-55 0 -80 29v-148zM265 431q0 75 -48 75q-26 0 -37 -18t-11 -58t10 -59t36 -19q50 0 50 79z" />
    <glyph glyph-name="q.sups" horiz-adv-x="430" 
d="M260 139v153q-29 -35 -92 -35q-62 0 -103 45.5t-41 125.5q0 76 45.5 125t109.5 49q66 0 86 -37q0 17 3 31h128q-2 -42 -2 -119v-338h-134zM164 428q0 -36 12.5 -56.5t35.5 -20.5q49 0 49 78q0 45 -11 61.5t-36 16.5q-50 0 -50 -79z" />
    <glyph glyph-name="r.sups" horiz-adv-x="293" 
d="M36 262v221q0 92 -1 113h132q3 -33 3 -54q33 60 111 60v-129q-58 3 -83.5 -17.5t-25.5 -77.5v-116h-136z" />
    <glyph glyph-name="s.sups" horiz-adv-x="360" 
d="M19 370h119q7 -32 41 -32t34 20q0 10 -11.5 16t-45.5 13q-72 13 -100.5 39t-28.5 67q0 50 40 80.5t113 30.5q75 0 113 -31.5t41 -77.5h-112q-7 30 -40 30q-29 0 -29 -19q0 -15 41 -23q89 -16 119.5 -43t30.5 -71q0 -50 -42 -80.5t-120 -30.5q-75 0 -117 33t-46 79z" />
    <glyph glyph-name="t.sups" horiz-adv-x="252" 
d="M-5 596h51v89h133v-89h63v-94h-63v-109q0 -19 6.5 -26.5t25.5 -7.5q13 0 21 1v-93q-23 -9 -75 -9q-62 0 -87 25.5t-25 81.5v137h-50v94z" />
    <glyph glyph-name="u.sups" horiz-adv-x="424" 
d="M388 596v-229q0 -87 1 -105h-130q-4 11 -4 38q-34 -43 -101 -43q-53 0 -85.5 33t-32.5 94v212h136v-184q0 -52 38 -52q41 0 41 58v178h137z" />
    <glyph glyph-name="v.sups" horiz-adv-x="387" 
d="M1 596h145q34 -122 52 -236h4q13 83 51 236h138l-110 -334h-171z" />
    <glyph glyph-name="w.sups" horiz-adv-x="566" 
d="M2 596h145q26 -127 37 -219h3q12 90 39 219h123q23 -107 38 -220h3q5 54 35 220h139l-93 -334h-150q-7 34 -15.5 74t-13.5 64.5t-8 41.5h-4q-2 -13 -39 -180h-152z" />
    <glyph glyph-name="x.sups" horiz-adv-x="366" 
d="M-12 596h155q30 -56 45 -96h2q15 43 43 96h142l-108 -159l110 -175h-151q-31 60 -48 98h-2q-11 -28 -46 -98h-142l111 165z" />
    <glyph glyph-name="y.sups" horiz-adv-x="382" 
d="M-5 596h154q37 -127 49 -208h4q10 73 47 208h140l-109 -313q-32 -96 -70 -127t-112 -31q-21 0 -51 2v109h26q41 0 56 33z" />
    <glyph glyph-name="z.sups" horiz-adv-x="352" 
d="M19 262v89q15 13 75.5 70t83.5 78h-152v97h301v-90q-17 -19 -70 -71t-83 -77h168l-17 -96h-306z" />
    <glyph glyph-name="egrave.sups" horiz-adv-x="403" 
d="M51 729h149l73 -96h-113zM380 403h-220q2 -58 51 -58q33 0 45 25h124q-33 -113 -175 -113q-88 1 -134.5 50t-46.5 120t46 124t135 53q90 0 133.5 -48.5t43.5 -116.5q0 -26 -2 -36zM161 470h92q0 52 -45 52q-23 0 -35 -14.5t-12 -37.5z" />
    <glyph glyph-name="eacute.sups" horiz-adv-x="403" 
d="M212 729h153l-114 -96h-114zM380 403h-220q2 -58 51 -58q33 0 45 25h124q-33 -113 -175 -113q-88 1 -134.5 50t-46.5 120t46 124t135 53q90 0 133.5 -48.5t43.5 -116.5q0 -26 -2 -36zM161 470h92q0 52 -45 52q-23 0 -35 -14.5t-12 -37.5z" />
    <glyph glyph-name="dong.alt" horiz-adv-x="612" 
d="M354 664h181v-54h53v-104h-53v-360q0 -120 1 -146h-172q-6 19 -8 44q-42 -51 -128 -51q-88 0 -143.5 63.5t-55.5 163.5q0 106 62 168t155 62q78 0 108 -30v86h-189v104h189v54zM215 224q0 -102 72 -102t72 102q0 100 -71 100q-35 0 -54 -26t-19 -74z" />
    <glyph glyph-name="currency.tab" horiz-adv-x="606" 
d="M302 550q60 0 108 -27l71 71l96 -101l-76 -76q16 -42 16 -89q0 -50 -17 -95l77 -76l-96 -101l-71 72q-49 -27 -111 -27q-58 0 -109 27l-70 -72l-97 101l75 75q-18 42 -18 93q0 50 18 92l-75 76l97 101l72 -72q48 28 110 28zM300 422q-75 0 -75 -96q0 -98 75 -98
q71 0 71 99q0 95 -71 95z" />
    <glyph glyph-name="dollar.tab" horiz-adv-x="606" 
d="M364 -78h-133v75q-94 14 -146 65t-57 127h178q16 -71 94 -71q73 0 73 56q0 30 -21.5 46.5t-82.5 32.5q-129 36 -178 86.5t-49 127.5q0 76 49.5 128t133.5 67v61h133v-61q89 -14 135 -62.5t52 -120.5h-175q-3 13 -6.5 21.5t-11.5 19.5t-24 17t-38 6q-33 0 -48.5 -15.5
t-15.5 -37.5q0 -26 23 -40.5t94 -34.5q124 -34 171 -85t47 -132q-1 -86 -53 -136.5t-144 -63.5v-76z" />
    <glyph glyph-name="sterling.tab" horiz-adv-x="606" 
d="M553 0h-512v131q40 17 53.5 48t13.5 98h-78v112h69q-2 34 -2 56q0 102 56.5 164t173.5 62q63 0 108 -18t68.5 -47.5t34 -60t12.5 -63.5h-168q-4 26 -14 40.5t-35 14.5q-48 0 -48 -72q0 -26 4 -76h132v-112h-130q-5 -85 -37 -131h319z" />
    <glyph glyph-name="yen.tab" horiz-adv-x="606" 
d="M520 127h-126v-127h-191v127h-123v101h123v50h-123v102h96l-163 279h213q72 -182 81 -215h3q11 42 81 215h201l-170 -279h98v-102h-126v-50h126v-101z" />
    <glyph glyph-name="Euro.tab" horiz-adv-x="606" 
d="M392 180h174q-18 -88 -77.5 -140t-164.5 -52q-108 0 -173 61t-84 181h-55v84h48v18v25h-48v85h58q22 110 88.5 169.5t169.5 59.5q60 0 106.5 -18t72.5 -47.5t40 -60t16 -61.5h-172q-14 57 -64 57q-59 0 -73 -99h145v-85h-151v-24v-19h151v-84h-146q8 -56 26 -82t50 -26
q29 0 42 15.5t21 42.5z" />
    <glyph glyph-name="cent.tab" horiz-adv-x="606" 
d="M387 250h181q-10 -67 -56 -115.5t-124 -64.5v-79h-132v77q-100 17 -154.5 87.5t-54.5 170.5t54 170t155 87v60h132v-61q92 -17 134.5 -70t45.5 -112h-181q-6 29 -21 45.5t-48 16.5q-76 0 -76 -132q0 -138 76 -138q54 0 69 58z" />
    <glyph glyph-name="florin.tab" horiz-adv-x="606" 
d="M564 675l-27 -128q-27 9 -51 9q-49 0 -61 -79l-7 -48h95v-118h-112l-30 -202q-7 -47 -19.5 -83t-35.5 -68.5t-62.5 -50t-94.5 -17.5q-74 0 -117 23l27 136q27 -11 56 -11q24 0 34.5 18.5t19.5 70.5l29 184h-78v118h97l4 26q35 240 223 240q76 0 110 -20z" />
    <glyph glyph-name="colonmonetary.tab" horiz-adv-x="606" 
d="M217 328q0 -204 87 -204q34 0 52 16.5t26 57.5h182q-21 -145 -149 -189v-100h-88v84q-7 -1 -23 -1h-13v-83h-88v99q-86 29 -133 109.5t-47 204.5q0 126 46 209.5t134 115.5v76h88v-59q8 1 25 1h11v58h88v-72q70 -22 107 -74t41 -114h-179q-12 71 -75 71q-48 0 -70 -49.5
t-22 -156.5z" />
    <glyph glyph-name="lira.tab" horiz-adv-x="606" 
d="M552 0h-511v131q30 12 44.5 32t19.5 56h-71v84h73q0 8 -1.5 24.5t-1.5 18.5h-70v84h64v17q0 103 58.5 164t171.5 61q62 0 108 -18.5t70 -49t36 -60t14 -59.5h-169q-8 53 -52 53q-49 0 -49 -68q0 -27 1 -40h133v-84h-128q1 -9 1 -29v-14h127v-84h-134q-8 -47 -32 -73h319z
" />
    <glyph glyph-name="franc.tab" horiz-adv-x="606" 
d="M106 0v100h-70v106h70v453h450v-145h-258v-100h241v-141h-241v-67h101v-106h-101v-100h-192z" />
    <glyph glyph-name="uni20A6.tab" horiz-adv-x="606" 
d="M195 515q2 -20 4 -63h19l-12 63h-11zM377 165h12q-2 21 -4 70h-21zM202 0h-139v235h-50v83h50v50h-50v84h50v207h220l39 -207h57v46v161h137v-207h52v-84h-52v-50h52v-83h-52v-235h-211l-45 235h-58v-75v-160zM382 318q0 8 -1 24.5t-1 25.5h-42l10 -50h34zM244 318
l-10 50h-33q0 -33 1 -50h42z" />
    <glyph glyph-name="peseta.tab" horiz-adv-x="606" 
d="M50 0v383h-64v90h64v186h229q105 0 174 -47.5t82 -138.5h47v-90h-48q-14 -91 -82 -139t-176 -48h-46v-196h-180zM230 542v-69h128q-6 36 -26 52.5t-59 16.5h-43zM230 317h36q77 0 91 66h-127v-66z" />
    <glyph glyph-name="dong.tab" horiz-adv-x="606" 
d="M44 -63h483v-105h-483v105zM342 664h181v-54h53v-104h-53v-360q0 -120 1 -146h-172q-6 19 -8 44q-42 -51 -128 -51q-88 0 -143.5 63.5t-55.5 163.5q0 106 62 168t155 62q78 0 108 -30v86h-189v104h189v54zM203 224q0 -102 72 -102t72 102q0 100 -71 100q-35 0 -54 -26
t-19 -74z" />
    <glyph glyph-name="dong.alttab" horiz-adv-x="606" 
d="M342 664h181v-54h53v-104h-53v-360q0 -120 1 -146h-172q-6 19 -8 44q-42 -51 -128 -51q-88 0 -143.5 63.5t-55.5 163.5q0 106 62 168t155 62q78 0 108 -30v86h-189v104h189v54zM203 224q0 -102 72 -102t72 102q0 100 -71 100q-35 0 -54 -26t-19 -74z" />
    <glyph glyph-name="uni20B1.tab" horiz-adv-x="606" 
d="M47 0v337h-55v69h55v30h-55v70h55v153h223q208 0 254 -153h49v-70h-38v-13v-17h38v-69h-50q-23 -76 -89 -117t-166 -41h-45v-179h-176zM223 546v-40h128q-19 40 -79 40h-49zM365 419v17h-142v-30h142v13zM223 295h43q63 0 84 42h-127v-42z" />
    <glyph glyph-name="uni20B2.tab" horiz-adv-x="606" 
d="M554 472h-176q-14 67 -79 67q-93 0 -93 -200q0 -50 3.5 -84.5t14 -66t32.5 -47t55 -15.5q32 0 48 8v211h188v-311q-117 -38 -183 -43v-69h-132v72q-108 21 -164 107t-56 229t58.5 227t161.5 105v59h132v-58q84 -14 134.5 -64.5t55.5 -126.5z" />
    <glyph glyph-name="uni20B4.tab" horiz-adv-x="606" 
d="M233 491h-178q4 72 64 126.5t175 54.5q114 0 175.5 -52.5t61.5 -130.5q0 -34 -10 -61h38v-76h-97q-21 -18 -51 -36h138v-76h-264q-44 -34 -44 -69q0 -24 15.5 -39t42.5 -15q59 0 69 56h179q-26 -186 -263 -186q-99 0 -168 50.5t-69 134.5q0 38 13 68h-33v76h97
q15 12 52 36h-138v76h264q41 30 41 65q0 22 -14 37t-41 15q-50 0 -55 -54z" />
    <glyph glyph-name="uni20B5.tab" horiz-adv-x="606" 
d="M204 328q0 -199 89 -199q34 0 50.5 17t25.5 51h182q-12 -79 -60 -131t-130 -68v-76h-133v76q-103 20 -160.5 103.5t-57.5 220.5q0 143 56 229t163 107v63h132v-61q90 -15 137.5 -73t51.5 -128h-179q-12 68 -75 68q-48 0 -70 -48t-22 -151z" />
    <glyph glyph-name="uni20B9.tab" horiz-adv-x="606" 
d="M556 423h-94q-14 -108 -128 -156l197 -267h-208l-170 235h-96v124h99q92 0 112 64h-211v95h197q-29 37 -92 37h-105v104h499v-97h-122q13 -21 20 -44h102v-95z" />
    <glyph glyph-name="uni20BA.tab" horiz-adv-x="606" 
d="M263 0h-177v228l-69 -28v97l69 28v54l-69 -28v98l69 28v182h193v-103l99 40v-98l-99 -40v-54l99 40v-97l-99 -40v-163q114 0 128 136h158q-1 -32 -8 -64.5t-27.5 -73t-51.5 -70.5t-87 -51t-128 -21z" />
    <glyph glyph-name="uni20BD.tab" horiz-adv-x="606" 
d="M40 0v105h-59v101h59v63h-59v122h59v268h276q115 0 181.5 -51t66.5 -140q0 -199 -250 -199h-83v-63h137v-101h-137v-105h-191zM231 535v-144h59q82 0 82 72t-81 72h-60z" />
    <glyph glyph-name="currency.cap" horiz-adv-x="583" 
d="M294 575q60 0 108 -27l71 72l96 -101l-76 -76q16 -42 16 -89q0 -50 -17 -95l77 -76l-96 -101l-71 72q-49 -27 -111 -27q-58 0 -109 27l-70 -72l-97 101l75 75q-18 42 -18 93q0 50 18 92l-75 76l97 101l71 -72q51 27 111 27zM292 447q-75 0 -75 -95q0 -99 75 -99
q71 0 71 100q0 94 -71 94z" />
    <glyph glyph-name="dollar.cap" horiz-adv-x="617" 
d="M377 -87h-138v82q-96 13 -150.5 64t-62.5 130h183q16 -71 101 -71q84 0 84 63q0 32 -25 50.5t-91 36.5q-137 40 -187 93t-50 134q0 80 51 132t140 67v66h137v-66q94 -14 142 -63.5t55 -120.5h-183q-15 62 -87 62q-39 0 -54.5 -17.5t-15.5 -40.5q0 -27 25.5 -44t102.5 -39
q128 -36 178.5 -90.5t50.5 -134.5q0 -87 -55 -141t-151 -69v-83z" />
    <glyph glyph-name="sterling.cap" horiz-adv-x="609" 
d="M570 0h-533v127q38 24 54.5 60.5t16.5 94.5v9h-88v113h79q-3 32 -3 68q0 100 61.5 164t176.5 64q62 0 109 -18.5t73.5 -48.5t39.5 -62t15 -65h-171q-9 60 -58 60q-56 0 -56 -80q0 -26 4 -82h136v-113h-134q-4 -96 -44 -147h343z" />
    <glyph glyph-name="yen.cap" horiz-adv-x="568" 
d="M507 138h-131v-138h-193v138h-128v98h128v54h-128v100h103l-173 299h215q75 -186 86 -227h2q20 60 91 227h203l-180 -299h105v-100h-131v-54h131v-98z" />
    <glyph glyph-name="Euro.cap" horiz-adv-x="634" 
d="M429 182h178q-42 -194 -253 -194q-230 0 -269 252h-57v88h50v18v27h-50v88h60q23 120 94 179.5t176 59.5q63 0 111.5 -18.5t75.5 -49t41 -62t17 -63.5h-175q-14 60 -71 60q-33 0 -52 -24.5t-26 -81.5h153v-88h-159v-26v-19h159v-88h-154q8 -62 27.5 -89.5t54.5 -27.5
q57 0 69 59z" />
    <glyph glyph-name="cent.cap" horiz-adv-x="618" 
d="M407 256h183q-13 -72 -60 -120.5t-131 -63.5v-78h-137v77q-102 19 -159 91t-57 178q0 109 57.5 180.5t159.5 88.5v64h136v-65q52 -10 91 -32.5t59.5 -50.5t30 -53.5t10.5 -49.5h-184q-15 66 -78 66q-85 0 -85 -143q0 -150 86 -150q59 0 78 61z" />
    <glyph glyph-name="florin.cap" horiz-adv-x="569" 
d="M554 707l-29 -131q-20 8 -52 8q-31 0 -44 -21t-20 -65l-8 -51h100v-121h-118l-31 -209q-6 -41 -13.5 -70.5t-23 -62t-36.5 -52.5t-56 -33t-81 -13q-84 0 -127 20l29 139q21 -10 57 -10q27 0 37.5 20t19.5 77l31 194h-82v121h102l4 26q6 39 12.5 65.5t23 65t39 62.5
t62.5 41.5t92 17.5q73 0 112 -18z" />
    <glyph glyph-name="colonmonetary.cap" horiz-adv-x="628" 
d="M225 343q0 -217 103 -217q36 0 55.5 20t29.5 61h182q-22 -156 -156 -199v-97h-90v81q-9 -1 -27 -1h-9v-80h-91v95q-92 29 -142.5 115t-50.5 221q0 129 49 216.5t144 119.5v77h91v-60h19h17v60h90v-75q74 -23 112.5 -75.5t43.5 -117.5h-181q-13 77 -86 77
q-103 0 -103 -221z" />
    <glyph glyph-name="lira.cap" horiz-adv-x="609" 
d="M570 0h-533v127q57 37 67 103h-83v85h86q0 7 -1.5 22.5t-2.5 23.5h-82v87h76v21q0 103 60 167t177 64q62 0 109.5 -18t73.5 -47.5t39 -61t15 -65.5h-171q-9 58 -57 58q-56 0 -56 -80q0 -26 1 -38h128v-87h-124q1 -13 1 -41v-5h123v-85h-129q-9 -54 -32 -86h336z" />
    <glyph glyph-name="franc.cap" horiz-adv-x="584" 
d="M81 0v110h-74v106h74v473h467v-150h-272v-103h255v-146h-255v-74h109v-106h-109v-110h-195z" />
    </font>
</defs>
</svg>
